<svg width="311" height="311" viewBox="0 0 311 311" fill="none" xmlns="http://www.w3.org/2000/svg">
<path d="M69.8477 119.059C82.8323 100.983 95.7864 82.95 108.794 64.8458C126.693 73.5444 144.51 82.2049 162.421 90.9112C161.743 92.3021 161.1 93.6269 160.452 94.9491C158.537 98.8674 156.599 102.776 154.722 106.712C154.34 107.518 153.832 107.769 152.978 107.838C147.771 108.268 142.572 108.776 137.367 109.209C136.819 109.254 136.194 109.079 135.689 108.832C130.048 106.084 124.426 103.299 118.795 100.53C118.461 100.365 118.112 100.235 117.625 100.029C118.234 104.828 118.803 109.483 119.453 114.126C119.509 114.531 120.037 115.011 120.463 115.202C126.114 117.737 131.78 120.244 137.461 122.711C138.415 123.125 139.017 123.684 139.453 124.656C148.352 144.519 157.295 164.363 166.2 184.222C166.544 184.989 166.85 185.328 167.766 185.173C169.974 184.799 172.205 184.552 174.564 184.234C174.378 183.738 174.253 183.349 174.087 182.978C164.443 161.538 154.807 140.095 145.111 118.678C144.721 117.816 143.788 117.198 143.12 116.481C144.224 116.384 145.573 116.201 146.927 116.183C147.363 116.178 147.848 116.547 148.24 116.837C164.229 128.617 180.21 140.41 196.193 152.198C202.204 156.633 208.217 161.062 214.367 165.596C216.122 163.313 217.858 161.052 219.595 158.792C219.651 158.822 219.71 158.85 219.766 158.881C218.463 164.701 216.991 170.491 215.915 176.352C215.227 180.1 213.615 183.215 211.358 186.215C206.845 192.208 202.522 198.346 198.167 204.457C197.81 204.957 197.639 205.695 197.639 206.323C197.611 224.33 197.616 242.341 197.616 260.348C197.616 261.108 197.616 261.869 197.616 262.726H107.782C107.983 261.294 108.162 259.855 108.386 258.423C110.209 246.767 112.043 235.114 113.869 223.458C115.427 213.506 116.997 203.556 118.497 193.597C118.596 192.943 118.306 192.101 117.923 191.524C102.317 167.966 86.6778 144.43 71.0436 120.892C70.6688 120.328 70.3016 119.758 69.8477 119.064V119.059Z" fill="#A0A0A0"/>
<path d="M196.535 75.5888C203.797 81.0887 210.983 86.5326 218.282 92.0605C207.5 106.251 196.793 120.346 186.016 134.534C178.772 129.047 171.56 123.585 164.272 118.062C175.041 103.884 185.748 89.7924 196.535 75.5888Z" fill="#A0A0A0"/>
<path d="M222.548 99.1725C229.453 104.411 236.308 109.608 243.267 114.884C233.156 128.188 223.083 141.44 212.919 154.812C205.985 149.557 199.144 144.364 192.195 139.098C202.326 125.772 212.396 112.524 222.548 99.1725Z" fill="#A0A0A0"/>
<path d="M162.691 52.0075C157.03 59.4552 151.443 66.8062 145.772 74.264C137.206 70.0787 128.651 65.8959 119.894 61.6165C126.659 52.7246 133.361 43.9115 140.164 34.9688C147.674 40.6492 155.133 46.2915 162.689 52.0101L162.691 52.0075Z" fill="#A0A0A0"/>
<path d="M172.731 87.3616C166.098 84.1374 159.544 80.9488 152.851 77.6941C158.706 70.0151 164.522 62.3819 170.4 54.6723C177.252 59.8747 184.032 65.0238 190.925 70.2592C181.974 82.0117 173.075 93.7006 164.173 105.389C164.096 105.346 164.02 105.306 163.943 105.262C166.858 99.3276 169.77 93.3929 172.731 87.3616Z" fill="#A0A0A0"/>
<circle cx="155.107" cy="155.699" r="151" stroke="#A0A0A0" stroke-width="8"/>
<circle cx="155.108" cy="155.698" r="136.948" stroke="#A0A0A0" stroke-width="4" stroke-dasharray="8 8"/>
</svg>
