<svg width="311" height="311" viewBox="0 0 311 311" fill="none" xmlns="http://www.w3.org/2000/svg">
<path d="M155.677 40.317C92.9926 40.1912 42.2556 90.7638 41.1018 152.623C39.8885 217.688 92.1884 268.974 154.341 269.632C218.641 270.31 270.2 218.335 270.444 155.445C270.689 92.0016 219.106 40.1073 155.677 40.317ZM95.4821 100.127C96.3457 99.1903 97.2723 98.2987 98.0625 97.2987C99.0555 96.04 99.8142 96.2218 100.828 97.3337C102.458 99.1203 104.234 100.767 105.898 102.424C106.996 101.431 107.887 100.627 109.09 99.5399C106.702 97.3476 104.485 95.3162 102.234 93.2498C103.503 91.9176 104.531 90.8337 105.653 89.6554C105.055 89.1275 104.604 88.7254 103.996 88.1869C103.129 89.131 102.437 90.0086 101.604 90.7254C101.29 90.9946 100.433 91.1275 100.195 90.9142C98.0904 89.0121 96.066 87.0156 93.6814 84.7185C94.7513 83.8478 95.5031 83.215 96.2758 82.6066C97.5939 81.5682 97.1814 80.8409 95.4122 79.9563C94.7618 80.764 94.087 81.7185 93.2793 82.5437C93.0311 82.7989 92.2164 82.9213 92.0066 82.7255C89.3214 80.257 86.699 77.7221 83.9193 75.0683C86.7689 72.7781 89.15 70.7187 91.678 68.8551C108.15 56.7154 126.552 49.6735 146.985 47.9987C148.411 47.8834 148.82 48.191 148.817 49.6141C148.771 67.2082 148.771 84.8059 148.761 102.4C148.761 104.529 148.761 106.659 148.761 109.019H153.831C153.831 111.582 153.754 113.907 153.859 116.225C153.929 117.735 153.488 118.316 151.883 118.47C135.817 119.994 123.104 131.949 119.754 147.004C119.328 148.92 119.118 150.885 118.796 152.889H109.734V148.071H48.8744C48.7905 147.665 48.7066 147.49 48.7311 147.333C49.7345 141.018 50.3639 134.613 51.8324 128.41C55.0771 114.708 61.1365 102.215 69.6258 90.9841C72.8461 86.7219 76.5733 82.8409 80.1292 78.8339C80.4474 78.4738 81.4648 78.1696 81.6711 78.3619C84.3808 80.8724 87.0067 83.4807 90.122 86.5226C88.3493 87.8932 86.8843 89.0261 85.2794 90.2638C86.0801 90.9981 86.5172 91.4002 87.4193 92.2288C88.65 90.6345 89.7829 89.1659 90.7724 87.8862C93.2898 90.2743 95.5066 92.3757 98.003 94.7428C96.9261 95.6868 95.9401 96.5959 94.9087 97.442C93.7094 98.4245 93.8073 99.2287 95.4856 100.127H95.4821ZM202.536 148.078C202.536 149.406 202.494 150.445 202.547 151.48C202.606 152.571 202.25 153.064 201.061 153.032C198.557 152.962 196.05 152.966 193.547 153.032C192.393 153.064 192.072 152.602 191.988 151.515C191.547 145.777 189.75 140.462 186.649 135.627C180.523 126.078 171.907 120.288 160.61 118.665C159.331 118.48 158.792 118.022 158.873 116.659C158.985 114.742 158.978 112.809 158.855 110.896C158.757 109.382 159.212 108.854 160.792 108.91C163.68 109.015 163.481 109.326 163.481 106.204C163.481 87.5016 163.506 68.8026 163.45 50.1036C163.446 48.3799 163.922 47.8204 165.631 48.1211C171.184 49.1036 176.834 49.67 182.292 51.0162C197.484 54.7644 211.155 61.7118 223.305 71.5893C225.669 73.5123 227.903 75.5962 230.039 77.4703C228.036 79.5507 226.281 81.3759 224.452 83.2779C223.351 82.229 222.263 81.1905 221.186 80.1591C219.627 80.8794 219.508 81.736 220.805 82.736C221.589 83.3374 222.403 83.8933 223.141 84.4248C220.54 87.0856 218.407 89.2673 216.197 91.526C215.075 90.4596 213.952 89.3932 212.764 88.2604C212.257 88.8093 211.879 89.2219 211.403 89.7324C212.526 90.9386 213.575 92.0645 214.809 93.3897C212.914 95.2183 211.208 96.97 209.386 98.5854C208.274 99.5749 208.69 100.211 209.582 100.942C210.365 101.582 210.896 102.907 212.173 101.421C213.795 99.5329 215.578 97.7777 217.624 95.6099C218.917 97.0679 219.861 98.2532 220.952 99.2847C221.246 99.5644 221.98 99.3826 222.512 99.4105C222.473 98.8791 222.641 98.1343 222.354 97.8476C221.288 96.7847 220.071 95.8721 219.012 94.9875C221.585 92.4106 223.742 90.2463 226.162 87.8233C227.316 89.1764 228.508 90.5785 229.816 92.11C230.529 91.3407 230.935 90.9037 231.9 89.8652C230.263 88.6694 228.763 87.5751 227.459 86.6205C229.602 84.4912 231.4 82.7115 233.351 80.7745C251.011 99.6343 260.924 121.956 262.864 148.071H202.526L202.536 148.078ZM118.884 158.011C118.975 158.584 119.069 159.091 119.132 159.605C119.664 163.864 120.803 167.951 122.835 171.731C129.125 183.444 138.821 190.255 152.118 191.699C153.492 191.85 153.904 192.322 153.841 193.64C153.747 195.5 153.827 197.367 153.813 199.231C153.796 201.825 153.789 201.825 151.114 201.825C148.82 201.825 148.792 201.825 148.792 204.049C148.778 222.751 148.764 241.454 148.792 260.156C148.792 261.572 148.551 262.17 146.943 261.905C142.181 261.118 137.338 260.726 132.628 259.716C114.122 255.744 97.8947 247.244 83.8319 234.594C81.3285 232.342 81.3389 232.307 83.6361 229.971C85.9228 227.646 88.2339 225.342 90.5451 223.038C90.9017 222.681 91.3108 222.374 92.143 221.66C93.129 222.853 94.0555 223.972 94.9891 225.09C95.5101 225.716 96.1674 226.062 96.6639 225.213C96.8842 224.839 96.8002 223.951 96.5031 223.671C95.4087 222.643 94.1709 221.772 93.094 220.93C95.7898 218.195 97.9331 216.017 100.52 213.391C101.681 214.874 102.821 216.325 103.877 217.674C105.496 216.839 105.681 216.129 104.555 215.119C103.531 214.199 102.629 213.14 101.244 211.699C103.828 209.388 106.286 207.185 108.632 205.084C107.671 203.965 106.919 203.094 105.957 201.975C103.608 204.542 101.349 207.007 99.0485 209.521C97.496 208.038 96.3807 206.972 95.3178 205.958C93.7234 206.79 93.8143 207.601 94.9611 208.552C95.5415 209.031 96.094 209.58 96.531 210.185C96.7338 210.465 96.8212 211.147 96.6394 211.339C94.6429 213.416 92.58 215.43 90.5101 217.489C89.213 216.255 88.1255 215.223 86.8354 214C86.3424 214.507 85.9473 214.905 85.4508 215.416C86.6605 216.734 87.706 217.87 88.6325 218.881C85.2165 222.374 81.8984 225.765 78.3914 229.353C76.7061 227.458 74.9579 225.608 73.3391 223.65C59.0421 206.367 50.8289 186.581 48.8569 164.214C48.7241 162.714 49.2101 162.466 50.5492 162.469C65.4651 162.511 80.3809 162.5 95.2968 162.5C99.5485 162.5 103.804 162.445 108.055 162.5C109.318 162.518 109.901 162.186 109.758 160.833C109.66 159.931 109.741 159.011 109.741 158.011H118.891H118.884ZM215.798 212.213C214.533 213.297 213.536 214.188 212.498 215.028C211.152 216.108 211.512 216.881 213.417 217.863C214.438 216.489 215.543 214.996 216.617 213.556C219.179 216.098 221.351 218.251 223.753 220.636C222.795 221.493 221.823 222.416 220.791 223.265C219.498 224.332 219.686 225.125 221.644 226.052C222.69 224.716 223.83 223.258 225.242 221.451C227.547 223.895 229.421 226.041 231.477 228.003C232.686 229.157 232.732 229.86 231.49 231.052C225.508 236.804 219.113 242.01 212.029 246.345C197.799 255.052 182.404 260.296 165.761 261.765C163.492 261.964 163.481 261.922 163.481 259.607C163.481 241.373 163.488 223.143 163.478 204.909C163.478 201.531 163.834 201.783 160.562 201.846C159.24 201.871 158.82 201.35 158.866 200.087C158.939 198.108 159.002 196.119 158.873 194.15C158.764 192.5 159.013 191.448 160.995 191.483C161.908 191.5 162.834 191.217 163.74 191.004C178.967 187.378 190.187 174.797 191.935 159.312C192.068 158.133 192.523 157.878 193.575 157.903C195.904 157.959 198.239 158.008 200.564 157.885C202.082 157.805 202.624 158.252 202.568 159.826C202.473 162.462 202.568 162.493 205.18 162.493C223.704 162.5 242.225 162.493 260.749 162.493C261.364 162.493 261.98 162.56 262.808 162.609C260.868 187.018 251.847 208.15 235.858 226.405C233.309 223.835 230.858 221.367 227.963 218.447C229.165 217.636 230.428 216.79 231.844 215.835C230.935 214.993 230.494 214.58 229.798 213.937C228.938 214.916 228.221 215.835 227.382 216.626C227.113 216.877 226.302 217 226.095 216.804C224.008 214.818 221.991 212.755 219.819 210.577C220.707 209.765 221.421 209.164 222.078 208.51C223.403 207.196 223.368 207.045 221.295 205.835C220.833 206.43 220.274 207.098 219.763 207.804C218.872 209.035 218.089 209.094 217.029 207.881C215.239 205.832 213.302 203.916 211.337 201.85C210.638 202.475 210.25 202.902 209.785 203.224C208.295 204.259 208.389 205.175 209.722 206.356C211.68 208.091 213.494 209.982 215.791 212.213H215.798ZM124.583 152.906C124.59 138.63 138.069 124.078 153.649 123.868C153.701 124.075 153.806 124.291 153.806 124.512C153.813 132.665 153.824 140.819 153.796 148.969C153.792 150.343 150.883 153.004 149.509 153.004C141.705 153.008 133.901 153.008 126.097 153.004C125.59 153.004 125.08 152.941 124.58 152.906H124.583ZM153.722 186.182C139.006 186.455 124.863 172.154 124.667 158.022C125.174 157.994 125.684 157.941 126.198 157.938C134.055 157.927 141.915 157.92 149.771 157.92C151.729 157.92 153.806 159.997 153.81 161.973C153.824 169.539 153.827 177.105 153.824 184.675C153.824 185.182 153.754 185.689 153.719 186.185L153.722 186.182ZM186.659 153.008C185.75 153.008 185.121 153.008 184.491 153.008C178.142 153.008 171.792 152.959 165.446 153.036C163.575 153.057 161.873 153.106 160.946 151.06C160.771 150.679 160.177 150.504 159.929 150.134C159.516 149.515 158.939 148.815 158.936 148.144C158.873 140.864 158.901 133.585 158.925 126.305C158.932 123.837 159.09 123.721 161.541 124.232C170.991 126.207 178.026 131.525 182.844 139.802C185.156 143.773 186.414 148.095 186.659 153.004V153.008ZM186.467 157.917C187.068 170.675 169.691 188.29 159.1 185.969C159.058 185.86 158.985 185.752 158.985 185.643C158.953 177.665 158.915 169.686 158.939 161.71C158.939 161.238 159.39 160.714 159.747 160.312C160.205 159.794 160.729 159.305 161.313 158.945C161.995 158.525 162.764 157.997 163.509 157.969C166.593 157.857 169.68 157.917 172.768 157.917C177.299 157.917 181.83 157.917 186.47 157.917H186.467ZM156.673 158.644C154.687 158.633 153.163 157.057 153.208 155.064C153.25 153.203 154.841 151.651 156.694 151.658C158.642 151.668 160.194 153.287 160.152 155.259C160.114 157.151 158.569 158.654 156.673 158.64V158.644Z" fill="#A0A0A0"/>
<path fill-rule="evenodd" clip-rule="evenodd" d="M155.107 302.699C236.293 302.699 302.107 236.885 302.107 155.699C302.107 74.5134 236.293 8.69922 155.107 8.69922C73.9216 8.69922 8.10742 74.5134 8.10742 155.699C8.10742 236.885 73.9216 302.699 155.107 302.699ZM155.107 310.699C240.712 310.699 310.107 241.303 310.107 155.699C310.107 70.0951 240.712 0.699219 155.107 0.699219C69.5033 0.699219 0.107422 70.0951 0.107422 155.699C0.107422 241.303 69.5033 310.699 155.107 310.699Z" fill="#A0A0A0"/>
<path fill-rule="evenodd" clip-rule="evenodd" d="M294.003 159.606C294.039 158.308 294.057 157.005 294.057 155.698C294.057 154.391 294.039 153.089 294.003 151.791L290.004 151.901C290.039 153.162 290.057 154.428 290.057 155.698C290.057 156.968 290.039 158.234 290.004 159.495L294.003 159.606ZM293.572 167.387L289.586 167.055C289.375 169.583 289.095 172.091 288.747 174.578L292.708 175.132C293.067 172.572 293.355 169.99 293.572 167.387ZM291.412 182.816L287.488 182.039C286.996 184.524 286.437 186.984 285.811 189.417L289.685 190.414C290.329 187.908 290.906 185.374 291.412 182.816ZM287.53 197.907L283.718 196.693C282.95 199.105 282.116 201.488 281.218 203.839L284.955 205.266C285.88 202.845 286.739 200.391 287.53 197.907ZM281.969 212.466L278.319 210.83C277.285 213.138 276.188 215.411 275.03 217.648L278.582 219.486C279.774 217.183 280.904 214.842 281.969 212.466ZM274.806 226.305L271.362 224.269C270.077 226.444 268.731 228.58 267.329 230.675L270.653 232.9C272.097 230.743 273.482 228.544 274.806 226.305ZM266.137 239.253L262.943 236.846C261.422 238.863 259.847 240.836 258.218 242.763L261.273 245.345C262.95 243.361 264.572 241.33 266.137 239.253ZM256.077 251.155L253.171 248.407C251.436 250.241 249.651 252.026 247.817 253.761L250.565 256.667C252.453 254.881 254.291 253.043 256.077 251.155ZM244.755 261.863L242.173 258.808C240.246 260.437 238.273 262.012 236.256 263.533L238.664 266.727C240.74 265.162 242.771 263.54 244.755 261.863ZM232.31 271.243L230.085 267.919C227.99 269.321 225.854 270.666 223.679 271.952L225.715 275.396C227.954 274.072 230.154 272.687 232.31 271.243ZM218.897 279.172L217.058 275.62C214.821 276.777 212.548 277.874 210.241 278.909L211.876 282.559C214.253 281.494 216.593 280.364 218.897 279.172ZM204.676 285.545L203.249 281.808C200.898 282.706 198.515 283.54 196.104 284.308L197.317 288.12C199.801 287.328 202.255 286.469 204.676 285.545ZM189.824 290.275L188.828 286.401C186.394 287.027 183.934 287.586 181.45 288.078L182.226 292.002C184.785 291.496 187.318 290.919 189.824 290.275ZM174.542 293.298L173.988 289.337C171.502 289.685 168.993 289.965 166.465 290.176L166.797 294.162C169.4 293.945 171.982 293.656 174.542 293.298ZM159.016 294.593L158.906 290.594C157.644 290.629 156.378 290.646 155.108 290.646C153.838 290.646 152.573 290.629 151.311 290.594L151.201 294.593C152.499 294.628 153.802 294.646 155.108 294.646C156.415 294.646 157.718 294.628 159.016 294.593ZM143.419 294.162L143.752 290.176C141.223 289.965 138.715 289.685 136.229 289.337L135.675 293.298C138.235 293.656 140.817 293.945 143.419 294.162ZM127.991 292.002L128.767 288.078C126.283 287.586 123.823 287.027 121.389 286.401L120.393 290.275C122.899 290.919 125.432 291.496 127.991 292.002ZM112.899 288.12L114.113 284.308C111.701 283.54 109.319 282.706 106.968 281.808L105.541 285.545C107.962 286.469 110.415 287.328 112.899 288.12ZM98.3403 282.559L99.9762 278.909C97.6689 277.874 95.3958 276.777 93.1591 275.62L91.3202 279.172C93.6234 280.364 95.9642 281.494 98.3403 282.559ZM84.5021 275.396L86.5376 271.952C84.3625 270.666 82.2265 269.321 80.1319 267.919L77.9066 271.243C80.0632 272.687 82.2624 274.072 84.5021 275.396ZM71.5532 266.727L73.9609 263.533C71.9439 262.012 69.9708 260.437 68.044 258.808L65.4618 261.863C67.4454 263.54 69.4767 265.162 71.5532 266.727ZM59.6514 256.667L62.3999 253.761C60.5659 252.026 58.7804 250.241 57.0459 248.407L54.1397 251.155C55.9254 253.043 57.7633 254.881 59.6514 256.667ZM48.9438 245.345L51.9986 242.763C50.37 240.836 48.7943 238.863 47.274 236.846L44.0798 239.253C45.645 241.33 47.2671 243.361 48.9438 245.345ZM39.5638 232.9L42.8877 230.675C41.4854 228.58 40.1402 226.444 38.8544 224.269L35.4111 226.305C36.735 228.544 38.1201 230.743 39.5638 232.9ZM31.6348 219.486L35.1871 217.648C34.0293 215.411 32.9322 213.138 31.8981 210.83L28.2479 212.466C29.3129 214.842 30.4426 217.183 31.6348 219.486ZM25.262 205.266L28.9987 203.839C28.1007 201.488 27.2666 199.105 26.4985 196.693L22.6871 197.907C23.4782 200.391 24.3372 202.845 25.262 205.266ZM20.5321 190.414L24.406 189.417C23.7801 186.984 23.2204 184.524 22.7289 182.039L18.8049 182.816C19.3111 185.374 19.8875 187.908 20.5321 190.414ZM17.5084 175.132L21.4698 174.578C21.1219 172.091 20.8416 169.583 20.6311 167.055L16.6449 167.387C16.8616 169.99 17.1502 172.572 17.5084 175.132ZM16.214 159.606C16.1782 158.308 16.1602 157.005 16.1602 155.698C16.1602 154.391 16.1782 153.089 16.214 151.791L20.2125 151.901C20.1777 153.162 20.1602 154.428 20.1602 155.698C20.1602 156.968 20.1777 158.234 20.2125 159.495L16.214 159.606ZM16.6449 144.009L20.6311 144.341C20.8416 141.813 21.1219 139.305 21.4698 136.819L17.5084 136.265C17.1502 138.824 16.8616 141.407 16.6449 144.009ZM18.8049 128.581L22.7289 129.357C23.2204 126.872 23.7801 124.412 24.406 121.979L20.5321 120.983C19.8875 123.489 19.3111 126.022 18.8049 128.581ZM22.6871 113.489L26.4985 114.703C27.2666 112.291 28.1007 109.909 28.9987 107.558L25.262 106.131C24.3372 108.552 23.4782 111.005 22.6871 113.489ZM28.2479 98.9302L31.8981 100.566C32.9322 98.2587 34.0293 95.9856 35.1871 93.7489L31.6348 91.9101C30.4426 94.2132 29.3129 96.554 28.2479 98.9302ZM35.4111 85.0919L38.8544 87.1274C40.1402 84.9523 41.4854 82.8163 42.8877 80.7217L39.5638 78.4964C38.12 80.653 36.735 82.8523 35.4111 85.0919ZM44.0797 72.1431L47.274 74.5507C48.7943 72.5337 50.3699 70.5606 51.9986 68.6338L48.9438 66.0516C47.2671 68.0352 45.645 70.0665 44.0797 72.1431ZM54.1397 60.2412L57.0459 62.9897C58.7804 61.1557 60.5658 59.3703 62.3999 57.6358L59.6514 54.7296C57.7633 56.5152 55.9253 58.3532 54.1397 60.2412ZM65.4618 49.5336L68.044 52.5885C69.9708 50.9598 71.9439 49.3842 73.9609 47.8638L71.5532 44.6696C69.4767 46.2348 67.4454 47.8569 65.4618 49.5336ZM77.9066 40.1537L80.1319 43.4776C82.2265 42.0753 84.3624 40.7301 86.5376 39.4443L84.502 36.0009C82.2624 37.3249 80.0632 38.7099 77.9066 40.1537ZM91.3202 32.2247L93.1591 35.7769C95.3957 34.6191 97.6689 33.5221 99.9762 32.488L98.3403 28.8378C95.9642 29.9027 93.6234 31.0324 91.3202 32.2247ZM105.541 25.8518L106.968 29.5885C109.319 28.6905 111.701 27.8565 114.113 27.0884L112.899 23.277C110.415 24.068 107.962 24.927 105.541 25.8518ZM120.393 21.122L121.389 24.9959C123.823 24.37 126.283 23.8102 128.767 23.3187L127.991 19.3947C125.432 19.9009 122.899 20.4774 120.393 21.122ZM135.675 18.0983L136.229 22.0597C138.715 21.7117 141.223 21.4315 143.752 21.2209L143.419 17.2347C140.817 17.4515 138.235 17.74 135.675 18.0983ZM151.201 16.8039L151.311 20.8024C152.573 20.7675 153.838 20.75 155.108 20.75C156.378 20.75 157.644 20.7675 158.906 20.8024L159.016 16.8039C157.718 16.768 156.415 16.75 155.108 16.75C153.802 16.75 152.499 16.768 151.201 16.8039ZM166.797 17.2347L166.465 21.2209C168.993 21.4315 171.502 21.7117 173.988 22.0596L174.542 18.0983C171.982 17.74 169.4 17.4515 166.797 17.2347ZM182.226 19.3947L181.45 23.3187C183.934 23.8102 186.394 24.37 188.828 24.9959L189.824 21.122C187.318 20.4774 184.785 19.9009 182.226 19.3947ZM197.317 23.277L196.104 27.0884C198.515 27.8565 200.898 28.6905 203.249 29.5885L204.676 25.8518C202.255 24.927 199.801 24.068 197.317 23.277ZM211.876 28.8378L210.241 32.488C212.548 33.5221 214.821 34.6191 217.058 35.7769L218.897 32.2247C216.593 31.0324 214.253 29.9027 211.876 28.8378ZM225.715 36.0009L223.679 39.4443C225.854 40.7301 227.99 42.0753 230.085 43.4776L232.31 40.1537C230.154 38.7099 227.954 37.3249 225.715 36.0009ZM238.664 44.6696L236.256 47.8638C238.273 49.3842 240.246 50.9598 242.173 52.5885L244.755 49.5336C242.771 47.8569 240.74 46.2348 238.664 44.6696ZM250.565 54.7296L247.817 57.6358C249.651 59.3703 251.436 61.1557 253.171 62.9897L256.077 60.2412C254.291 58.3532 252.453 56.5152 250.565 54.7296ZM261.273 66.0516L258.218 68.6338C259.847 70.5606 261.422 72.5337 262.943 74.5507L266.137 72.1431C264.572 70.0665 262.95 68.0352 261.273 66.0516ZM270.653 78.4964L267.329 80.7217C268.731 82.8163 270.077 84.9523 271.362 87.1274L274.806 85.0919C273.482 82.8522 272.097 80.653 270.653 78.4964ZM278.582 91.9101L275.03 93.7489C276.188 95.9856 277.285 98.2587 278.319 100.566L281.969 98.9302C280.904 96.554 279.774 94.2132 278.582 91.9101ZM284.955 106.131L281.218 107.558C282.116 109.909 282.95 112.291 283.718 114.703L287.53 113.489C286.739 111.005 285.88 108.552 284.955 106.131ZM289.685 120.983L285.811 121.979C286.437 124.412 286.996 126.872 287.488 129.357L291.412 128.581C290.906 126.022 290.329 123.489 289.685 120.983ZM292.708 136.265L288.747 136.819C289.095 139.305 289.375 141.813 289.586 144.341L293.572 144.009C293.355 141.407 293.067 138.824 292.708 136.265Z" fill="#A0A0A0"/>
</svg>
