<svg width="311" height="311" viewBox="0 0 311 311" fill="none" xmlns="http://www.w3.org/2000/svg">
<path d="M175.519 243.181C174.84 242.918 174.326 242.21 174.02 241.373H139.777C139.493 242.217 139.005 242.931 138.357 243.193C135.712 244.255 137.019 246.448 137.029 248.116C137.032 248.692 138.597 249.753 139.459 249.762C151.054 249.88 162.651 249.891 174.248 249.779C175.206 249.77 176.898 248.74 176.957 248.07C177.101 246.408 178.156 244.202 175.521 243.183L175.519 243.181Z" fill="#A0A0A0"/>
<path d="M172.819 132.257C171.694 130.945 171.104 129.526 170.801 128.006H143.025C142.579 130.023 141.654 131.88 140.164 133.64C138.827 135.223 137.915 136.981 137.471 138.945H176.156C175.612 136.532 174.578 134.308 172.819 132.257Z" fill="#A0A0A0"/>
<path d="M137.201 178.116C137.205 196.588 137.205 215.06 137.199 233.531C137.199 235.113 137.106 236.481 139.034 237.393C139.677 237.697 139.998 238.482 140.053 239.385H173.719C173.772 238.509 174.094 237.752 174.745 237.463C176.733 236.583 176.574 235.189 176.574 233.629C176.574 218.139 176.574 202.65 176.574 187.16C176.574 172.912 176.43 159.612 176.657 145.368C176.676 144.166 176.629 143.005 176.496 141.883H137.184C137.167 142.181 137.15 142.479 137.152 142.786C137.237 154.879 137.199 166.024 137.201 178.118V178.116ZM166.318 148.559H172.009V231.083H166.318V148.559Z" fill="#A0A0A0"/>
<path d="M143.335 124.525H170.509C170.509 124.246 170.509 123.965 170.512 123.681C170.604 117.498 170.647 111.219 169.701 105.136C168.333 96.3472 164.512 72.8664 160.682 64.8758C159.855 63.1475 159.492 60.7572 156.986 60.6889C154.417 60.6206 154.07 63.066 153.228 64.762C146.529 78.277 141.578 107.635 143.236 123.07C143.289 123.565 143.321 124.049 143.335 124.525ZM166.392 106.474C166.508 105.886 167.369 105.95 167.396 106.548L168.689 122H163.319L166.392 106.474Z" fill="#A0A0A0"/>
<path d="M225.519 243.181C224.84 242.918 224.326 242.21 224.02 241.373H189.777C189.493 242.217 189.005 242.931 188.357 243.193C185.712 244.255 187.019 246.448 187.029 248.116C187.032 248.692 188.597 249.753 189.459 249.762C201.054 249.88 212.651 249.891 224.248 249.779C225.206 249.77 226.898 248.74 226.957 248.07C227.101 246.408 228.156 244.202 225.521 243.183L225.519 243.181Z" fill="#A0A0A0"/>
<path d="M222.819 132.257C221.694 130.945 221.104 129.526 220.801 128.006H193.025C192.579 130.023 191.654 131.88 190.164 133.64C188.827 135.223 187.915 136.981 187.471 138.945H226.156C225.612 136.532 224.578 134.308 222.819 132.257Z" fill="#A0A0A0"/>
<path d="M187.201 178.116C187.205 196.588 187.205 215.06 187.199 233.531C187.199 235.113 187.106 236.481 189.034 237.393C189.677 237.697 189.998 238.482 190.053 239.385H223.719C223.772 238.509 224.094 237.752 224.745 237.463C226.733 236.583 226.574 235.189 226.574 233.629C226.574 218.139 226.574 202.65 226.574 187.16C226.574 172.912 226.43 159.612 226.657 145.368C226.676 144.166 226.629 143.005 226.496 141.883H187.184C187.167 142.181 187.15 142.479 187.152 142.786C187.237 154.879 187.199 166.024 187.201 178.118V178.116ZM216.318 148.559H222.009V231.083H216.318V148.559Z" fill="#A0A0A0"/>
<path d="M193.335 124.525H220.509C220.509 124.246 220.509 123.965 220.512 123.681C220.604 117.498 220.647 111.219 219.701 105.136C218.333 96.3472 214.512 72.8664 210.682 64.8758C209.855 63.1475 209.492 60.7572 206.986 60.6889C204.417 60.6206 204.07 63.066 203.228 64.762C196.529 78.277 191.578 107.635 193.236 123.07C193.289 123.565 193.321 124.049 193.335 124.525ZM216.392 106.474C216.508 105.886 217.369 105.95 217.396 106.548L218.689 122H213.319L216.392 106.474Z" fill="#A0A0A0"/>
<path d="M125.519 243.181C124.84 242.918 124.326 242.21 124.02 241.373H89.7775C89.4929 242.217 89.0053 242.931 88.3565 243.193C85.712 244.255 87.0191 246.448 87.0286 248.116C87.0324 248.692 88.5975 249.753 89.4588 249.762C101.054 249.88 112.651 249.891 124.248 249.779C125.206 249.77 126.898 248.74 126.957 248.07C127.101 246.408 128.156 244.202 125.521 243.183L125.519 243.181Z" fill="#A0A0A0"/>
<path d="M122.819 132.257C121.694 130.945 121.104 129.526 120.801 128.006H93.0253C92.5795 130.023 91.6537 131.88 90.1645 133.64C88.827 135.223 87.9145 136.981 87.4706 138.945H126.156C125.612 136.532 124.578 134.308 122.819 132.257Z" fill="#A0A0A0"/>
<path d="M87.2012 178.116C87.205 196.588 87.205 215.06 87.1993 233.531C87.1993 235.113 87.1063 236.481 89.0338 237.393C89.6769 237.697 89.9975 238.482 90.0526 239.385H123.719C123.772 238.509 124.094 237.752 124.745 237.463C126.733 236.583 126.574 235.189 126.574 233.629C126.574 218.139 126.574 202.65 126.574 187.16C126.574 172.912 126.43 159.612 126.657 145.368C126.676 144.166 126.629 143.005 126.496 141.883H87.1841C87.1671 142.181 87.15 142.479 87.1519 142.786C87.2372 154.879 87.1993 166.024 87.2012 178.118V178.116ZM116.318 148.559H122.009V231.083H116.318V148.559Z" fill="#A0A0A0"/>
<path d="M93.3345 124.525H120.509C120.509 124.246 120.509 123.965 120.512 123.681C120.604 117.498 120.647 111.219 119.701 105.136C118.333 96.3472 114.512 72.8664 110.682 64.8758C109.855 63.1475 109.492 60.7572 106.986 60.6889C104.417 60.6206 104.07 63.066 103.228 64.762C96.5293 78.277 91.5778 107.635 93.2359 123.07C93.289 123.565 93.3213 124.049 93.3345 124.525ZM116.392 106.474C116.508 105.886 117.369 105.95 117.396 106.548L118.689 122H113.319L116.392 106.474Z" fill="#A0A0A0"/>
<path fill-rule="evenodd" clip-rule="evenodd" d="M155.107 302.699C236.293 302.699 302.107 236.885 302.107 155.699C302.107 74.5134 236.293 8.69922 155.107 8.69922C73.9216 8.69922 8.10742 74.5134 8.10742 155.699C8.10742 236.885 73.9216 302.699 155.107 302.699ZM155.107 310.699C240.712 310.699 310.107 241.303 310.107 155.699C310.107 70.0951 240.712 0.699219 155.107 0.699219C69.5033 0.699219 0.107422 70.0951 0.107422 155.699C0.107422 241.303 69.5033 310.699 155.107 310.699Z" fill="#A0A0A0"/>
<path fill-rule="evenodd" clip-rule="evenodd" d="M294.003 159.606C294.039 158.308 294.057 157.005 294.057 155.698C294.057 154.391 294.039 153.089 294.003 151.791L290.004 151.901C290.039 153.162 290.057 154.428 290.057 155.698C290.057 156.968 290.039 158.234 290.004 159.495L294.003 159.606ZM293.572 167.387L289.586 167.055C289.375 169.583 289.095 172.091 288.747 174.578L292.708 175.132C293.067 172.572 293.355 169.99 293.572 167.387ZM291.412 182.816L287.488 182.039C286.996 184.524 286.437 186.984 285.811 189.417L289.685 190.414C290.329 187.908 290.906 185.374 291.412 182.816ZM287.53 197.907L283.718 196.693C282.95 199.105 282.116 201.488 281.218 203.839L284.955 205.266C285.88 202.845 286.739 200.391 287.53 197.907ZM281.969 212.466L278.319 210.83C277.285 213.138 276.188 215.411 275.03 217.648L278.582 219.486C279.774 217.183 280.904 214.842 281.969 212.466ZM274.806 226.305L271.362 224.269C270.077 226.444 268.731 228.58 267.329 230.675L270.653 232.9C272.097 230.743 273.482 228.544 274.806 226.305ZM266.137 239.253L262.943 236.846C261.422 238.863 259.847 240.836 258.218 242.763L261.273 245.345C262.95 243.361 264.572 241.33 266.137 239.253ZM256.077 251.155L253.171 248.407C251.436 250.241 249.651 252.026 247.817 253.761L250.565 256.667C252.453 254.881 254.291 253.043 256.077 251.155ZM244.755 261.863L242.173 258.808C240.246 260.437 238.273 262.012 236.256 263.533L238.664 266.727C240.74 265.162 242.771 263.54 244.755 261.863ZM232.31 271.243L230.085 267.919C227.99 269.321 225.854 270.666 223.679 271.952L225.715 275.396C227.954 274.072 230.154 272.687 232.31 271.243ZM218.897 279.172L217.058 275.62C214.821 276.777 212.548 277.874 210.241 278.909L211.876 282.559C214.253 281.494 216.593 280.364 218.897 279.172ZM204.676 285.545L203.249 281.808C200.898 282.706 198.515 283.54 196.104 284.308L197.317 288.12C199.801 287.328 202.255 286.469 204.676 285.545ZM189.824 290.275L188.828 286.401C186.394 287.027 183.934 287.586 181.45 288.078L182.226 292.002C184.785 291.496 187.318 290.919 189.824 290.275ZM174.542 293.298L173.988 289.337C171.502 289.685 168.993 289.965 166.465 290.176L166.797 294.162C169.4 293.945 171.982 293.656 174.542 293.298ZM159.016 294.593L158.906 290.594C157.644 290.629 156.378 290.646 155.108 290.646C153.838 290.646 152.573 290.629 151.311 290.594L151.201 294.593C152.499 294.628 153.802 294.646 155.108 294.646C156.415 294.646 157.718 294.628 159.016 294.593ZM143.419 294.162L143.752 290.176C141.223 289.965 138.715 289.685 136.229 289.337L135.675 293.298C138.235 293.656 140.817 293.945 143.419 294.162ZM127.991 292.002L128.767 288.078C126.283 287.586 123.823 287.027 121.389 286.401L120.393 290.275C122.899 290.919 125.432 291.496 127.991 292.002ZM112.899 288.12L114.113 284.308C111.701 283.54 109.319 282.706 106.968 281.808L105.541 285.545C107.962 286.469 110.415 287.328 112.899 288.12ZM98.3403 282.559L99.9762 278.909C97.6689 277.874 95.3958 276.777 93.1591 275.62L91.3202 279.172C93.6234 280.364 95.9642 281.494 98.3403 282.559ZM84.5021 275.396L86.5376 271.952C84.3625 270.666 82.2265 269.321 80.1319 267.919L77.9066 271.243C80.0632 272.687 82.2624 274.072 84.5021 275.396ZM71.5532 266.727L73.9609 263.533C71.9439 262.012 69.9708 260.437 68.044 258.808L65.4618 261.863C67.4454 263.54 69.4767 265.162 71.5532 266.727ZM59.6514 256.667L62.3999 253.761C60.5659 252.026 58.7804 250.241 57.0459 248.407L54.1397 251.155C55.9254 253.043 57.7633 254.881 59.6514 256.667ZM48.9438 245.345L51.9986 242.763C50.37 240.836 48.7943 238.863 47.274 236.846L44.0798 239.253C45.645 241.33 47.2671 243.361 48.9438 245.345ZM39.5638 232.9L42.8877 230.675C41.4854 228.58 40.1402 226.444 38.8544 224.269L35.4111 226.305C36.735 228.544 38.1201 230.743 39.5638 232.9ZM31.6348 219.486L35.1871 217.648C34.0293 215.411 32.9322 213.138 31.8981 210.83L28.2479 212.466C29.3129 214.842 30.4426 217.183 31.6348 219.486ZM25.262 205.266L28.9987 203.839C28.1007 201.488 27.2666 199.105 26.4985 196.693L22.6871 197.907C23.4782 200.391 24.3372 202.845 25.262 205.266ZM20.5321 190.414L24.406 189.417C23.7801 186.984 23.2204 184.524 22.7289 182.039L18.8049 182.816C19.3111 185.374 19.8875 187.908 20.5321 190.414ZM17.5084 175.132L21.4698 174.578C21.1219 172.091 20.8416 169.583 20.6311 167.055L16.6449 167.387C16.8616 169.99 17.1502 172.572 17.5084 175.132ZM16.214 159.606C16.1782 158.308 16.1602 157.005 16.1602 155.698C16.1602 154.391 16.1782 153.089 16.214 151.791L20.2125 151.901C20.1777 153.162 20.1602 154.428 20.1602 155.698C20.1602 156.968 20.1777 158.234 20.2125 159.495L16.214 159.606ZM16.6449 144.009L20.6311 144.341C20.8416 141.813 21.1219 139.305 21.4698 136.819L17.5084 136.265C17.1502 138.824 16.8616 141.407 16.6449 144.009ZM18.8049 128.581L22.7289 129.357C23.2204 126.872 23.7801 124.412 24.406 121.979L20.5321 120.983C19.8875 123.489 19.3111 126.022 18.8049 128.581ZM22.6871 113.489L26.4985 114.703C27.2666 112.291 28.1007 109.909 28.9987 107.558L25.262 106.131C24.3372 108.552 23.4782 111.005 22.6871 113.489ZM28.2479 98.9302L31.8981 100.566C32.9322 98.2587 34.0293 95.9856 35.1871 93.7489L31.6348 91.9101C30.4426 94.2132 29.3129 96.554 28.2479 98.9302ZM35.4111 85.0919L38.8544 87.1274C40.1402 84.9523 41.4854 82.8163 42.8877 80.7217L39.5638 78.4964C38.12 80.653 36.735 82.8523 35.4111 85.0919ZM44.0797 72.1431L47.274 74.5507C48.7943 72.5337 50.3699 70.5606 51.9986 68.6338L48.9438 66.0516C47.2671 68.0352 45.645 70.0665 44.0797 72.1431ZM54.1397 60.2412L57.0459 62.9897C58.7804 61.1557 60.5658 59.3703 62.3999 57.6358L59.6514 54.7296C57.7633 56.5152 55.9253 58.3532 54.1397 60.2412ZM65.4618 49.5336L68.044 52.5885C69.9708 50.9598 71.9439 49.3842 73.9609 47.8638L71.5532 44.6696C69.4767 46.2348 67.4454 47.8569 65.4618 49.5336ZM77.9066 40.1537L80.1319 43.4776C82.2265 42.0753 84.3624 40.7301 86.5376 39.4443L84.502 36.0009C82.2624 37.3249 80.0632 38.7099 77.9066 40.1537ZM91.3202 32.2247L93.1591 35.7769C95.3957 34.6191 97.6689 33.5221 99.9762 32.488L98.3403 28.8378C95.9642 29.9027 93.6234 31.0324 91.3202 32.2247ZM105.541 25.8518L106.968 29.5885C109.319 28.6905 111.701 27.8565 114.113 27.0884L112.899 23.277C110.415 24.068 107.962 24.927 105.541 25.8518ZM120.393 21.122L121.389 24.9959C123.823 24.37 126.283 23.8102 128.767 23.3187L127.991 19.3947C125.432 19.9009 122.899 20.4774 120.393 21.122ZM135.675 18.0983L136.229 22.0597C138.715 21.7117 141.223 21.4315 143.752 21.2209L143.419 17.2347C140.817 17.4515 138.235 17.74 135.675 18.0983ZM151.201 16.8039L151.311 20.8024C152.573 20.7675 153.838 20.75 155.108 20.75C156.378 20.75 157.644 20.7675 158.906 20.8024L159.016 16.8039C157.718 16.768 156.415 16.75 155.108 16.75C153.802 16.75 152.499 16.768 151.201 16.8039ZM166.797 17.2347L166.465 21.2209C168.993 21.4315 171.502 21.7117 173.988 22.0596L174.542 18.0983C171.982 17.74 169.4 17.4515 166.797 17.2347ZM182.226 19.3947L181.45 23.3187C183.934 23.8102 186.394 24.37 188.828 24.9959L189.824 21.122C187.318 20.4774 184.785 19.9009 182.226 19.3947ZM197.317 23.277L196.104 27.0884C198.515 27.8565 200.898 28.6905 203.249 29.5885L204.676 25.8518C202.255 24.927 199.801 24.068 197.317 23.277ZM211.876 28.8378L210.241 32.488C212.548 33.5221 214.821 34.6191 217.058 35.7769L218.897 32.2247C216.593 31.0324 214.253 29.9027 211.876 28.8378ZM225.715 36.0009L223.679 39.4443C225.854 40.7301 227.99 42.0753 230.085 43.4776L232.31 40.1537C230.154 38.7099 227.954 37.3249 225.715 36.0009ZM238.664 44.6696L236.256 47.8638C238.273 49.3842 240.246 50.9598 242.173 52.5885L244.755 49.5336C242.771 47.8569 240.74 46.2348 238.664 44.6696ZM250.565 54.7296L247.817 57.6358C249.651 59.3703 251.436 61.1557 253.171 62.9897L256.077 60.2412C254.291 58.3532 252.453 56.5152 250.565 54.7296ZM261.273 66.0516L258.218 68.6338C259.847 70.5606 261.422 72.5337 262.943 74.5507L266.137 72.1431C264.572 70.0665 262.95 68.0352 261.273 66.0516ZM270.653 78.4964L267.329 80.7217C268.731 82.8163 270.077 84.9523 271.362 87.1274L274.806 85.0919C273.482 82.8522 272.097 80.653 270.653 78.4964ZM278.582 91.9101L275.03 93.7489C276.188 95.9856 277.285 98.2587 278.319 100.566L281.969 98.9302C280.904 96.554 279.774 94.2132 278.582 91.9101ZM284.955 106.131L281.218 107.558C282.116 109.909 282.95 112.291 283.718 114.703L287.53 113.489C286.739 111.005 285.88 108.552 284.955 106.131ZM289.685 120.983L285.811 121.979C286.437 124.412 286.996 126.872 287.488 129.357L291.412 128.581C290.906 126.022 290.329 123.489 289.685 120.983ZM292.708 136.265L288.747 136.819C289.095 139.305 289.375 141.813 289.586 144.341L293.572 144.009C293.355 141.407 293.067 138.824 292.708 136.265Z" fill="#A0A0A0"/>
</svg>
