<svg width="311" height="311" viewBox="0 0 311 311" fill="none" xmlns="http://www.w3.org/2000/svg">
<path fill-rule="evenodd" clip-rule="evenodd" d="M155.223 302.896C236.409 302.896 302.223 237.082 302.223 155.896C302.223 74.7106 236.409 8.89648 155.223 8.89648C74.0368 8.89648 8.22266 74.7106 8.22266 155.896C8.22266 237.082 74.0368 302.896 155.223 302.896ZM155.223 310.896C240.827 310.896 310.223 241.501 310.223 155.896C310.223 70.2924 240.827 0.896484 155.223 0.896484C69.6185 0.896484 0.222656 70.2924 0.222656 155.896C0.222656 241.501 69.6185 310.896 155.223 310.896Z" fill="#A0A0A0"/>
<path fill-rule="evenodd" clip-rule="evenodd" d="M294.118 159.805C294.154 158.507 294.172 157.204 294.172 155.897C294.172 154.591 294.154 153.288 294.118 151.99L290.12 152.1C290.154 153.362 290.172 154.627 290.172 155.897C290.172 157.167 290.154 158.433 290.12 159.695L294.118 159.805ZM293.687 167.586L289.701 167.254C289.49 169.783 289.21 172.291 288.862 174.777L292.824 175.331C293.182 172.771 293.47 170.189 293.687 167.586ZM291.527 183.015L287.603 182.239C287.112 184.723 286.552 187.183 285.926 189.617L289.8 190.613C290.445 188.107 291.021 185.574 291.527 183.015ZM287.645 198.107L283.833 196.893C283.065 199.304 282.231 201.687 281.333 204.038L285.07 205.465C285.995 203.044 286.854 200.59 287.645 198.107ZM282.084 212.666L278.434 211.03C277.4 213.337 276.303 215.61 275.145 217.847L278.697 219.686C279.889 217.382 281.019 215.042 282.084 212.666ZM274.921 226.504L271.478 224.468C270.192 226.643 268.847 228.779 267.444 230.874L270.768 233.099C272.212 230.943 273.597 228.743 274.921 226.504ZM266.252 239.453L263.058 237.045C261.538 239.062 259.962 241.035 258.333 242.962L261.388 245.544C263.065 243.56 264.687 241.529 266.252 239.453ZM256.192 251.354L253.286 248.606C251.552 250.44 249.766 252.225 247.932 253.96L250.681 256.866C252.569 255.081 254.407 253.243 256.192 251.354ZM244.87 262.062L242.288 259.007C240.361 260.636 238.388 262.212 236.371 263.732L238.779 266.926C240.855 265.361 242.887 263.739 244.87 262.062ZM232.425 271.442L230.2 268.118C228.106 269.52 225.97 270.866 223.794 272.151L225.83 275.595C228.07 274.271 230.269 272.886 232.425 271.442ZM219.012 279.371L217.173 275.819C214.936 276.977 212.663 278.074 210.356 279.108L211.992 282.758C214.368 281.693 216.709 280.563 219.012 279.371ZM204.791 285.744L203.364 282.007C201.013 282.905 198.631 283.739 196.219 284.507L197.433 288.319C199.917 287.528 202.37 286.669 204.791 285.744ZM189.939 290.474L188.943 286.6C186.509 287.226 184.049 287.785 181.565 288.277L182.341 292.201C184.9 291.695 187.433 291.118 189.939 290.474ZM174.657 293.497L174.103 289.536C171.617 289.884 169.109 290.164 166.581 290.375L166.913 294.361C169.515 294.144 172.097 293.856 174.657 293.497ZM159.131 294.792L159.021 290.793C157.759 290.828 156.494 290.846 155.224 290.846C153.954 290.846 152.688 290.828 151.427 290.793L151.316 294.792C152.614 294.828 153.917 294.846 155.224 294.846C156.53 294.846 157.833 294.828 159.131 294.792ZM143.535 294.361L143.867 290.375C141.339 290.164 138.83 289.884 136.344 289.536L135.79 293.497C138.35 293.856 140.932 294.144 143.535 294.361ZM128.106 292.201L128.882 288.277C126.398 287.785 123.938 287.226 121.504 286.6L120.508 290.474C123.014 291.118 125.548 291.695 128.106 292.201ZM113.015 288.319L114.228 284.507C111.817 283.739 109.434 282.905 107.083 282.007L105.656 285.744C108.077 286.669 110.531 287.528 113.015 288.319ZM98.4556 282.758L100.091 279.108C97.7841 278.074 95.511 276.977 93.2743 275.819L91.4354 279.371C93.7386 280.563 96.0794 281.693 98.4556 282.758ZM84.6173 275.595L86.6528 272.151C84.4777 270.866 82.3417 269.52 80.2471 268.118L78.0218 271.442C80.1784 272.886 82.3776 274.271 84.6173 275.595ZM71.6685 266.926L74.0761 263.732C72.0591 262.212 70.086 260.636 68.1592 259.007L65.577 262.062C67.5606 263.739 69.5919 265.361 71.6685 266.926ZM59.7666 256.866L62.5151 253.96C60.6811 252.225 58.8957 250.44 57.1612 248.606L54.255 251.354C56.0406 253.243 57.8786 255.081 59.7666 256.866ZM49.059 245.544L52.1139 242.962C50.4852 241.035 48.9096 239.062 47.3892 237.045L44.195 239.453C45.7602 241.529 47.3823 243.56 49.059 245.544ZM39.6791 233.099L43.003 230.874C41.6006 228.779 40.2555 226.643 38.9697 224.468L35.5263 226.504C36.8503 228.743 38.2353 230.943 39.6791 233.099ZM31.7501 219.686L35.3023 217.847C34.1445 215.61 33.0474 213.337 32.0134 211.03L28.3632 212.666C29.4281 215.042 30.5578 217.382 31.7501 219.686ZM25.3772 205.465L29.1139 204.038C28.2159 201.687 27.3819 199.304 26.6138 196.893L22.8024 198.107C23.5934 200.59 24.4524 203.044 25.3772 205.465ZM20.6473 190.613L24.5213 189.617C23.8954 187.183 23.3356 184.723 22.8441 182.239L18.9201 183.015C19.4263 185.574 20.0028 188.107 20.6473 190.613ZM17.6236 175.331L21.585 174.777C21.2371 172.291 20.9569 169.783 20.7463 167.254L16.7601 167.586C16.9769 170.189 17.2654 172.771 17.6236 175.331ZM16.3293 159.805C16.2934 158.507 16.2754 157.204 16.2754 155.897C16.2754 154.591 16.2934 153.288 16.3293 151.99L20.3278 152.1C20.2929 153.362 20.2754 154.627 20.2754 155.897C20.2754 157.167 20.2929 158.433 20.3278 159.695L16.3293 159.805ZM16.7601 144.209L20.7463 144.541C20.9569 142.012 21.2371 139.504 21.585 137.018L17.6236 136.464C17.2654 139.024 16.9769 141.606 16.7601 144.209ZM18.9201 128.78L22.8441 129.556C23.3356 127.072 23.8954 124.612 24.5213 122.178L20.6473 121.182C20.0028 123.688 19.4263 126.221 18.9201 128.78ZM22.8024 113.688L26.6138 114.902C27.3819 112.49 28.2159 110.108 29.1139 107.757L25.3772 106.33C24.4524 108.751 23.5934 111.205 22.8024 113.688ZM28.3632 99.1294L32.0133 100.765C33.0474 98.4579 34.1445 96.1848 35.3023 93.9482L31.7501 92.1093C30.5578 94.4125 29.4281 96.7533 28.3632 99.1294ZM35.5263 85.2911L38.9697 87.3266C40.2555 85.1515 41.6006 83.0155 43.0029 80.9209L39.6791 78.6956C38.2353 80.8522 36.8503 83.0515 35.5263 85.2911ZM44.195 72.3423L47.3892 74.7499C48.9096 72.7329 50.4852 70.7599 52.1139 68.833L49.059 66.2508C47.3823 68.2345 45.7602 70.2657 44.195 72.3423ZM54.255 60.4405L57.1611 63.1889C58.8957 61.3549 60.6811 59.5695 62.5151 57.835L59.7666 54.9288C57.8786 56.7144 56.0406 58.5524 54.255 60.4405ZM65.577 49.7328L68.1592 52.7877C70.086 51.159 72.0591 49.5834 74.0761 48.0631L71.6685 44.8688C69.5919 46.434 67.5606 48.0561 65.577 49.7328ZM78.0218 40.3529L80.2471 43.6768C82.3417 42.2745 84.4777 40.9293 86.6528 39.6435L84.6173 36.2001C82.3776 37.5241 80.1784 38.9091 78.0218 40.3529ZM91.4354 32.4239L93.2743 35.9762C95.511 34.8183 97.7841 33.7213 100.091 32.6872L98.4556 29.037C96.0794 30.1019 93.7386 31.2316 91.4354 32.4239ZM105.656 26.051L107.083 29.7877C109.434 28.8898 111.817 28.0557 114.228 27.2876L113.015 23.4762C110.531 24.2673 108.077 25.1263 105.656 26.051ZM120.508 21.3212L121.504 25.1951C123.938 24.5692 126.398 24.0095 128.882 23.5179L128.106 19.594C125.548 20.1002 123.014 20.6766 120.508 21.3212ZM135.79 18.2975L136.344 22.2589C138.83 21.9109 141.339 21.6307 143.867 21.4201L143.535 17.4339C140.932 17.6507 138.35 17.9392 135.79 18.2975ZM151.316 17.0031L151.427 21.0016C152.688 20.9668 153.954 20.9492 155.224 20.9492C156.494 20.9492 157.759 20.9668 159.021 21.0016L159.131 17.0031C157.833 16.9673 156.53 16.9492 155.224 16.9492C153.917 16.9492 152.614 16.9673 151.316 17.0031ZM166.913 17.4339L166.581 21.4201C169.109 21.6307 171.617 21.9109 174.103 22.2589L174.657 18.2975C172.097 17.9392 169.515 17.6507 166.913 17.4339ZM182.341 19.594L181.565 23.5179C184.049 24.0095 186.509 24.5692 188.943 25.1951L189.939 21.3212C187.433 20.6766 184.9 20.1002 182.341 19.594ZM197.433 23.4762L196.219 27.2876C198.631 28.0557 201.013 28.8898 203.364 29.7877L204.791 26.051C202.37 25.1263 199.917 24.2673 197.433 23.4762ZM211.992 29.037L210.356 32.6872C212.663 33.7213 214.936 34.8183 217.173 35.9762L219.012 32.4239C216.709 31.2316 214.368 30.1019 211.992 29.037ZM225.83 36.2001L223.794 39.6435C225.97 40.9293 228.106 42.2745 230.2 43.6768L232.425 40.3529C230.269 38.9091 228.07 37.5241 225.83 36.2001ZM238.779 44.8688L236.371 48.0631C238.388 49.5834 240.361 51.159 242.288 52.7877L244.87 49.7328C242.887 48.0561 240.855 46.434 238.779 44.8688ZM250.681 54.9288L247.932 57.835C249.766 59.5695 251.552 61.3549 253.286 63.1889L256.192 60.4405C254.407 58.5524 252.569 56.7144 250.681 54.9288ZM261.388 66.2508L258.333 68.833C259.962 70.7599 261.538 72.7329 263.058 74.7499L266.252 72.3423C264.687 70.2657 263.065 68.2345 261.388 66.2508ZM270.768 78.6956L267.444 80.9209C268.847 83.0155 270.192 85.1515 271.478 87.3266L274.921 85.2911C273.597 83.0515 272.212 80.8522 270.768 78.6956ZM278.697 92.1093L275.145 93.9482C276.303 96.1848 277.4 98.4579 278.434 100.765L282.084 99.1294C281.019 96.7532 279.889 94.4125 278.697 92.1093ZM285.07 106.33L281.333 107.757C282.231 110.108 283.065 112.49 283.833 114.902L287.645 113.688C286.854 111.205 285.995 108.751 285.07 106.33ZM289.8 121.182L285.926 122.178C286.552 124.612 287.112 127.072 287.603 129.556L291.527 128.78C291.021 126.221 290.445 123.688 289.8 121.182ZM292.824 136.464L288.862 137.018C289.21 139.504 289.49 142.012 289.701 144.541L293.687 144.209C293.47 141.606 293.182 139.024 292.824 136.464Z" fill="#A0A0A0"/>
<g clip-path="url(#clip0_3096_7567)">
<path d="M174.039 162.154C179.221 167.357 184.347 172.505 189.48 177.655C190.22 177.207 190.944 176.63 191.765 176.298C194.668 175.118 197.254 175.748 199.452 177.925C203.823 182.26 208.162 186.627 212.512 190.98C223.068 201.543 233.624 212.107 244.183 222.667C245.189 223.671 245.193 224.91 244.176 225.925C239.008 231.093 233.833 236.254 228.683 241.443C228.201 241.926 227.715 242.084 227.048 242.157C225.308 242.353 224.095 241.709 222.858 240.467C208.784 226.296 194.689 212.145 180.5 198.093C177.512 195.133 176.614 191.207 179.598 187.645C174.424 182.452 169.252 177.263 164.039 172.032C147.743 184.317 129.437 188.702 109.315 184.226C93.0816 180.615 80.1395 171.731 70.6077 158.109C51.7083 131.1 56.2436 94.2478 80.744 72.5046C105.423 50.604 142.449 50.9294 166.817 72.4277C191.621 94.3143 197.037 133.889 174.039 162.154ZM123.725 172.225C152.089 172.235 174.948 149.418 175.011 121.033C175.07 92.9427 152.149 69.9888 124.158 69.8209C95.793 69.6529 72.2639 92.7922 72.6238 121.709C72.9697 149.491 95.6288 172.228 123.728 172.225H123.725Z" fill="#A0A0A0"/>
<rect x="166.71" y="196.809" width="42.0811" height="3.41431" transform="rotate(-45.705 166.71 196.809)" fill="#5D5D5D"/>
<rect x="197.366" y="181.238" width="58.4514" height="4.35658" transform="rotate(45 197.366 181.238)" fill="#5D5D5D"/>
</g>
<path d="M122.787 76.1172C145.719 76.1175 164.31 94.7083 164.31 117.641C164.31 118.752 164.264 119.852 164.179 120.941C162.496 99.553 144.608 82.721 122.787 82.7207C100.966 82.7207 83.0765 99.5528 81.3936 120.941C81.3079 119.852 81.2637 118.752 81.2637 117.641C81.2637 94.7081 99.8546 76.1172 122.787 76.1172Z" fill="#A0A0A0"/>
<defs>
<clipPath id="clip0_3096_7567">
<rect width="186" height="186" fill="white" transform="translate(58.9375 56.1914)"/>
</clipPath>
</defs>
</svg>
