<svg width="311" height="311" viewBox="0 0 311 311" fill="none" xmlns="http://www.w3.org/2000/svg">
<path fill-rule="evenodd" clip-rule="evenodd" d="M155.107 302.699C236.293 302.699 302.107 236.885 302.107 155.699C302.107 74.5134 236.293 8.69922 155.107 8.69922C73.9216 8.69922 8.10742 74.5134 8.10742 155.699C8.10742 236.885 73.9216 302.699 155.107 302.699ZM155.107 310.699C240.712 310.699 310.107 241.303 310.107 155.699C310.107 70.0951 240.712 0.699219 155.107 0.699219C69.5033 0.699219 0.107422 70.0951 0.107422 155.699C0.107422 241.303 69.5033 310.699 155.107 310.699Z" fill="#A0A0A0"/>
<path fill-rule="evenodd" clip-rule="evenodd" d="M294.003 159.606C294.039 158.308 294.057 157.005 294.057 155.698C294.057 154.391 294.039 153.089 294.003 151.791L290.004 151.901C290.039 153.162 290.057 154.428 290.057 155.698C290.057 156.968 290.039 158.234 290.004 159.495L294.003 159.606ZM293.572 167.387L289.586 167.055C289.375 169.583 289.095 172.091 288.747 174.578L292.708 175.132C293.067 172.572 293.355 169.99 293.572 167.387ZM291.412 182.816L287.488 182.039C286.996 184.524 286.437 186.984 285.811 189.417L289.685 190.414C290.329 187.908 290.906 185.374 291.412 182.816ZM287.53 197.907L283.718 196.693C282.95 199.105 282.116 201.488 281.218 203.839L284.955 205.266C285.88 202.845 286.739 200.391 287.53 197.907ZM281.969 212.466L278.319 210.83C277.285 213.138 276.188 215.411 275.03 217.648L278.582 219.486C279.774 217.183 280.904 214.842 281.969 212.466ZM274.806 226.305L271.362 224.269C270.077 226.444 268.731 228.58 267.329 230.675L270.653 232.9C272.097 230.743 273.482 228.544 274.806 226.305ZM266.137 239.253L262.943 236.846C261.422 238.863 259.847 240.836 258.218 242.763L261.273 245.345C262.95 243.361 264.572 241.33 266.137 239.253ZM256.077 251.155L253.171 248.407C251.436 250.241 249.651 252.026 247.817 253.761L250.565 256.667C252.453 254.881 254.291 253.043 256.077 251.155ZM244.755 261.863L242.173 258.808C240.246 260.437 238.273 262.012 236.256 263.533L238.664 266.727C240.74 265.162 242.771 263.54 244.755 261.863ZM232.31 271.243L230.085 267.919C227.99 269.321 225.854 270.666 223.679 271.952L225.715 275.396C227.954 274.072 230.154 272.687 232.31 271.243ZM218.897 279.172L217.058 275.62C214.821 276.777 212.548 277.874 210.241 278.909L211.876 282.559C214.253 281.494 216.593 280.364 218.897 279.172ZM204.676 285.545L203.249 281.808C200.898 282.706 198.515 283.54 196.104 284.308L197.317 288.12C199.801 287.328 202.255 286.469 204.676 285.545ZM189.824 290.275L188.828 286.401C186.394 287.027 183.934 287.586 181.45 288.078L182.226 292.002C184.785 291.496 187.318 290.919 189.824 290.275ZM174.542 293.298L173.988 289.337C171.502 289.685 168.993 289.965 166.465 290.176L166.797 294.162C169.4 293.945 171.982 293.656 174.542 293.298ZM159.016 294.593L158.906 290.594C157.644 290.629 156.378 290.646 155.108 290.646C153.838 290.646 152.573 290.629 151.311 290.594L151.201 294.593C152.499 294.628 153.802 294.646 155.108 294.646C156.415 294.646 157.718 294.628 159.016 294.593ZM143.419 294.162L143.752 290.176C141.223 289.965 138.715 289.685 136.229 289.337L135.675 293.298C138.235 293.656 140.817 293.945 143.419 294.162ZM127.991 292.002L128.767 288.078C126.283 287.586 123.823 287.027 121.389 286.401L120.393 290.275C122.899 290.919 125.432 291.496 127.991 292.002ZM112.899 288.12L114.113 284.308C111.701 283.54 109.319 282.706 106.968 281.808L105.541 285.545C107.962 286.469 110.415 287.328 112.899 288.12ZM98.3403 282.559L99.9762 278.909C97.6689 277.874 95.3958 276.777 93.1591 275.62L91.3202 279.172C93.6234 280.364 95.9642 281.494 98.3403 282.559ZM84.5021 275.396L86.5376 271.952C84.3625 270.666 82.2265 269.321 80.1319 267.919L77.9066 271.243C80.0632 272.687 82.2624 274.072 84.5021 275.396ZM71.5532 266.727L73.9609 263.533C71.9439 262.012 69.9708 260.437 68.044 258.808L65.4618 261.863C67.4454 263.54 69.4767 265.162 71.5532 266.727ZM59.6514 256.667L62.3999 253.761C60.5659 252.026 58.7804 250.241 57.0459 248.407L54.1397 251.155C55.9254 253.043 57.7633 254.881 59.6514 256.667ZM48.9438 245.345L51.9986 242.763C50.37 240.836 48.7943 238.863 47.274 236.846L44.0798 239.253C45.645 241.33 47.2671 243.361 48.9438 245.345ZM39.5638 232.9L42.8877 230.675C41.4854 228.58 40.1402 226.444 38.8544 224.269L35.4111 226.305C36.735 228.544 38.1201 230.743 39.5638 232.9ZM31.6348 219.486L35.1871 217.648C34.0293 215.411 32.9322 213.138 31.8981 210.83L28.2479 212.466C29.3129 214.842 30.4426 217.183 31.6348 219.486ZM25.262 205.266L28.9987 203.839C28.1007 201.488 27.2666 199.105 26.4985 196.693L22.6871 197.907C23.4782 200.391 24.3372 202.845 25.262 205.266ZM20.5321 190.414L24.406 189.417C23.7801 186.984 23.2204 184.524 22.7289 182.039L18.8049 182.816C19.3111 185.374 19.8875 187.908 20.5321 190.414ZM17.5084 175.132L21.4698 174.578C21.1219 172.091 20.8416 169.583 20.6311 167.055L16.6449 167.387C16.8616 169.99 17.1502 172.572 17.5084 175.132ZM16.214 159.606C16.1782 158.308 16.1602 157.005 16.1602 155.698C16.1602 154.391 16.1782 153.089 16.214 151.791L20.2125 151.901C20.1777 153.162 20.1602 154.428 20.1602 155.698C20.1602 156.968 20.1777 158.234 20.2125 159.495L16.214 159.606ZM16.6449 144.009L20.6311 144.341C20.8416 141.813 21.1219 139.305 21.4698 136.819L17.5084 136.265C17.1502 138.824 16.8616 141.407 16.6449 144.009ZM18.8049 128.581L22.7289 129.357C23.2204 126.872 23.7801 124.412 24.406 121.979L20.5321 120.983C19.8875 123.489 19.3111 126.022 18.8049 128.581ZM22.6871 113.489L26.4985 114.703C27.2666 112.291 28.1007 109.909 28.9987 107.558L25.262 106.131C24.3372 108.552 23.4782 111.005 22.6871 113.489ZM28.2479 98.9302L31.8981 100.566C32.9322 98.2587 34.0293 95.9856 35.1871 93.7489L31.6348 91.9101C30.4426 94.2132 29.3129 96.554 28.2479 98.9302ZM35.4111 85.0919L38.8544 87.1274C40.1402 84.9523 41.4854 82.8163 42.8877 80.7217L39.5638 78.4964C38.12 80.653 36.735 82.8523 35.4111 85.0919ZM44.0797 72.1431L47.274 74.5507C48.7943 72.5337 50.3699 70.5606 51.9986 68.6338L48.9438 66.0516C47.2671 68.0352 45.645 70.0665 44.0797 72.1431ZM54.1397 60.2412L57.0459 62.9897C58.7804 61.1557 60.5658 59.3703 62.3999 57.6358L59.6514 54.7296C57.7633 56.5152 55.9253 58.3532 54.1397 60.2412ZM65.4618 49.5336L68.044 52.5885C69.9708 50.9598 71.9439 49.3842 73.9609 47.8638L71.5532 44.6696C69.4767 46.2348 67.4454 47.8569 65.4618 49.5336ZM77.9066 40.1537L80.1319 43.4776C82.2265 42.0753 84.3624 40.7301 86.5376 39.4443L84.502 36.0009C82.2624 37.3249 80.0632 38.7099 77.9066 40.1537ZM91.3202 32.2247L93.1591 35.7769C95.3957 34.6191 97.6689 33.5221 99.9762 32.488L98.3403 28.8378C95.9642 29.9027 93.6234 31.0324 91.3202 32.2247ZM105.541 25.8518L106.968 29.5885C109.319 28.6905 111.701 27.8565 114.113 27.0884L112.899 23.277C110.415 24.068 107.962 24.927 105.541 25.8518ZM120.393 21.122L121.389 24.9959C123.823 24.37 126.283 23.8102 128.767 23.3187L127.991 19.3947C125.432 19.9009 122.899 20.4774 120.393 21.122ZM135.675 18.0983L136.229 22.0597C138.715 21.7117 141.223 21.4315 143.752 21.2209L143.419 17.2347C140.817 17.4515 138.235 17.74 135.675 18.0983ZM151.201 16.8039L151.311 20.8024C152.573 20.7675 153.838 20.75 155.108 20.75C156.378 20.75 157.644 20.7675 158.906 20.8024L159.016 16.8039C157.718 16.768 156.415 16.75 155.108 16.75C153.802 16.75 152.499 16.768 151.201 16.8039ZM166.797 17.2347L166.465 21.2209C168.993 21.4315 171.502 21.7117 173.988 22.0596L174.542 18.0983C171.982 17.74 169.4 17.4515 166.797 17.2347ZM182.226 19.3947L181.45 23.3187C183.934 23.8102 186.394 24.37 188.828 24.9959L189.824 21.122C187.318 20.4774 184.785 19.9009 182.226 19.3947ZM197.317 23.277L196.104 27.0884C198.515 27.8565 200.898 28.6905 203.249 29.5885L204.676 25.8518C202.255 24.927 199.801 24.068 197.317 23.277ZM211.876 28.8378L210.241 32.488C212.548 33.5221 214.821 34.6191 217.058 35.7769L218.897 32.2247C216.593 31.0324 214.253 29.9027 211.876 28.8378ZM225.715 36.0009L223.679 39.4443C225.854 40.7301 227.99 42.0753 230.085 43.4776L232.31 40.1537C230.154 38.7099 227.954 37.3249 225.715 36.0009ZM238.664 44.6696L236.256 47.8638C238.273 49.3842 240.246 50.9598 242.173 52.5885L244.755 49.5336C242.771 47.8569 240.74 46.2348 238.664 44.6696ZM250.565 54.7296L247.817 57.6358C249.651 59.3703 251.436 61.1557 253.171 62.9897L256.077 60.2412C254.291 58.3532 252.453 56.5152 250.565 54.7296ZM261.273 66.0516L258.218 68.6338C259.847 70.5606 261.422 72.5337 262.943 74.5507L266.137 72.1431C264.572 70.0665 262.95 68.0352 261.273 66.0516ZM270.653 78.4964L267.329 80.7217C268.731 82.8163 270.077 84.9523 271.362 87.1274L274.806 85.0919C273.482 82.8522 272.097 80.653 270.653 78.4964ZM278.582 91.9101L275.03 93.7489C276.188 95.9856 277.285 98.2587 278.319 100.566L281.969 98.9302C280.904 96.554 279.774 94.2132 278.582 91.9101ZM284.955 106.131L281.218 107.558C282.116 109.909 282.95 112.291 283.718 114.703L287.53 113.489C286.739 111.005 285.88 108.552 284.955 106.131ZM289.685 120.983L285.811 121.979C286.437 124.412 286.996 126.872 287.488 129.357L291.412 128.581C290.906 126.022 290.329 123.489 289.685 120.983ZM292.708 136.265L288.747 136.819C289.095 139.305 289.375 141.813 289.586 144.341L293.572 144.009C293.355 141.407 293.067 138.824 292.708 136.265Z" fill="#A0A0A0"/>
<path d="M78.4006 231.859C78.9164 231.882 79.5104 232.746 80.0344 233.279C87.2599 240.631 94.4764 247.988 101.691 255.347C102.096 255.761 102.906 256.749 102.912 256.757L100.463 259.246C100.463 259.246 94.6012 253.162 92.9065 251.441C89.2991 247.777 88.1 246.564 84.8108 243.218C82.2171 240.58 79.6251 237.936 77.0315 235.299C76.0835 234.333 76.0443 233.936 76.8948 233.105L76.8967 233.103C77.3754 232.634 77.8662 231.836 78.4006 231.859ZM174.582 126.884C175.03 126.436 175.843 126.646 176.128 127.281L181.546 139.333C182.222 140.834 181.975 142.491 180.92 143.546C180.762 143.767 180.581 143.983 180.371 144.192C175.227 149.293 158.322 166.217 153.19 171.33C146.166 178.329 139.137 185.323 132.111 192.32C131.171 193.254 130.206 194.167 129.311 195.145C129.059 195.422 128.88 195.89 128.909 196.281C129.665 206.697 128.149 216.497 124.221 225.656C121.559 231.851 118.102 237.526 114.203 242.912C110.217 248.415 109.327 250.064 104.739 255.049C104.623 255.174 104.483 255.274 104.296 255.436C96.0954 247.083 87.9218 238.756 79.677 230.358C80.9887 229.281 82.2456 228.254 83.4973 227.218C93.6018 218.84 99.5107 213.27 107.673 202.959C112.819 196.459 117.384 189.554 121.179 182.116L122.838 177.454C122.971 177.076 122.965 176.651 122.822 176.246L121.736 173.198C121.606 172.833 121.682 172.449 121.931 172.2L122.826 171.306C123.2 170.932 123.839 170.968 124.257 171.387L124.812 171.942C125.399 172.529 126.254 172.711 126.933 172.394L131.417 170.049L174.585 126.882L174.582 126.884ZM96.2307 229.632C93.8136 229.632 91.8547 231.592 91.8547 234.009C91.8548 236.426 93.8137 238.385 96.2307 238.386C98.6478 238.386 100.608 236.426 100.608 234.009C100.608 231.592 98.6479 229.632 96.2307 229.632ZM143.015 184.284C148.064 187.979 149.773 193.409 145.777 197.391C143.025 200.133 140.251 202.854 137.514 205.61C135.92 207.213 133.993 207.977 131.564 207.661C130.985 207.589 130.74 207.369 130.796 206.779C130.86 206.084 130.873 205.376 130.906 204.766C131.674 204.736 132.392 204.821 133.013 204.655C133.683 204.474 134.396 204.187 134.877 203.725C137.872 200.838 140.819 197.901 143.755 194.955C145.584 193.121 145.448 190.517 143.453 188.417C142.741 187.666 142 186.938 141.204 186.129L141.206 186.127C141.839 185.484 142.428 184.881 143.015 184.284ZM132.246 195.018C132.368 194.931 132.642 194.931 132.794 195.009C134.251 195.749 135.702 196.501 137.138 197.286C137.424 197.441 137.851 197.816 137.826 197.992C137.788 198.285 137.488 198.649 137.201 198.725L137.198 198.723C136.312 198.958 135.379 199.074 134.504 199.229C133.486 199.146 132.531 199.064 131.576 198.991C131.125 198.959 130.988 198.748 130.869 198.284C130.47 196.727 131.192 195.794 132.246 195.018ZM119.612 178.894C116.633 184.144 113.742 189.451 110.545 194.547C110.228 195.05 107.704 194.658 106.815 193.918C106.18 193.388 106.008 191.054 106.588 190.42C110.441 186.229 114.554 182.278 118.58 178.252C118.925 178.465 119.267 178.681 119.612 178.894ZM127.404 179.157C125.738 179.157 124.389 180.508 124.389 182.173C124.389 183.838 125.738 185.187 127.404 185.187C129.069 185.187 130.419 183.838 130.419 182.173C130.419 180.508 129.069 179.157 127.404 179.157ZM229.323 63.3349C229.701 62.9572 230.354 62.9946 230.778 63.4179L231.477 64.1171L231.479 64.1151L235.605 68.2401C236.028 68.6634 236.064 69.3165 235.687 69.6942L180.241 125.14C179.565 125.816 178.336 125.509 177.889 124.552L176.021 120.551L128.383 168.189C127.863 168.709 126.97 168.658 126.388 168.076L125.485 167.174L229.323 63.3349ZM152.719 152.745L157.195 162.378L159.737 159.836L155.252 150.212L152.719 152.745ZM157.086 148.378L161.562 158.011L164.104 155.469L159.619 145.845L157.086 148.378ZM161.453 144.011L165.929 153.643L168.471 151.101L163.987 141.477L161.453 144.011ZM165.821 139.643L170.296 149.276L172.838 146.734L168.354 137.11L165.821 139.643ZM170.188 135.276L174.663 144.909L177.205 142.367L172.721 132.743L170.188 135.276ZM239.199 73.0321C239.649 72.5824 240.425 72.6243 240.932 73.1308L245.247 77.4472C245.751 77.9512 245.798 78.7266 245.346 79.1786L245.344 79.1757L186.97 137.55C186.332 138.187 185.177 137.898 184.757 136.997L182.404 131.958C181.994 131.081 182.131 130.1 182.749 129.482L239.199 73.0321ZM219.489 63.7841C219.269 62.8486 220.021 62.0772 220.96 62.2782L226.711 63.4999L220.796 69.4159L219.489 63.7841Z" fill="#A0A0A0"/>
<rect x="178.328" y="172.699" width="26.3949" height="5.50748" fill="#A0A0A0"/>
<rect x="179.955" y="180.234" width="23.1418" height="16.2811" fill="#A0A0A0"/>
<rect x="179.955" y="198.758" width="23.1418" height="47.7051" fill="#A0A0A0"/>
<rect x="212.766" y="172.699" width="26.3949" height="5.50748" fill="#A0A0A0"/>
<rect x="214.393" y="180.234" width="23.1418" height="16.2811" fill="#A0A0A0"/>
<rect x="214.393" y="198.758" width="23.1418" height="47.7051" fill="#A0A0A0"/>
<rect x="73.4531" y="65.3574" width="26.3949" height="5.50748" fill="#A0A0A0"/>
<rect x="75.0801" y="72.8945" width="23.1418" height="16.2811" fill="#A0A0A0"/>
<rect x="75.0801" y="91.418" width="23.1418" height="47.7051" fill="#A0A0A0"/>
<rect x="107.891" y="65.3574" width="26.3949" height="5.50748" fill="#A0A0A0"/>
<rect x="109.518" y="72.8945" width="23.1418" height="16.2811" fill="#A0A0A0"/>
<rect x="109.518" y="91.418" width="23.1418" height="47.7051" fill="#A0A0A0"/>
</svg>
