<svg width="311" height="311" viewBox="0 0 311 311" fill="none" xmlns="http://www.w3.org/2000/svg">
<path fill-rule="evenodd" clip-rule="evenodd" d="M155.107 302.698C236.293 302.698 302.107 236.884 302.107 155.698C302.107 74.5124 236.293 8.69824 155.107 8.69824C73.9216 8.69824 8.10742 74.5124 8.10742 155.698C8.10742 236.884 73.9216 302.698 155.107 302.698ZM155.107 310.698C240.712 310.698 310.107 241.302 310.107 155.698C310.107 70.0941 240.712 0.698242 155.107 0.698242C69.5033 0.698242 0.107422 70.0941 0.107422 155.698C0.107422 241.302 69.5033 310.698 155.107 310.698Z" fill="#A0A0A0"/>
<path fill-rule="evenodd" clip-rule="evenodd" d="M294.003 159.606C294.039 158.308 294.057 157.005 294.057 155.698C294.057 154.391 294.039 153.089 294.003 151.791L290.004 151.901C290.039 153.162 290.057 154.428 290.057 155.698C290.057 156.968 290.039 158.234 290.004 159.495L294.003 159.606ZM293.572 167.387L289.586 167.055C289.375 169.583 289.095 172.091 288.747 174.578L292.708 175.132C293.067 172.572 293.355 169.99 293.572 167.387ZM291.412 182.816L287.488 182.039C286.996 184.524 286.437 186.984 285.811 189.417L289.685 190.414C290.329 187.908 290.906 185.374 291.412 182.816ZM287.53 197.907L283.718 196.693C282.95 199.105 282.116 201.488 281.218 203.839L284.955 205.266C285.88 202.845 286.739 200.391 287.53 197.907ZM281.969 212.466L278.319 210.83C277.285 213.138 276.188 215.411 275.03 217.648L278.582 219.486C279.774 217.183 280.904 214.842 281.969 212.466ZM274.806 226.305L271.362 224.269C270.077 226.444 268.731 228.58 267.329 230.675L270.653 232.9C272.097 230.743 273.482 228.544 274.806 226.305ZM266.137 239.253L262.943 236.846C261.422 238.863 259.847 240.836 258.218 242.763L261.273 245.345C262.95 243.361 264.572 241.33 266.137 239.253ZM256.077 251.155L253.171 248.407C251.436 250.241 249.651 252.026 247.817 253.761L250.565 256.667C252.453 254.881 254.291 253.043 256.077 251.155ZM244.755 261.863L242.173 258.808C240.246 260.437 238.273 262.012 236.256 263.533L238.664 266.727C240.74 265.162 242.771 263.54 244.755 261.863ZM232.31 271.243L230.085 267.919C227.99 269.321 225.854 270.666 223.679 271.952L225.715 275.396C227.954 274.072 230.154 272.687 232.31 271.243ZM218.897 279.172L217.058 275.62C214.821 276.777 212.548 277.874 210.241 278.909L211.876 282.559C214.253 281.494 216.593 280.364 218.897 279.172ZM204.676 285.545L203.249 281.808C200.898 282.706 198.515 283.54 196.104 284.308L197.317 288.12C199.801 287.328 202.255 286.469 204.676 285.545ZM189.824 290.275L188.828 286.401C186.394 287.027 183.934 287.586 181.45 288.078L182.226 292.002C184.785 291.496 187.318 290.919 189.824 290.275ZM174.542 293.298L173.988 289.337C171.502 289.685 168.993 289.965 166.465 290.176L166.797 294.162C169.4 293.945 171.982 293.656 174.542 293.298ZM159.016 294.593L158.906 290.594C157.644 290.629 156.378 290.646 155.108 290.646C153.838 290.646 152.573 290.629 151.311 290.594L151.201 294.593C152.499 294.628 153.802 294.646 155.108 294.646C156.415 294.646 157.718 294.628 159.016 294.593ZM143.419 294.162L143.752 290.176C141.223 289.965 138.715 289.685 136.229 289.337L135.675 293.298C138.235 293.656 140.817 293.945 143.419 294.162ZM127.991 292.002L128.767 288.078C126.283 287.586 123.823 287.027 121.389 286.401L120.393 290.275C122.899 290.919 125.432 291.496 127.991 292.002ZM112.899 288.12L114.113 284.308C111.701 283.54 109.319 282.706 106.968 281.808L105.541 285.545C107.962 286.469 110.415 287.328 112.899 288.12ZM98.3403 282.559L99.9762 278.909C97.6689 277.874 95.3958 276.777 93.1591 275.62L91.3202 279.172C93.6234 280.364 95.9642 281.494 98.3403 282.559ZM84.5021 275.396L86.5376 271.952C84.3625 270.666 82.2265 269.321 80.1319 267.919L77.9066 271.243C80.0632 272.687 82.2624 274.072 84.5021 275.396ZM71.5532 266.727L73.9609 263.533C71.9439 262.012 69.9708 260.437 68.044 258.808L65.4618 261.863C67.4454 263.54 69.4767 265.162 71.5532 266.727ZM59.6514 256.667L62.3999 253.761C60.5659 252.026 58.7804 250.241 57.0459 248.407L54.1397 251.155C55.9254 253.043 57.7633 254.881 59.6514 256.667ZM48.9438 245.345L51.9986 242.763C50.37 240.836 48.7943 238.863 47.274 236.846L44.0798 239.253C45.645 241.33 47.2671 243.361 48.9438 245.345ZM39.5638 232.9L42.8877 230.675C41.4854 228.58 40.1402 226.444 38.8544 224.269L35.4111 226.305C36.735 228.544 38.1201 230.743 39.5638 232.9ZM31.6348 219.486L35.1871 217.648C34.0293 215.411 32.9322 213.138 31.8981 210.83L28.2479 212.466C29.3129 214.842 30.4426 217.183 31.6348 219.486ZM25.262 205.266L28.9987 203.839C28.1007 201.488 27.2666 199.105 26.4985 196.693L22.6871 197.907C23.4782 200.391 24.3372 202.845 25.262 205.266ZM20.5321 190.414L24.406 189.417C23.7801 186.984 23.2204 184.524 22.7289 182.039L18.8049 182.816C19.3111 185.374 19.8875 187.908 20.5321 190.414ZM17.5084 175.132L21.4698 174.578C21.1219 172.091 20.8416 169.583 20.6311 167.055L16.6449 167.387C16.8616 169.99 17.1502 172.572 17.5084 175.132ZM16.214 159.606C16.1782 158.308 16.1602 157.005 16.1602 155.698C16.1602 154.391 16.1782 153.089 16.214 151.791L20.2125 151.901C20.1777 153.162 20.1602 154.428 20.1602 155.698C20.1602 156.968 20.1777 158.234 20.2125 159.495L16.214 159.606ZM16.6449 144.009L20.6311 144.341C20.8416 141.813 21.1219 139.305 21.4698 136.819L17.5084 136.265C17.1502 138.824 16.8616 141.407 16.6449 144.009ZM18.8049 128.581L22.7289 129.357C23.2204 126.872 23.7801 124.412 24.406 121.979L20.5321 120.983C19.8875 123.489 19.3111 126.022 18.8049 128.581ZM22.6871 113.489L26.4985 114.703C27.2666 112.291 28.1007 109.909 28.9987 107.558L25.262 106.131C24.3372 108.552 23.4782 111.005 22.6871 113.489ZM28.2479 98.9302L31.8981 100.566C32.9322 98.2587 34.0293 95.9856 35.1871 93.7489L31.6348 91.9101C30.4426 94.2132 29.3129 96.554 28.2479 98.9302ZM35.4111 85.0919L38.8544 87.1274C40.1402 84.9523 41.4854 82.8163 42.8877 80.7217L39.5638 78.4964C38.12 80.653 36.735 82.8523 35.4111 85.0919ZM44.0797 72.1431L47.274 74.5507C48.7943 72.5337 50.3699 70.5606 51.9986 68.6338L48.9438 66.0516C47.2671 68.0352 45.645 70.0665 44.0797 72.1431ZM54.1397 60.2412L57.0459 62.9897C58.7804 61.1557 60.5658 59.3703 62.3999 57.6358L59.6514 54.7296C57.7633 56.5152 55.9253 58.3532 54.1397 60.2412ZM65.4618 49.5336L68.044 52.5885C69.9708 50.9598 71.9439 49.3842 73.9609 47.8638L71.5532 44.6696C69.4767 46.2348 67.4454 47.8569 65.4618 49.5336ZM77.9066 40.1537L80.1319 43.4776C82.2265 42.0753 84.3624 40.7301 86.5376 39.4443L84.502 36.0009C82.2624 37.3249 80.0632 38.7099 77.9066 40.1537ZM91.3202 32.2247L93.1591 35.7769C95.3957 34.6191 97.6689 33.5221 99.9762 32.488L98.3403 28.8378C95.9642 29.9027 93.6234 31.0324 91.3202 32.2247ZM105.541 25.8518L106.968 29.5885C109.319 28.6905 111.701 27.8565 114.113 27.0884L112.899 23.277C110.415 24.068 107.962 24.927 105.541 25.8518ZM120.393 21.122L121.389 24.9959C123.823 24.37 126.283 23.8102 128.767 23.3187L127.991 19.3947C125.432 19.9009 122.899 20.4774 120.393 21.122ZM135.675 18.0983L136.229 22.0597C138.715 21.7117 141.223 21.4315 143.752 21.2209L143.419 17.2347C140.817 17.4515 138.235 17.74 135.675 18.0983ZM151.201 16.8039L151.311 20.8024C152.573 20.7675 153.838 20.75 155.108 20.75C156.378 20.75 157.644 20.7675 158.906 20.8024L159.016 16.8039C157.718 16.768 156.415 16.75 155.108 16.75C153.802 16.75 152.499 16.768 151.201 16.8039ZM166.797 17.2347L166.465 21.2209C168.993 21.4315 171.502 21.7117 173.988 22.0596L174.542 18.0983C171.982 17.74 169.4 17.4515 166.797 17.2347ZM182.226 19.3947L181.45 23.3187C183.934 23.8102 186.394 24.37 188.828 24.9959L189.824 21.122C187.318 20.4774 184.785 19.9009 182.226 19.3947ZM197.317 23.277L196.104 27.0884C198.515 27.8565 200.898 28.6905 203.249 29.5885L204.676 25.8518C202.255 24.927 199.801 24.068 197.317 23.277ZM211.876 28.8378L210.241 32.488C212.548 33.5221 214.821 34.6191 217.058 35.7769L218.897 32.2247C216.593 31.0324 214.253 29.9027 211.876 28.8378ZM225.715 36.0009L223.679 39.4443C225.854 40.7301 227.99 42.0753 230.085 43.4776L232.31 40.1537C230.154 38.7099 227.954 37.3249 225.715 36.0009ZM238.664 44.6696L236.256 47.8638C238.273 49.3842 240.246 50.9598 242.173 52.5885L244.755 49.5336C242.771 47.8569 240.74 46.2348 238.664 44.6696ZM250.565 54.7296L247.817 57.6358C249.651 59.3703 251.436 61.1557 253.171 62.9897L256.077 60.2412C254.291 58.3532 252.453 56.5152 250.565 54.7296ZM261.273 66.0516L258.218 68.6338C259.847 70.5606 261.422 72.5337 262.943 74.5507L266.137 72.1431C264.572 70.0665 262.95 68.0352 261.273 66.0516ZM270.653 78.4964L267.329 80.7217C268.731 82.8163 270.077 84.9523 271.362 87.1274L274.806 85.0919C273.482 82.8522 272.097 80.653 270.653 78.4964ZM278.582 91.9101L275.03 93.7489C276.188 95.9856 277.285 98.2587 278.319 100.566L281.969 98.9302C280.904 96.554 279.774 94.2132 278.582 91.9101ZM284.955 106.131L281.218 107.558C282.116 109.909 282.95 112.291 283.718 114.703L287.53 113.489C286.739 111.005 285.88 108.552 284.955 106.131ZM289.685 120.983L285.811 121.979C286.437 124.412 286.996 126.872 287.488 129.357L291.412 128.581C290.906 126.022 290.329 123.489 289.685 120.983ZM292.708 136.265L288.747 136.819C289.095 139.305 289.375 141.813 289.586 144.341L293.572 144.009C293.355 141.407 293.067 138.824 292.708 136.265Z" fill="#A0A0A0"/>
<g clip-path="url(#clip0_3096_7567)">
<path d="M181.732 87.2637H122.157V92.8656H181.732V87.2637Z" fill="#A0A0A0"/>
<path d="M116.358 96.3906H185.45C186.353 96.3906 187.086 97.1244 187.086 98.0283V106.079H114.723V98.0283C114.723 97.1244 115.456 96.3906 116.358 96.3906Z" fill="#A0A0A0"/>
<path d="M126.856 83.0838H187.066C180.972 76.3722 172.615 62.1973 170.925 60.4493C170.055 59.5485 171.078 59.1845 169.85 59.1905C163.003 59.2144 136.573 59.1995 129.725 59.2024C127.914 59.2024 126.692 60.3986 126.692 62.2122C126.686 68.9536 126.695 75.6921 126.677 82.4335C126.677 82.7526 126.722 82.9585 126.856 83.0867V83.0838Z" fill="#A0A0A0"/>
<path d="M161.636 59.3848L189.347 88.7696C190.941 90.4609 191.829 92.6951 191.829 95.0188V201.385H196.242V92.3431C196.224 90.0851 195.345 87.8568 193.76 86.1715L170.456 61.3207C169.398 60.1931 167.932 59.5369 166.386 59.4981L161.633 59.3848H161.636Z" fill="#A0A0A0"/>
<path d="M186.821 110.062H114.553V112.314H186.821V110.062Z" fill="#A0A0A0"/>
<path d="M186.821 252.541H114.553V256.189H186.821V252.541Z" fill="#A0A0A0"/>
<path d="M192.004 39.8145C201.967 39.8145 210.07 47.9267 210.07 57.9005C210.07 67.8743 201.967 75.9864 192.004 75.9864C182.041 75.9864 173.938 67.8743 173.938 57.9005C173.938 47.9267 182.041 39.8145 192.004 39.8145ZM192.004 35.041C179.394 35.041 169.17 45.276 169.17 57.9005C169.17 70.525 179.394 80.7599 192.004 80.7599C204.615 80.7599 214.838 70.525 214.838 57.9005C214.838 45.276 204.615 35.041 192.004 35.041Z" fill="#A0A0A0"/>
<path d="M202.043 202.08H200.833V120.943H202.043C204.439 120.943 206.384 122.891 206.384 125.289V197.731C206.384 200.129 204.439 202.077 202.043 202.077V202.08Z" fill="#A0A0A0"/>
<path d="M78.666 176.638C75.3139 178.989 72.0422 181.486 68.5829 183.633C66.7951 184.743 64.6467 186.017 62.713 185.874C51.6972 185.053 43.1337 175.013 42.797 162.995C42.4573 150.899 50.3206 140.79 61.2202 139.65C62.6563 139.501 64.3518 140.539 65.7343 141.404C67.1526 142.293 68.3326 143.644 69.9445 144.539C66.9947 138.678 64.9388 132.777 65.8624 126.173C66.7951 119.503 69.7241 114.173 74.7984 110.403C83.779 103.73 93.5016 105.564 104.231 115.852C102.873 104.753 89.6549 95.6579 77.8317 97.9309C69.6853 99.497 63.8601 104.651 60.5825 112.843C57.2989 121.046 58.5176 129.237 62.4805 137.243C42.7583 137.276 31.8498 147.397 33.0268 164.146C34.159 180.269 46.316 189.477 65.046 187.935C61.1159 197.164 60.4008 206.348 65.4781 215.36C68.416 220.577 72.6083 224.3 77.8823 226.409C89.643 231.107 101.651 224.604 104.759 216.762C99.4669 220.21 94.1571 221.845 88.2098 220.592C82.167 219.321 77.4741 215.84 73.979 210.399C67.5161 200.338 69.2533 189.892 79.2857 177.721C79.0772 177.36 78.8716 176.999 78.663 176.638H78.666Z" fill="#A0A0A0"/>
<path d="M230.008 151.459C233.676 149.383 237.273 147.158 241.042 145.29C242.988 144.327 245.324 143.226 247.338 143.518C258.815 145.183 267.096 155.808 266.631 167.767C266.163 179.8 257.245 189.235 245.756 189.527C244.242 189.566 242.538 188.403 241.149 187.436C239.725 186.446 238.584 185.011 236.954 184C239.644 190.046 241.393 196.063 239.978 202.548C238.548 209.098 235.118 214.163 229.552 217.516C219.699 223.452 209.645 220.881 199.112 209.841C199.78 220.964 212.997 231.014 225.53 229.665C234.165 228.735 240.613 224.066 244.6 216.189C248.595 208.296 247.877 200.072 244.272 191.815C264.918 193.301 277.03 184.092 276.938 167.37C276.848 151.277 264.751 141.195 245.038 141.287C249.781 132.428 251.152 123.363 246.453 114.023C243.732 108.615 239.597 104.597 234.218 102.101C222.225 96.5284 209.213 102.062 205.426 109.612C211.201 106.596 216.871 105.382 223.009 107.082C229.248 108.809 233.923 112.627 237.213 118.298C243.291 128.783 240.762 139.023 229.433 150.334C229.627 150.707 229.818 151.083 230.011 151.456L230.008 151.459Z" fill="#A0A0A0"/>
<path d="M114.291 128.729V234.056H186.452V128.729H114.291ZM173.252 177.383C171.264 183.943 166.476 187.779 160.365 190.129C157.525 191.221 154.516 191.856 151.611 192.787C147.055 194.249 146.354 197.697 149.921 200.945C150.651 201.61 151.432 202.225 152.183 202.869C154.23 204.62 154.82 206.896 154.057 209.363C153.452 211.311 152.609 213.241 151.548 214.983C148.985 219.183 146.873 223.508 146.065 228.642C145.899 227.959 145.574 227.273 145.595 226.595C145.72 222.724 145.89 218.855 146.116 214.989C146.444 209.455 144.85 204.725 140.553 201.056C140.115 200.68 139.692 200.283 139.278 199.88C134.743 195.48 135.294 190.35 140.887 187.361C143.697 185.858 146.947 185.186 149.799 183.749C151.795 182.74 153.813 181.356 155.192 179.635C157.835 176.339 156.679 172.196 152.707 170.788C150.553 170.024 148.05 170.048 145.708 170.054C142.838 170.06 139.945 170.764 137.109 170.549C131.629 170.132 129.058 165.887 130.771 160.664C131.748 157.681 133.78 155.524 136.414 154.018C140.276 151.81 144.301 149.886 148.157 147.667C149.924 146.65 151.545 145.317 153.056 143.933C154.587 142.531 155.442 140.678 154.766 138.563C154.131 136.571 152.382 135.974 150.496 135.706C150.183 135.661 149.882 135.559 149.161 135.383C156.792 131.786 165.633 135.36 167.558 142.441C168.595 146.25 167.367 149.964 164.256 152.392C163.216 153.203 162.06 153.895 161.136 154.823C158.943 157.019 159.358 159.7 162.09 161.153C163.023 161.648 164.083 161.929 165.105 162.233C171.818 164.219 175.302 170.624 173.252 177.392V177.383Z" fill="#A0A0A0"/>
<path d="M180.144 218.694C178.958 217.609 177.769 216.445 176.574 215.192C176.643 216.341 176.813 217.48 177.078 218.605L180.144 218.694Z" fill="#A0A0A0"/>
<path d="M115.673 110.271H114.184V256.189H115.673V110.271Z" fill="#A0A0A0"/>
<path d="M186.887 110.271H185.397V256.189H186.887V110.271Z" fill="#A0A0A0"/>
</g>
<defs>
<clipPath id="clip0_3096_7567">
<rect width="244" height="224" fill="white" transform="translate(32.9375 32.1924)"/>
</clipPath>
</defs>
</svg>
