<svg width="311" height="311" viewBox="0 0 311 311" fill="none" xmlns="http://www.w3.org/2000/svg">
<path fill-rule="evenodd" clip-rule="evenodd" d="M155.107 302.698C236.293 302.698 302.107 236.884 302.107 155.698C302.107 74.5124 236.293 8.69824 155.107 8.69824C73.9216 8.69824 8.10742 74.5124 8.10742 155.698C8.10742 236.884 73.9216 302.698 155.107 302.698ZM155.107 310.698C240.712 310.698 310.107 241.302 310.107 155.698C310.107 70.0941 240.712 0.698242 155.107 0.698242C69.5033 0.698242 0.107422 70.0941 0.107422 155.698C0.107422 241.302 69.5033 310.698 155.107 310.698Z" fill="#A0A0A0"/>
<path fill-rule="evenodd" clip-rule="evenodd" d="M294.003 159.606C294.039 158.308 294.057 157.005 294.057 155.698C294.057 154.391 294.039 153.089 294.003 151.791L290.004 151.901C290.039 153.162 290.057 154.428 290.057 155.698C290.057 156.968 290.039 158.234 290.004 159.495L294.003 159.606ZM293.572 167.387L289.586 167.055C289.375 169.583 289.095 172.091 288.747 174.578L292.708 175.132C293.067 172.572 293.355 169.99 293.572 167.387ZM291.412 182.816L287.488 182.039C286.996 184.524 286.437 186.984 285.811 189.417L289.685 190.414C290.329 187.908 290.906 185.374 291.412 182.816ZM287.53 197.907L283.718 196.693C282.95 199.105 282.116 201.488 281.218 203.839L284.955 205.266C285.88 202.845 286.739 200.391 287.53 197.907ZM281.969 212.466L278.319 210.83C277.285 213.138 276.188 215.411 275.03 217.648L278.582 219.486C279.774 217.183 280.904 214.842 281.969 212.466ZM274.806 226.305L271.362 224.269C270.077 226.444 268.731 228.58 267.329 230.675L270.653 232.9C272.097 230.743 273.482 228.544 274.806 226.305ZM266.137 239.253L262.943 236.846C261.422 238.863 259.847 240.836 258.218 242.763L261.273 245.345C262.95 243.361 264.572 241.33 266.137 239.253ZM256.077 251.155L253.171 248.407C251.436 250.241 249.651 252.026 247.817 253.761L250.565 256.667C252.453 254.881 254.291 253.043 256.077 251.155ZM244.755 261.863L242.173 258.808C240.246 260.437 238.273 262.012 236.256 263.533L238.664 266.727C240.74 265.162 242.771 263.54 244.755 261.863ZM232.31 271.243L230.085 267.919C227.99 269.321 225.854 270.666 223.679 271.952L225.715 275.396C227.954 274.072 230.154 272.687 232.31 271.243ZM218.897 279.172L217.058 275.62C214.821 276.777 212.548 277.874 210.241 278.909L211.876 282.559C214.253 281.494 216.593 280.364 218.897 279.172ZM204.676 285.545L203.249 281.808C200.898 282.706 198.515 283.54 196.104 284.308L197.317 288.12C199.801 287.328 202.255 286.469 204.676 285.545ZM189.824 290.275L188.828 286.401C186.394 287.027 183.934 287.586 181.45 288.078L182.226 292.002C184.785 291.496 187.318 290.919 189.824 290.275ZM174.542 293.298L173.988 289.337C171.502 289.685 168.993 289.965 166.465 290.176L166.797 294.162C169.4 293.945 171.982 293.656 174.542 293.298ZM159.016 294.593L158.906 290.594C157.644 290.629 156.378 290.646 155.108 290.646C153.838 290.646 152.573 290.629 151.311 290.594L151.201 294.593C152.499 294.628 153.802 294.646 155.108 294.646C156.415 294.646 157.718 294.628 159.016 294.593ZM143.419 294.162L143.752 290.176C141.223 289.965 138.715 289.685 136.229 289.337L135.675 293.298C138.235 293.656 140.817 293.945 143.419 294.162ZM127.991 292.002L128.767 288.078C126.283 287.586 123.823 287.027 121.389 286.401L120.393 290.275C122.899 290.919 125.432 291.496 127.991 292.002ZM112.899 288.12L114.113 284.308C111.701 283.54 109.319 282.706 106.968 281.808L105.541 285.545C107.962 286.469 110.415 287.328 112.899 288.12ZM98.3403 282.559L99.9762 278.909C97.6689 277.874 95.3958 276.777 93.1591 275.62L91.3202 279.172C93.6234 280.364 95.9642 281.494 98.3403 282.559ZM84.5021 275.396L86.5376 271.952C84.3625 270.666 82.2265 269.321 80.1319 267.919L77.9066 271.243C80.0632 272.687 82.2624 274.072 84.5021 275.396ZM71.5532 266.727L73.9609 263.533C71.9439 262.012 69.9708 260.437 68.044 258.808L65.4618 261.863C67.4454 263.54 69.4767 265.162 71.5532 266.727ZM59.6514 256.667L62.3999 253.761C60.5659 252.026 58.7804 250.241 57.0459 248.407L54.1397 251.155C55.9254 253.043 57.7633 254.881 59.6514 256.667ZM48.9438 245.345L51.9986 242.763C50.37 240.836 48.7943 238.863 47.274 236.846L44.0798 239.253C45.645 241.33 47.2671 243.361 48.9438 245.345ZM39.5638 232.9L42.8877 230.675C41.4854 228.58 40.1402 226.444 38.8544 224.269L35.4111 226.305C36.735 228.544 38.1201 230.743 39.5638 232.9ZM31.6348 219.486L35.1871 217.648C34.0293 215.411 32.9322 213.138 31.8981 210.83L28.2479 212.466C29.3129 214.842 30.4426 217.183 31.6348 219.486ZM25.262 205.266L28.9987 203.839C28.1007 201.488 27.2666 199.105 26.4985 196.693L22.6871 197.907C23.4782 200.391 24.3372 202.845 25.262 205.266ZM20.5321 190.414L24.406 189.417C23.7801 186.984 23.2204 184.524 22.7289 182.039L18.8049 182.816C19.3111 185.374 19.8875 187.908 20.5321 190.414ZM17.5084 175.132L21.4698 174.578C21.1219 172.091 20.8416 169.583 20.6311 167.055L16.6449 167.387C16.8616 169.99 17.1502 172.572 17.5084 175.132ZM16.214 159.606C16.1782 158.308 16.1602 157.005 16.1602 155.698C16.1602 154.391 16.1782 153.089 16.214 151.791L20.2125 151.901C20.1777 153.162 20.1602 154.428 20.1602 155.698C20.1602 156.968 20.1777 158.234 20.2125 159.495L16.214 159.606ZM16.6449 144.009L20.6311 144.341C20.8416 141.813 21.1219 139.305 21.4698 136.819L17.5084 136.265C17.1502 138.824 16.8616 141.407 16.6449 144.009ZM18.8049 128.581L22.7289 129.357C23.2204 126.872 23.7801 124.412 24.406 121.979L20.5321 120.983C19.8875 123.489 19.3111 126.022 18.8049 128.581ZM22.6871 113.489L26.4985 114.703C27.2666 112.291 28.1007 109.909 28.9987 107.558L25.262 106.131C24.3372 108.552 23.4782 111.005 22.6871 113.489ZM28.2479 98.9302L31.8981 100.566C32.9322 98.2587 34.0293 95.9856 35.1871 93.7489L31.6348 91.9101C30.4426 94.2132 29.3129 96.554 28.2479 98.9302ZM35.4111 85.0919L38.8544 87.1274C40.1402 84.9523 41.4854 82.8163 42.8877 80.7217L39.5638 78.4964C38.12 80.653 36.735 82.8523 35.4111 85.0919ZM44.0797 72.1431L47.274 74.5507C48.7943 72.5337 50.3699 70.5606 51.9986 68.6338L48.9438 66.0516C47.2671 68.0352 45.645 70.0665 44.0797 72.1431ZM54.1397 60.2412L57.0459 62.9897C58.7804 61.1557 60.5658 59.3703 62.3999 57.6358L59.6514 54.7296C57.7633 56.5152 55.9253 58.3532 54.1397 60.2412ZM65.4618 49.5336L68.044 52.5885C69.9708 50.9598 71.9439 49.3842 73.9609 47.8638L71.5532 44.6696C69.4767 46.2348 67.4454 47.8569 65.4618 49.5336ZM77.9066 40.1537L80.1319 43.4776C82.2265 42.0753 84.3624 40.7301 86.5376 39.4443L84.502 36.0009C82.2624 37.3249 80.0632 38.7099 77.9066 40.1537ZM91.3202 32.2247L93.1591 35.7769C95.3957 34.6191 97.6689 33.5221 99.9762 32.488L98.3403 28.8378C95.9642 29.9027 93.6234 31.0324 91.3202 32.2247ZM105.541 25.8518L106.968 29.5885C109.319 28.6905 111.701 27.8565 114.113 27.0884L112.899 23.277C110.415 24.068 107.962 24.927 105.541 25.8518ZM120.393 21.122L121.389 24.9959C123.823 24.37 126.283 23.8102 128.767 23.3187L127.991 19.3947C125.432 19.9009 122.899 20.4774 120.393 21.122ZM135.675 18.0983L136.229 22.0597C138.715 21.7117 141.223 21.4315 143.752 21.2209L143.419 17.2347C140.817 17.4515 138.235 17.74 135.675 18.0983ZM151.201 16.8039L151.311 20.8024C152.573 20.7675 153.838 20.75 155.108 20.75C156.378 20.75 157.644 20.7675 158.906 20.8024L159.016 16.8039C157.718 16.768 156.415 16.75 155.108 16.75C153.802 16.75 152.499 16.768 151.201 16.8039ZM166.797 17.2347L166.465 21.2209C168.993 21.4315 171.502 21.7117 173.988 22.0596L174.542 18.0983C171.982 17.74 169.4 17.4515 166.797 17.2347ZM182.226 19.3947L181.45 23.3187C183.934 23.8102 186.394 24.37 188.828 24.9959L189.824 21.122C187.318 20.4774 184.785 19.9009 182.226 19.3947ZM197.317 23.277L196.104 27.0884C198.515 27.8565 200.898 28.6905 203.249 29.5885L204.676 25.8518C202.255 24.927 199.801 24.068 197.317 23.277ZM211.876 28.8378L210.241 32.488C212.548 33.5221 214.821 34.6191 217.058 35.7769L218.897 32.2247C216.593 31.0324 214.253 29.9027 211.876 28.8378ZM225.715 36.0009L223.679 39.4443C225.854 40.7301 227.99 42.0753 230.085 43.4776L232.31 40.1537C230.154 38.7099 227.954 37.3249 225.715 36.0009ZM238.664 44.6696L236.256 47.8638C238.273 49.3842 240.246 50.9598 242.173 52.5885L244.755 49.5336C242.771 47.8569 240.74 46.2348 238.664 44.6696ZM250.565 54.7296L247.817 57.6358C249.651 59.3703 251.436 61.1557 253.171 62.9897L256.077 60.2412C254.291 58.3532 252.453 56.5152 250.565 54.7296ZM261.273 66.0516L258.218 68.6338C259.847 70.5606 261.422 72.5337 262.943 74.5507L266.137 72.1431C264.572 70.0665 262.95 68.0352 261.273 66.0516ZM270.653 78.4964L267.329 80.7217C268.731 82.8163 270.077 84.9523 271.362 87.1274L274.806 85.0919C273.482 82.8522 272.097 80.653 270.653 78.4964ZM278.582 91.9101L275.03 93.7489C276.188 95.9856 277.285 98.2587 278.319 100.566L281.969 98.9302C280.904 96.554 279.774 94.2132 278.582 91.9101ZM284.955 106.131L281.218 107.558C282.116 109.909 282.95 112.291 283.718 114.703L287.53 113.489C286.739 111.005 285.88 108.552 284.955 106.131ZM289.685 120.983L285.811 121.979C286.437 124.412 286.996 126.872 287.488 129.357L291.412 128.581C290.906 126.022 290.329 123.489 289.685 120.983ZM292.708 136.265L288.747 136.819C289.095 139.305 289.375 141.813 289.586 144.341L293.572 144.009C293.355 141.407 293.067 138.824 292.708 136.265Z" fill="#A0A0A0"/>
<g clip-path="url(#clip0_3096_7567)">
<path d="M136.908 134.766C141.842 150.105 156.85 148.585 156.85 148.585C156.85 148.585 141.329 142.082 144.615 128.368C145.197 125.948 136.141 132.396 136.903 134.771L136.908 134.766Z" fill="#A0A0A0"/>
<path d="M91.036 195.958C92.391 195.958 93.4895 194.872 93.4895 193.533C93.4895 192.194 92.391 191.108 91.036 191.108C89.681 191.108 88.5825 192.194 88.5825 193.533C88.5825 194.872 89.681 195.958 91.036 195.958Z" fill="#A0A0A0"/>
<path d="M254.937 104.453H250.335V118.125H254.937V104.453Z" fill="#A0A0A0"/>
<path d="M247.651 101.846C246.634 101.846 245.789 101.841 244.953 101.846C222.779 102.037 200.605 102.22 178.432 102.435C174.394 102.476 175.184 101.973 174.394 105.704C173.89 108.07 173.007 110.271 170.221 110.481C164.792 110.892 159.335 111.399 153.906 111.239C149.605 111.111 147.835 108.49 148.089 104.165C148.112 103.791 148.089 103.417 148.089 102.704C147.225 102.704 146.551 102.7 145.876 102.704C130.324 102.837 114.771 102.978 99.2186 103.106C96.1537 103.13 94.3101 101.666 93.6879 98.713C93.6602 98.576 93.5308 98.4618 93.346 98.1924C90.4628 98.3385 87.4965 98.4892 84.3869 98.6445C84.2853 100.037 84.6179 101.553 83.9942 102.339C83.3658 103.138 81.7995 103.211 80.5704 103.627C80.5704 108.358 80.5566 113.134 80.575 117.911C80.5889 121.121 80.6074 121.126 83.8001 121.121C137.698 120.998 191.6 120.874 245.498 120.747C246.209 120.747 246.916 120.683 247.646 120.637V101.846H247.651Z" fill="#A0A0A0"/>
<path d="M250.423 105.111V117.952C250.724 117.911 251.024 117.865 251.343 117.82V105.061C251.024 105.097 250.714 105.111 250.423 105.111Z" fill="#A0A0A0"/>
<path d="M83.7539 212.329C83.8094 212.863 83.8094 213.452 83.777 214.101C83.583 217.768 84.1282 218.147 87.9354 218.165C95.282 218.201 102.628 218.188 109.975 218.188C114.697 218.188 114.78 218.019 114.961 213.233C114.97 212.954 114.988 212.644 115.011 212.324H83.7539V212.329Z" fill="#A0A0A0"/>
<path d="M239.417 124.856C188.615 124.856 137.813 124.861 87.0115 124.875C85.8933 124.875 84.7752 124.975 83.657 125.03C83.3613 125.409 83.061 125.788 82.7653 126.162C85.0431 128.889 87.4458 131.524 89.5527 134.378C90.6339 135.844 91.6458 137.643 91.8352 139.383C92.0293 141.141 91.3131 143.054 90.7402 144.821C87.2517 155.585 83.6016 166.303 80.1778 177.089C77.8907 184.295 75.6313 191.528 73.8709 198.871C72.822 203.251 75.2986 207.324 79.5864 208.287C80.4596 208.484 81.1573 208.735 81.721 209.046H116.204C120.866 206.429 122.326 202.004 123.749 197.433C126.068 190.003 128.244 182.518 130.855 175.194C132.897 169.472 137.07 166.362 143.547 166.453C153.2 166.595 162.875 166.143 172.513 166.549C183.311 167.001 188.759 158.964 189.077 150.872C189.198 147.867 189.17 144.853 189.077 141.849C189.017 139.958 189.826 139.09 191.674 139.319C192.755 139.451 193.79 139.515 194.756 139.469H201.645V134.25H205.402V139.469H210.886V134.25H214.642V139.469H219.933C219.998 139.469 220.062 139.469 220.127 139.479V134.254H223.883V139.474H229.368V134.254H233.124V139.506C235.12 139.538 237.033 139.529 238.923 139.337C241.709 139.054 243.248 136.917 243.631 134.195C243.835 132.766 244.019 130.966 244.024 129.514C244.029 124.898 244.019 124.87 239.413 124.87L239.417 124.856ZM124.673 165.85C121.554 175.746 118.287 185.601 115.099 195.478C114.171 198.351 112.322 199.67 109.231 199.538C106.196 199.41 103.146 199.511 100.101 199.511C97.0563 199.511 94.0161 199.547 90.9712 199.501C85.9857 199.424 84.4194 197.419 85.9072 192.825C90.8742 177.523 95.9197 162.243 100.901 146.945C101.82 144.118 103.525 142.629 106.672 142.776C109.707 142.913 112.757 142.858 115.797 142.789C117.945 142.739 119.17 143.552 119.364 145.762C119.877 151.63 121.628 157.115 124.446 162.316C124.964 163.275 125.001 164.786 124.664 165.855L124.673 165.85ZM180.303 148.781C179.91 154.256 175.821 158.32 170.235 158.43C160.486 158.617 150.732 158.539 140.978 158.448C137.693 158.416 135.069 156.069 134.782 152.918C134.334 147.95 141.944 132.41 153.352 132.41C159.848 132.41 166.354 132.213 172.85 132.355C176.967 132.446 180.081 135.606 180.317 139.766C180.488 142.762 180.516 145.785 180.299 148.776L180.303 148.781Z" fill="#A0A0A0"/>
<path d="M77.2945 103.982C73.4549 104.9 70.045 105.617 66.7321 106.622C66.2562 106.768 65.7017 108.732 66.0483 109.138C68.2384 111.723 74.5176 114.102 77.1882 116.883" fill="#A0A0A0"/>
</g>
<defs>
<clipPath id="clip0_3096_7567">
<rect width="189" height="120" fill="white" transform="translate(65.9375 98.1924)"/>
</clipPath>
</defs>
</svg>
