<svg width="311" height="311" viewBox="0 0 311 311" fill="none" xmlns="http://www.w3.org/2000/svg">
<path fill-rule="evenodd" clip-rule="evenodd" d="M155.107 302.699C236.293 302.699 302.107 236.885 302.107 155.699C302.107 74.5134 236.293 8.69922 155.107 8.69922C73.9216 8.69922 8.10742 74.5134 8.10742 155.699C8.10742 236.885 73.9216 302.699 155.107 302.699ZM155.107 310.699C240.712 310.699 310.107 241.303 310.107 155.699C310.107 70.0951 240.712 0.699219 155.107 0.699219C69.5033 0.699219 0.107422 70.0951 0.107422 155.699C0.107422 241.303 69.5033 310.699 155.107 310.699Z" fill="#A0A0A0"/>
<path fill-rule="evenodd" clip-rule="evenodd" d="M294.003 159.606C294.039 158.308 294.057 157.005 294.057 155.698C294.057 154.391 294.039 153.089 294.003 151.791L290.004 151.901C290.039 153.162 290.057 154.428 290.057 155.698C290.057 156.968 290.039 158.234 290.004 159.495L294.003 159.606ZM293.572 167.387L289.586 167.055C289.375 169.583 289.095 172.091 288.747 174.578L292.708 175.132C293.067 172.572 293.355 169.99 293.572 167.387ZM291.412 182.816L287.488 182.039C286.996 184.524 286.437 186.984 285.811 189.417L289.685 190.414C290.329 187.908 290.906 185.374 291.412 182.816ZM287.53 197.907L283.718 196.693C282.95 199.105 282.116 201.488 281.218 203.839L284.955 205.266C285.88 202.845 286.739 200.391 287.53 197.907ZM281.969 212.466L278.319 210.83C277.285 213.138 276.188 215.411 275.03 217.648L278.582 219.486C279.774 217.183 280.904 214.842 281.969 212.466ZM274.806 226.305L271.362 224.269C270.077 226.444 268.731 228.58 267.329 230.675L270.653 232.9C272.097 230.743 273.482 228.544 274.806 226.305ZM266.137 239.253L262.943 236.846C261.422 238.863 259.847 240.836 258.218 242.763L261.273 245.345C262.95 243.361 264.572 241.33 266.137 239.253ZM256.077 251.155L253.171 248.407C251.436 250.241 249.651 252.026 247.817 253.761L250.565 256.667C252.453 254.881 254.291 253.043 256.077 251.155ZM244.755 261.863L242.173 258.808C240.246 260.437 238.273 262.012 236.256 263.533L238.664 266.727C240.74 265.162 242.771 263.54 244.755 261.863ZM232.31 271.243L230.085 267.919C227.99 269.321 225.854 270.666 223.679 271.952L225.715 275.396C227.954 274.072 230.154 272.687 232.31 271.243ZM218.897 279.172L217.058 275.62C214.821 276.777 212.548 277.874 210.241 278.909L211.876 282.559C214.253 281.494 216.593 280.364 218.897 279.172ZM204.676 285.545L203.249 281.808C200.898 282.706 198.515 283.54 196.104 284.308L197.317 288.12C199.801 287.328 202.255 286.469 204.676 285.545ZM189.824 290.275L188.828 286.401C186.394 287.027 183.934 287.586 181.45 288.078L182.226 292.002C184.785 291.496 187.318 290.919 189.824 290.275ZM174.542 293.298L173.988 289.337C171.502 289.685 168.993 289.965 166.465 290.176L166.797 294.162C169.4 293.945 171.982 293.656 174.542 293.298ZM159.016 294.593L158.906 290.594C157.644 290.629 156.378 290.646 155.108 290.646C153.838 290.646 152.573 290.629 151.311 290.594L151.201 294.593C152.499 294.628 153.802 294.646 155.108 294.646C156.415 294.646 157.718 294.628 159.016 294.593ZM143.419 294.162L143.752 290.176C141.223 289.965 138.715 289.685 136.229 289.337L135.675 293.298C138.235 293.656 140.817 293.945 143.419 294.162ZM127.991 292.002L128.767 288.078C126.283 287.586 123.823 287.027 121.389 286.401L120.393 290.275C122.899 290.919 125.432 291.496 127.991 292.002ZM112.899 288.12L114.113 284.308C111.701 283.54 109.319 282.706 106.968 281.808L105.541 285.545C107.962 286.469 110.415 287.328 112.899 288.12ZM98.3403 282.559L99.9762 278.909C97.6689 277.874 95.3958 276.777 93.1591 275.62L91.3202 279.172C93.6234 280.364 95.9642 281.494 98.3403 282.559ZM84.5021 275.396L86.5376 271.952C84.3625 270.666 82.2265 269.321 80.1319 267.919L77.9066 271.243C80.0632 272.687 82.2624 274.072 84.5021 275.396ZM71.5532 266.727L73.9609 263.533C71.9439 262.012 69.9708 260.437 68.044 258.808L65.4618 261.863C67.4454 263.54 69.4767 265.162 71.5532 266.727ZM59.6514 256.667L62.3999 253.761C60.5659 252.026 58.7804 250.241 57.0459 248.407L54.1397 251.155C55.9254 253.043 57.7633 254.881 59.6514 256.667ZM48.9438 245.345L51.9986 242.763C50.37 240.836 48.7943 238.863 47.274 236.846L44.0798 239.253C45.645 241.33 47.2671 243.361 48.9438 245.345ZM39.5638 232.9L42.8877 230.675C41.4854 228.58 40.1402 226.444 38.8544 224.269L35.4111 226.305C36.735 228.544 38.1201 230.743 39.5638 232.9ZM31.6348 219.486L35.1871 217.648C34.0293 215.411 32.9322 213.138 31.8981 210.83L28.2479 212.466C29.3129 214.842 30.4426 217.183 31.6348 219.486ZM25.262 205.266L28.9987 203.839C28.1007 201.488 27.2666 199.105 26.4985 196.693L22.6871 197.907C23.4782 200.391 24.3372 202.845 25.262 205.266ZM20.5321 190.414L24.406 189.417C23.7801 186.984 23.2204 184.524 22.7289 182.039L18.8049 182.816C19.3111 185.374 19.8875 187.908 20.5321 190.414ZM17.5084 175.132L21.4698 174.578C21.1219 172.091 20.8416 169.583 20.6311 167.055L16.6449 167.387C16.8616 169.99 17.1502 172.572 17.5084 175.132ZM16.214 159.606C16.1782 158.308 16.1602 157.005 16.1602 155.698C16.1602 154.391 16.1782 153.089 16.214 151.791L20.2125 151.901C20.1777 153.162 20.1602 154.428 20.1602 155.698C20.1602 156.968 20.1777 158.234 20.2125 159.495L16.214 159.606ZM16.6449 144.009L20.6311 144.341C20.8416 141.813 21.1219 139.305 21.4698 136.819L17.5084 136.265C17.1502 138.824 16.8616 141.407 16.6449 144.009ZM18.8049 128.581L22.7289 129.357C23.2204 126.872 23.7801 124.412 24.406 121.979L20.5321 120.983C19.8875 123.489 19.3111 126.022 18.8049 128.581ZM22.6871 113.489L26.4985 114.703C27.2666 112.291 28.1007 109.909 28.9987 107.558L25.262 106.131C24.3372 108.552 23.4782 111.005 22.6871 113.489ZM28.2479 98.9302L31.8981 100.566C32.9322 98.2587 34.0293 95.9856 35.1871 93.7489L31.6348 91.9101C30.4426 94.2132 29.3129 96.554 28.2479 98.9302ZM35.4111 85.0919L38.8544 87.1274C40.1402 84.9523 41.4854 82.8163 42.8877 80.7217L39.5638 78.4964C38.12 80.653 36.735 82.8523 35.4111 85.0919ZM44.0797 72.1431L47.274 74.5507C48.7943 72.5337 50.3699 70.5606 51.9986 68.6338L48.9438 66.0516C47.2671 68.0352 45.645 70.0665 44.0797 72.1431ZM54.1397 60.2412L57.0459 62.9897C58.7804 61.1557 60.5658 59.3703 62.3999 57.6358L59.6514 54.7296C57.7633 56.5152 55.9253 58.3532 54.1397 60.2412ZM65.4618 49.5336L68.044 52.5885C69.9708 50.9598 71.9439 49.3842 73.9609 47.8638L71.5532 44.6696C69.4767 46.2348 67.4454 47.8569 65.4618 49.5336ZM77.9066 40.1537L80.1319 43.4776C82.2265 42.0753 84.3624 40.7301 86.5376 39.4443L84.502 36.0009C82.2624 37.3249 80.0632 38.7099 77.9066 40.1537ZM91.3202 32.2247L93.1591 35.7769C95.3957 34.6191 97.6689 33.5221 99.9762 32.488L98.3403 28.8378C95.9642 29.9027 93.6234 31.0324 91.3202 32.2247ZM105.541 25.8518L106.968 29.5885C109.319 28.6905 111.701 27.8565 114.113 27.0884L112.899 23.277C110.415 24.068 107.962 24.927 105.541 25.8518ZM120.393 21.122L121.389 24.9959C123.823 24.37 126.283 23.8102 128.767 23.3187L127.991 19.3947C125.432 19.9009 122.899 20.4774 120.393 21.122ZM135.675 18.0983L136.229 22.0597C138.715 21.7117 141.223 21.4315 143.752 21.2209L143.419 17.2347C140.817 17.4515 138.235 17.74 135.675 18.0983ZM151.201 16.8039L151.311 20.8024C152.573 20.7675 153.838 20.75 155.108 20.75C156.378 20.75 157.644 20.7675 158.906 20.8024L159.016 16.8039C157.718 16.768 156.415 16.75 155.108 16.75C153.802 16.75 152.499 16.768 151.201 16.8039ZM166.797 17.2347L166.465 21.2209C168.993 21.4315 171.502 21.7117 173.988 22.0596L174.542 18.0983C171.982 17.74 169.4 17.4515 166.797 17.2347ZM182.226 19.3947L181.45 23.3187C183.934 23.8102 186.394 24.37 188.828 24.9959L189.824 21.122C187.318 20.4774 184.785 19.9009 182.226 19.3947ZM197.317 23.277L196.104 27.0884C198.515 27.8565 200.898 28.6905 203.249 29.5885L204.676 25.8518C202.255 24.927 199.801 24.068 197.317 23.277ZM211.876 28.8378L210.241 32.488C212.548 33.5221 214.821 34.6191 217.058 35.7769L218.897 32.2247C216.593 31.0324 214.253 29.9027 211.876 28.8378ZM225.715 36.0009L223.679 39.4443C225.854 40.7301 227.99 42.0753 230.085 43.4776L232.31 40.1537C230.154 38.7099 227.954 37.3249 225.715 36.0009ZM238.664 44.6696L236.256 47.8638C238.273 49.3842 240.246 50.9598 242.173 52.5885L244.755 49.5336C242.771 47.8569 240.74 46.2348 238.664 44.6696ZM250.565 54.7296L247.817 57.6358C249.651 59.3703 251.436 61.1557 253.171 62.9897L256.077 60.2412C254.291 58.3532 252.453 56.5152 250.565 54.7296ZM261.273 66.0516L258.218 68.6338C259.847 70.5606 261.422 72.5337 262.943 74.5507L266.137 72.1431C264.572 70.0665 262.95 68.0352 261.273 66.0516ZM270.653 78.4964L267.329 80.7217C268.731 82.8163 270.077 84.9523 271.362 87.1274L274.806 85.0919C273.482 82.8522 272.097 80.653 270.653 78.4964ZM278.582 91.9101L275.03 93.7489C276.188 95.9856 277.285 98.2587 278.319 100.566L281.969 98.9302C280.904 96.554 279.774 94.2132 278.582 91.9101ZM284.955 106.131L281.218 107.558C282.116 109.909 282.95 112.291 283.718 114.703L287.53 113.489C286.739 111.005 285.88 108.552 284.955 106.131ZM289.685 120.983L285.811 121.979C286.437 124.412 286.996 126.872 287.488 129.357L291.412 128.581C290.906 126.022 290.329 123.489 289.685 120.983ZM292.708 136.265L288.747 136.819C289.095 139.305 289.375 141.813 289.586 144.341L293.572 144.009C293.355 141.407 293.067 138.824 292.708 136.265Z" fill="#A0A0A0"/>
<path d="M230.234 64.2744C239.449 71.5233 244.643 80.0362 246.221 90.4967C250.581 119.376 225.456 142.344 197.059 135.495C193.296 134.588 190.604 135.039 187.878 138.014C182.916 143.432 177.467 148.402 172.363 153.694C170.54 155.586 169.383 155.939 167.354 153.862C165.384 151.841 162.194 147.413 162.194 147.413C162.194 147.413 160.388 147.017 160.306 146.226C162.989 144.124 165.771 142.124 168.308 139.854C169.198 139.059 169.96 137.558 169.878 136.445C169.831 135.83 167.81 135.499 166.855 134.798C164.499 133.07 162.207 131.255 159.553 129.187C158.728 128.547 158.65 127.33 159.381 126.582C162.176 123.723 164.533 121.208 167.091 118.916C169.641 116.633 170.265 114.552 168.962 111.087C162.473 93.8245 168.188 74.3609 182.628 64.6872C182.778 66.1877 183.002 67.4216 183.01 68.6555C183.045 77.2114 182.847 85.7716 183.178 94.3146C183.255 96.3483 184.558 98.958 186.154 100.192C191.722 104.5 197.704 108.266 203.448 112.355C205.603 113.89 207.43 113.864 209.563 112.342C215.299 108.245 221.268 104.453 226.815 100.123C228.415 98.8764 229.674 96.2451 229.769 94.1857C230.109 86.7003 229.864 79.1892 229.894 71.691C229.902 69.5326 230.087 67.37 230.242 64.2787L230.234 64.2744Z" fill="#A0A0A0"/>
<path d="M161.979 138.681C154.742 145.917 147.78 152.877 140.169 160.487C134.837 154.945 129.53 149.262 124.048 143.754C106.469 126.113 88.8476 108.52 71.2001 90.9525C66.6335 86.408 64.9306 81.0637 66.7754 74.9413C68.5126 69.1844 72.5761 65.5814 78.5274 64.3604C83.58 63.3242 88.2327 64.5367 91.8447 68.131C115.035 91.1975 138.126 114.363 161.239 137.507C161.54 137.808 161.712 138.246 161.979 138.681ZM79.6583 74.7522C78.7596 75.3928 77.3492 76.0979 77.4309 76.3902C77.8609 77.9466 78.3081 79.7567 79.3874 80.8445C99.7912 101.379 120.255 121.857 140.835 142.21C141.979 143.341 144.28 143.311 146.038 143.823C145.428 142.082 145.303 139.85 144.129 138.663C123.764 118.103 103.27 97.6682 82.7802 77.2243C81.903 76.3473 80.828 75.6679 79.6583 74.7522Z" fill="#A0A0A0"/>
<path d="M129.509 156.584C131.956 160.242 136.832 161.021 136.961 166.292C137.021 168.772 139.704 168.536 141.377 166.795C143.854 164.215 149.109 158.394 149.109 158.394L158.328 167.629C158.328 167.629 150.502 175.454 146.731 179.229C127.849 198.108 108.937 216.965 90.0989 235.887C85.8547 240.152 80.8538 241.45 75.2637 239.829C70.1251 238.342 66.9044 234.67 65.7477 229.408C64.7156 224.704 65.6832 220.331 69.0931 216.909C89.097 196.844 108.757 177.298 129.513 156.592L129.509 156.584ZM88.2327 226.437C88.2499 221.853 83.6488 217.107 79.138 217.606C74.1156 218.165 70.8088 221.105 70.8518 226.398C70.8905 231.574 73.8146 234.773 79.0735 235.156C83.8982 235.508 88.2198 231.196 88.237 226.432L88.2327 226.437Z" fill="#A0A0A0"/>
<path d="M152.304 154.292L157.034 149.992C157.034 149.992 187.676 180.544 200.451 193.864C204.867 198.469 210.217 200.58 215.833 202.652C217.088 203.116 218.606 203.374 219.488 204.252C227.125 211.857 234.641 219.583 242.097 227.176C237.862 231.377 233.669 235.534 229.06 240.109C224.433 235.526 219.741 230.508 214.654 225.929C208.729 220.598 204.966 214.269 201.896 206.844C199.626 201.362 194.358 196.99 190.015 192.518C178.005 180.149 152.308 154.296 152.308 154.296L152.304 154.292Z" fill="#A0A0A0"/>
<path d="M159.682 126.272L158.719 127.253C158.315 127.661 158.302 128.315 158.689 128.74L167.788 138.814L160.517 145.706C160.031 146.166 160.035 146.94 160.525 147.396L168.846 155.1L182.408 137.954L172.518 123.766L159.682 126.272Z" fill="#A0A0A0"/>
<path d="M130.395 156.777L139.296 165.385C139.597 165.677 140.07 165.677 140.375 165.389L147.857 158.282C148.175 157.981 148.674 157.998 148.971 158.321L150.046 159.494C150.33 159.804 150.317 160.281 150.02 160.573L137.159 173.313C136.78 173.687 136.148 173.584 135.912 173.106L130.803 162.891L128.589 158.23C128.447 157.934 128.507 157.577 128.744 157.345L129.303 156.786C129.604 156.485 130.089 156.48 130.395 156.777Z" fill="#A0A0A0"/>
</svg>
