<svg width="311" height="311" viewBox="0 0 311 311" fill="none" xmlns="http://www.w3.org/2000/svg">
<path fill-rule="evenodd" clip-rule="evenodd" d="M155.107 302.699C236.293 302.699 302.107 236.885 302.107 155.699C302.107 74.5134 236.293 8.69922 155.107 8.69922C73.9216 8.69922 8.10742 74.5134 8.10742 155.699C8.10742 236.885 73.9216 302.699 155.107 302.699ZM155.107 310.699C240.712 310.699 310.107 241.303 310.107 155.699C310.107 70.0951 240.712 0.699219 155.107 0.699219C69.5033 0.699219 0.107422 70.0951 0.107422 155.699C0.107422 241.303 69.5033 310.699 155.107 310.699Z" fill="#A0A0A0"/>
<path fill-rule="evenodd" clip-rule="evenodd" d="M294.003 159.606C294.039 158.308 294.057 157.005 294.057 155.698C294.057 154.391 294.039 153.089 294.003 151.791L290.004 151.901C290.039 153.162 290.057 154.428 290.057 155.698C290.057 156.968 290.039 158.234 290.004 159.495L294.003 159.606ZM293.572 167.387L289.586 167.055C289.375 169.583 289.095 172.091 288.747 174.578L292.708 175.132C293.067 172.572 293.355 169.99 293.572 167.387ZM291.412 182.816L287.488 182.039C286.996 184.524 286.437 186.984 285.811 189.417L289.685 190.414C290.329 187.908 290.906 185.374 291.412 182.816ZM287.53 197.907L283.718 196.693C282.95 199.105 282.116 201.488 281.218 203.839L284.955 205.266C285.88 202.845 286.739 200.391 287.53 197.907ZM281.969 212.466L278.319 210.83C277.285 213.138 276.188 215.411 275.03 217.648L278.582 219.486C279.774 217.183 280.904 214.842 281.969 212.466ZM274.806 226.305L271.362 224.269C270.077 226.444 268.731 228.58 267.329 230.675L270.653 232.9C272.097 230.743 273.482 228.544 274.806 226.305ZM266.137 239.253L262.943 236.846C261.422 238.863 259.847 240.836 258.218 242.763L261.273 245.345C262.95 243.361 264.572 241.33 266.137 239.253ZM256.077 251.155L253.171 248.407C251.436 250.241 249.651 252.026 247.817 253.761L250.565 256.667C252.453 254.881 254.291 253.043 256.077 251.155ZM244.755 261.863L242.173 258.808C240.246 260.437 238.273 262.012 236.256 263.533L238.664 266.727C240.74 265.162 242.771 263.54 244.755 261.863ZM232.31 271.243L230.085 267.919C227.99 269.321 225.854 270.666 223.679 271.952L225.715 275.396C227.954 274.072 230.154 272.687 232.31 271.243ZM218.897 279.172L217.058 275.62C214.821 276.777 212.548 277.874 210.241 278.909L211.876 282.559C214.253 281.494 216.593 280.364 218.897 279.172ZM204.676 285.545L203.249 281.808C200.898 282.706 198.515 283.54 196.104 284.308L197.317 288.12C199.801 287.328 202.255 286.469 204.676 285.545ZM189.824 290.275L188.828 286.401C186.394 287.027 183.934 287.586 181.45 288.078L182.226 292.002C184.785 291.496 187.318 290.919 189.824 290.275ZM174.542 293.298L173.988 289.337C171.502 289.685 168.993 289.965 166.465 290.176L166.797 294.162C169.4 293.945 171.982 293.656 174.542 293.298ZM159.016 294.593L158.906 290.594C157.644 290.629 156.378 290.646 155.108 290.646C153.838 290.646 152.573 290.629 151.311 290.594L151.201 294.593C152.499 294.628 153.802 294.646 155.108 294.646C156.415 294.646 157.718 294.628 159.016 294.593ZM143.419 294.162L143.752 290.176C141.223 289.965 138.715 289.685 136.229 289.337L135.675 293.298C138.235 293.656 140.817 293.945 143.419 294.162ZM127.991 292.002L128.767 288.078C126.283 287.586 123.823 287.027 121.389 286.401L120.393 290.275C122.899 290.919 125.432 291.496 127.991 292.002ZM112.899 288.12L114.113 284.308C111.701 283.54 109.319 282.706 106.968 281.808L105.541 285.545C107.962 286.469 110.415 287.328 112.899 288.12ZM98.3403 282.559L99.9762 278.909C97.6689 277.874 95.3958 276.777 93.1591 275.62L91.3202 279.172C93.6234 280.364 95.9642 281.494 98.3403 282.559ZM84.5021 275.396L86.5376 271.952C84.3625 270.666 82.2265 269.321 80.1319 267.919L77.9066 271.243C80.0632 272.687 82.2624 274.072 84.5021 275.396ZM71.5532 266.727L73.9609 263.533C71.9439 262.012 69.9708 260.437 68.044 258.808L65.4618 261.863C67.4454 263.54 69.4767 265.162 71.5532 266.727ZM59.6514 256.667L62.3999 253.761C60.5659 252.026 58.7804 250.241 57.0459 248.407L54.1397 251.155C55.9254 253.043 57.7633 254.881 59.6514 256.667ZM48.9438 245.345L51.9986 242.763C50.37 240.836 48.7943 238.863 47.274 236.846L44.0798 239.253C45.645 241.33 47.2671 243.361 48.9438 245.345ZM39.5638 232.9L42.8877 230.675C41.4854 228.58 40.1402 226.444 38.8544 224.269L35.4111 226.305C36.735 228.544 38.1201 230.743 39.5638 232.9ZM31.6348 219.486L35.1871 217.648C34.0293 215.411 32.9322 213.138 31.8981 210.83L28.2479 212.466C29.3129 214.842 30.4426 217.183 31.6348 219.486ZM25.262 205.266L28.9987 203.839C28.1007 201.488 27.2666 199.105 26.4985 196.693L22.6871 197.907C23.4782 200.391 24.3372 202.845 25.262 205.266ZM20.5321 190.414L24.406 189.417C23.7801 186.984 23.2204 184.524 22.7289 182.039L18.8049 182.816C19.3111 185.374 19.8875 187.908 20.5321 190.414ZM17.5084 175.132L21.4698 174.578C21.1219 172.091 20.8416 169.583 20.6311 167.055L16.6449 167.387C16.8616 169.99 17.1502 172.572 17.5084 175.132ZM16.214 159.606C16.1782 158.308 16.1602 157.005 16.1602 155.698C16.1602 154.391 16.1782 153.089 16.214 151.791L20.2125 151.901C20.1777 153.162 20.1602 154.428 20.1602 155.698C20.1602 156.968 20.1777 158.234 20.2125 159.495L16.214 159.606ZM16.6449 144.009L20.6311 144.341C20.8416 141.813 21.1219 139.305 21.4698 136.819L17.5084 136.265C17.1502 138.824 16.8616 141.407 16.6449 144.009ZM18.8049 128.581L22.7289 129.357C23.2204 126.872 23.7801 124.412 24.406 121.979L20.5321 120.983C19.8875 123.489 19.3111 126.022 18.8049 128.581ZM22.6871 113.489L26.4985 114.703C27.2666 112.291 28.1007 109.909 28.9987 107.558L25.262 106.131C24.3372 108.552 23.4782 111.005 22.6871 113.489ZM28.2479 98.9302L31.8981 100.566C32.9322 98.2587 34.0293 95.9856 35.1871 93.7489L31.6348 91.9101C30.4426 94.2132 29.3129 96.554 28.2479 98.9302ZM35.4111 85.0919L38.8544 87.1274C40.1402 84.9523 41.4854 82.8163 42.8877 80.7217L39.5638 78.4964C38.12 80.653 36.735 82.8523 35.4111 85.0919ZM44.0797 72.1431L47.274 74.5507C48.7943 72.5337 50.3699 70.5606 51.9986 68.6338L48.9438 66.0516C47.2671 68.0352 45.645 70.0665 44.0797 72.1431ZM54.1397 60.2412L57.0459 62.9897C58.7804 61.1557 60.5658 59.3703 62.3999 57.6358L59.6514 54.7296C57.7633 56.5152 55.9253 58.3532 54.1397 60.2412ZM65.4618 49.5336L68.044 52.5885C69.9708 50.9598 71.9439 49.3842 73.9609 47.8638L71.5532 44.6696C69.4767 46.2348 67.4454 47.8569 65.4618 49.5336ZM77.9066 40.1537L80.1319 43.4776C82.2265 42.0753 84.3624 40.7301 86.5376 39.4443L84.502 36.0009C82.2624 37.3249 80.0632 38.7099 77.9066 40.1537ZM91.3202 32.2247L93.1591 35.7769C95.3957 34.6191 97.6689 33.5221 99.9762 32.488L98.3403 28.8378C95.9642 29.9027 93.6234 31.0324 91.3202 32.2247ZM105.541 25.8518L106.968 29.5885C109.319 28.6905 111.701 27.8565 114.113 27.0884L112.899 23.277C110.415 24.068 107.962 24.927 105.541 25.8518ZM120.393 21.122L121.389 24.9959C123.823 24.37 126.283 23.8102 128.767 23.3187L127.991 19.3947C125.432 19.9009 122.899 20.4774 120.393 21.122ZM135.675 18.0983L136.229 22.0597C138.715 21.7117 141.223 21.4315 143.752 21.2209L143.419 17.2347C140.817 17.4515 138.235 17.74 135.675 18.0983ZM151.201 16.8039L151.311 20.8024C152.573 20.7675 153.838 20.75 155.108 20.75C156.378 20.75 157.644 20.7675 158.906 20.8024L159.016 16.8039C157.718 16.768 156.415 16.75 155.108 16.75C153.802 16.75 152.499 16.768 151.201 16.8039ZM166.797 17.2347L166.465 21.2209C168.993 21.4315 171.502 21.7117 173.988 22.0596L174.542 18.0983C171.982 17.74 169.4 17.4515 166.797 17.2347ZM182.226 19.3947L181.45 23.3187C183.934 23.8102 186.394 24.37 188.828 24.9959L189.824 21.122C187.318 20.4774 184.785 19.9009 182.226 19.3947ZM197.317 23.277L196.104 27.0884C198.515 27.8565 200.898 28.6905 203.249 29.5885L204.676 25.8518C202.255 24.927 199.801 24.068 197.317 23.277ZM211.876 28.8378L210.241 32.488C212.548 33.5221 214.821 34.6191 217.058 35.7769L218.897 32.2247C216.593 31.0324 214.253 29.9027 211.876 28.8378ZM225.715 36.0009L223.679 39.4443C225.854 40.7301 227.99 42.0753 230.085 43.4776L232.31 40.1537C230.154 38.7099 227.954 37.3249 225.715 36.0009ZM238.664 44.6696L236.256 47.8638C238.273 49.3842 240.246 50.9598 242.173 52.5885L244.755 49.5336C242.771 47.8569 240.74 46.2348 238.664 44.6696ZM250.565 54.7296L247.817 57.6358C249.651 59.3703 251.436 61.1557 253.171 62.9897L256.077 60.2412C254.291 58.3532 252.453 56.5152 250.565 54.7296ZM261.273 66.0516L258.218 68.6338C259.847 70.5606 261.422 72.5337 262.943 74.5507L266.137 72.1431C264.572 70.0665 262.95 68.0352 261.273 66.0516ZM270.653 78.4964L267.329 80.7217C268.731 82.8163 270.077 84.9523 271.362 87.1274L274.806 85.0919C273.482 82.8522 272.097 80.653 270.653 78.4964ZM278.582 91.9101L275.03 93.7489C276.188 95.9856 277.285 98.2587 278.319 100.566L281.969 98.9302C280.904 96.554 279.774 94.2132 278.582 91.9101ZM284.955 106.131L281.218 107.558C282.116 109.909 282.95 112.291 283.718 114.703L287.53 113.489C286.739 111.005 285.88 108.552 284.955 106.131ZM289.685 120.983L285.811 121.979C286.437 124.412 286.996 126.872 287.488 129.357L291.412 128.581C290.906 126.022 290.329 123.489 289.685 120.983ZM292.708 136.265L288.747 136.819C289.095 139.305 289.375 141.813 289.586 144.341L293.572 144.009C293.355 141.407 293.067 138.824 292.708 136.265Z" fill="#A0A0A0"/>
<path d="M135.273 135.058V123.911L171.772 130.599V135.058H135.273Z" fill="#A0A0A0"/>
<path d="M107.871 149.808C103.861 151.715 100.283 153.682 96.5025 155.123C93.7221 156.184 90.7793 158.482 87.68 156.158C86.2883 155.114 84.5053 153.348 84.5517 151.962C84.6097 150.202 85.9404 147.631 87.4394 146.94C90.8141 145.387 91.7303 142.85 92.2609 139.69C94.8528 124.259 97.497 108.837 100.132 93.4156C100.361 92.0725 100.17 90.0189 102.388 90.7754C103.058 91.0055 103.565 93.0705 103.388 94.1749C100.912 109.398 98.3001 124.601 95.7458 139.81C95.6443 140.414 95.8038 141.059 95.8792 142.29C100.376 140.363 104.563 138.66 108.639 136.727C109.28 136.422 109.665 135.114 109.764 134.225C111.248 120.989 112.704 107.75 114.052 94.5028C114.269 92.3802 115.104 91.7964 117.525 92.4176C116.064 106.462 114.606 120.5 113.11 134.881C121.883 135.111 125.032 141.269 128.102 147.616C129.253 149.998 130.674 152.281 132.216 154.438C134.118 157.096 136.768 158.597 140.174 158.698C146.208 158.876 152.238 159.371 158.266 159.31C163.824 159.253 168.834 160.674 173.606 163.32C175.166 164.185 176.879 164.795 178.384 165.739C181.466 167.668 183.69 167.292 186.059 164.283C189.689 159.67 193.866 155.488 197.691 151.021C198.386 150.21 198.949 148.844 198.807 147.84C197.221 136.638 195.51 125.456 193.782 114.273C191.988 102.662 190.132 91.0601 188.277 79.2766C189.59 78.8251 190.697 78.4454 192.295 77.8961C192.93 80.4041 193.608 82.8027 194.142 85.236C198.207 103.77 202.199 122.318 206.304 140.843C211.572 164.62 216.893 188.382 222.297 212.128C222.659 213.727 223.7 215.297 224.784 216.58C226.286 218.354 228.2 219.778 229.812 221.475C232.978 224.805 233.152 229.752 230.308 232.594C226.95 235.948 222.213 236.126 218.609 232.79C208.638 223.549 198.749 214.218 188.827 204.926C185.058 201.394 183.29 201.043 178.628 203.226C175.088 204.883 171.794 207.227 168.106 208.351C163.14 209.867 157.938 210.865 152.766 211.434C144.019 212.398 135.092 211.587 126.571 214.728C121.634 216.548 118.636 219.646 117.131 224.636C113.22 237.598 109.152 250.518 105.035 263.42C103.061 269.601 96.749 271.554 92.0695 267.539C89.0659 264.959 88.8339 261.709 89.8922 258.111C93.0553 247.36 96.7171 236.71 99.0887 225.783C101.272 215.734 102.217 205.4 103.388 195.156C105.035 180.752 106.389 166.314 107.859 151.89C107.911 151.367 107.865 150.832 107.865 149.805L107.871 149.808ZM162.647 191.339C168.46 189.406 173.313 187.867 178.115 186.179C184.728 183.855 190.66 184.799 195.829 189.593C202.364 195.653 208.853 201.765 215.373 207.839C216.037 208.458 216.788 208.987 217.498 209.556C217.704 209.433 217.91 209.312 218.119 209.188C214.434 192.475 210.749 175.759 207.067 159.046C206.484 158.635 205.904 158.223 205.321 157.812C204.901 158.873 204.73 160.145 204.023 160.961C199.671 165.986 195.296 170.999 190.738 175.837C187.198 179.596 182.203 180.295 177.535 178.057C175.32 176.996 173.177 175.773 170.904 174.859C168.04 173.708 165.123 174.775 164.453 177.712C163.511 181.851 163.293 186.153 162.647 191.339ZM105.606 205.768C113.139 200.301 120.135 195.314 126.98 190.131C127.786 189.521 128.218 187.77 128.058 186.657C126.162 173.495 120.926 161.416 115.435 149.445C115.084 148.683 113.846 148.321 113.02 147.771C112.495 148.62 111.605 149.425 111.503 150.32C110.28 160.987 109.164 171.663 108.036 182.342C107.236 189.915 106.464 197.494 105.606 205.771V205.768ZM196.055 103.66C195.765 103.735 194.603 103.81 194.313 103.888C195.206 109.369 200.448 141.596 201.341 147.078C201.947 146.969 203.712 146.86 204.318 146.75C203.112 141.303 197.264 109.111 196.058 103.663L196.055 103.66Z" fill="#A0A0A0"/>
<path d="M177.239 57.096C187.555 58.3759 197.059 59.5033 206.539 60.7976C207.713 60.9586 208.763 62.0113 209.87 62.6498C209.056 63.8089 208.496 65.3907 207.383 66.0522C202.976 68.6695 198.36 70.9359 193.892 73.4554C191.266 74.9366 188.636 75.5291 185.574 75.112C176.044 73.812 166.404 73.1505 156.967 71.4018C150.977 70.2916 146.596 72.9549 141.905 75.3651C133.869 79.4952 125.91 83.7806 117.873 87.905C116.751 88.4802 115.313 88.8858 114.084 88.7592C107.966 88.1265 101.863 87.347 95.7748 86.4669C94.763 86.3203 92.9915 85.2561 93.0611 84.911C93.3075 83.6886 93.9106 82.0837 94.8934 81.5373C101.817 77.6948 108.874 74.0824 115.881 70.3894C117.232 69.679 118.56 68.9284 119.85 67.4184C118.749 67.1912 117.656 66.8806 116.54 66.7454C108.1 65.7215 99.6512 64.781 91.2258 63.6622C90.2459 63.5328 88.6571 62.506 88.6368 61.8531C88.602 60.7976 89.3558 59.2186 90.2604 58.7124C95.9082 55.5544 101.649 52.5546 107.459 49.6986C108.648 49.1148 110.277 49.109 111.654 49.2643C122.544 50.4924 133.41 51.9305 144.312 53.0349C146.489 53.2564 149.038 52.8077 150.983 51.8241C160.745 46.8944 170.342 41.6397 180.06 36.6238C181.353 35.9565 183.055 35.6459 184.51 35.7811C190.41 36.3304 196.299 37.0494 202.167 37.8749C203.289 38.0331 204.301 38.9649 205.362 39.5402C204.64 40.751 204.217 42.4939 203.147 43.0893C195.551 47.3287 187.821 51.3322 180.138 55.4163C179.396 55.8104 178.683 56.2562 177.242 57.096H177.239Z" fill="#A0A0A0"/>
<path d="M150.841 132.196C158.194 132.196 164.178 138.133 164.178 145.427C164.178 152.72 158.194 158.657 150.841 158.657C143.488 158.657 137.504 152.72 137.504 145.427C137.504 138.133 143.488 132.196 150.841 132.196ZM150.841 128.17C141.233 128.17 133.445 135.895 133.445 145.427C133.445 154.958 141.233 162.683 150.841 162.683C160.449 162.683 168.237 154.958 168.237 145.427C168.237 135.895 160.449 128.17 150.841 128.17Z" fill="#A0A0A0"/>
</svg>
