<svg width="311" height="311" viewBox="0 0 311 311" fill="none" xmlns="http://www.w3.org/2000/svg">
<path d="M189.029 103.991H136.663V80.286C134.127 80.286 131.783 80.3146 129.447 80.2574C128.914 80.2479 128.18 80.0859 127.884 79.7141C124.93 76.1112 121.489 73.0993 117.266 70.7164C118.477 68.4861 119.64 66.3034 120.85 64.1397C121.775 62.4908 122.404 60.2795 123.833 59.4312C125.206 58.6115 127.436 59.1929 129.285 59.1834C152.428 59.1834 175.58 59.1834 198.722 59.1834C199.361 59.1834 199.999 59.1834 200.714 59.1834V80.2288H189.029V103.991Z" fill="#A0A0A0"/>
<path d="M100.348 133.224C82.7909 133.233 68.6463 119.098 68.6367 101.532C68.6272 83.9747 82.7909 69.7919 100.319 69.8014C117.895 69.8014 132.03 83.9461 132.021 101.503C132.011 119.117 117.943 133.214 100.357 133.224H100.348ZM125.378 101.541C125.378 87.7301 114.188 76.4925 100.396 76.4448C86.5845 76.3972 75.2516 87.7301 75.2706 101.57C75.2897 115.352 86.5749 126.609 100.338 126.59C114.14 126.571 125.368 115.333 125.368 101.541H125.378Z" fill="#A0A0A0"/>
<path d="M164.152 203.833C159.748 203.833 155.335 203.833 150.931 203.833C149.139 203.833 146.499 201.193 146.499 199.382C146.499 193.672 146.499 187.963 146.499 182.254C146.499 180.738 149.016 178.126 150.56 178.117C159.624 178.098 168.688 178.098 177.753 178.117C179.392 178.117 181.89 180.71 181.89 182.33C181.89 187.992 181.89 193.644 181.89 199.305C181.89 201.202 179.268 203.823 177.381 203.833C172.978 203.833 168.565 203.833 164.161 203.833H164.152Z" fill="#A0A0A0"/>
<path d="M163.332 144.023C167.735 144.023 172.148 144.023 176.552 144.023C178.573 144.023 180.936 146.387 180.936 148.388C180.936 154.002 180.936 159.607 180.936 165.221C180.936 167.099 178.296 169.72 176.399 169.72C167.631 169.72 158.871 169.72 150.102 169.72C148.224 169.72 145.556 167.08 145.556 165.211C145.556 159.55 145.556 153.888 145.556 148.236C145.556 146.492 148.015 144.032 149.797 144.032C154.306 144.023 158.814 144.032 163.322 144.032L163.332 144.023Z" fill="#A0A0A0"/>
<path d="M163.217 134.892C159.91 134.892 156.603 134.777 153.305 134.93C151.132 135.025 149.416 134.396 147.643 133.157C146.08 132.061 145.594 131.117 146.032 129.163C147.224 123.845 148.081 118.45 149.149 113.103C149.263 112.512 149.721 111.854 150.217 111.502C151.398 110.663 152.666 109.948 153.953 109.271C154.458 109.004 155.078 108.833 155.649 108.823C160.711 108.785 165.772 108.709 170.824 108.871C172.053 108.909 173.245 109.862 174.474 110.358C176.609 111.216 177.562 112.683 177.896 115.057C178.62 120.204 179.726 125.294 180.727 130.402C180.908 131.317 180.612 131.785 179.917 132.385C177.639 134.358 175.141 135.187 172.091 134.93C169.156 134.682 166.182 134.873 163.227 134.873L163.217 134.892Z" fill="#A0A0A0"/>
<path d="M163.256 213.746C167.659 213.746 172.072 213.746 176.476 213.746C178.725 213.746 181.051 216.462 180.603 218.607C179.411 224.392 178.201 230.168 176.99 235.944C176.743 237.126 173.988 239.023 172.434 239.033C166.325 239.052 160.215 239.061 154.096 239.033C152.037 239.023 149.74 237.06 149.33 235.077C148.158 229.396 146.966 223.715 145.861 218.016C145.756 217.463 146.032 216.71 146.366 216.205C147.681 214.203 149.521 213.536 151.97 213.679C155.716 213.898 159.481 213.736 163.237 213.736L163.256 213.746Z" fill="#A0A0A0"/>
<path d="M192.546 169.72V144.099C193.108 144.071 193.632 144.032 194.166 144.032C197.674 144.032 201.191 144.166 204.689 143.994C208.32 143.813 211.666 144.557 215.04 145.872C217.194 146.711 217.947 147.826 218.033 150.066C218.243 155.213 218.729 160.36 219.1 165.497C219.139 166.088 219.1 166.689 219.1 167.489C215.993 168.242 213.048 169.796 209.645 169.739C204.736 169.663 199.828 169.72 194.919 169.72C194.176 169.72 193.432 169.72 192.555 169.72H192.546Z" fill="#A0A0A0"/>
<path d="M133.994 169.643C133.413 169.672 132.974 169.72 132.526 169.72C127.017 169.72 121.508 169.748 116.008 169.691C115.274 169.691 114.464 169.358 113.844 168.938C112.605 168.099 111.557 166.956 110.27 166.212C108.612 165.24 108.392 163.963 108.64 162.218C109.307 157.567 109.86 152.897 110.404 148.226C110.547 147.006 111.061 146.377 112.196 145.815C115.15 144.347 118.2 143.87 121.47 143.994C125.606 144.147 129.752 144.032 133.984 144.032V169.643H133.994Z" fill="#A0A0A0"/>
<path d="M109.527 180.929C113.187 179.937 116.466 177.898 120.459 178.06C124.71 178.241 128.971 178.098 133.222 178.107C133.756 178.107 134.299 178.155 134.899 178.184V203.728C134.471 203.766 134.08 203.823 133.698 203.823C128.094 203.823 122.48 203.861 116.875 203.785C116.199 203.785 115.436 203.309 114.864 202.861C111.871 200.506 111.128 197.237 110.909 193.606C110.651 189.421 110.013 185.266 109.517 180.929H109.527Z" fill="#A0A0A0"/>
<path d="M193.47 203.833V178.212C193.975 178.174 194.414 178.117 194.852 178.117C199.856 178.117 204.879 177.86 209.864 178.222C212.476 178.412 215.021 179.671 217.566 180.519C217.814 180.605 218.023 181.253 218.004 181.625C217.623 187.315 217.232 193.005 216.737 198.686C216.679 199.372 215.898 199.973 215.498 200.64C213.896 203.337 211.599 204.09 208.482 203.909C203.545 203.623 198.589 203.833 193.48 203.833H193.47Z" fill="#A0A0A0"/>
<path d="M90.8641 135.445C93.1421 135.864 95.239 136.255 97.4027 136.655C92.1413 164.944 94.4765 192.023 109.727 217.291C107.925 218.426 106.124 219.55 104.065 220.846C88.0142 194.092 85.1833 165.45 90.8546 135.445H90.8641Z" fill="#A0A0A0"/>
<path d="M189.143 244.265C188.971 248.554 186.798 251.538 183.701 253.978C183.396 254.216 182.852 254.235 182.423 254.235C170.004 254.254 157.584 254.254 145.165 254.235C144.736 254.235 144.202 254.197 143.897 253.959C140.818 251.5 138.636 248.516 138.483 244.265H189.153H189.143Z" fill="#A0A0A0"/>
<path d="M211.771 131.966C210.884 132.738 209.979 133.605 208.988 134.358C208.587 134.663 208.006 134.863 207.51 134.863C202.458 134.901 197.397 134.882 192.346 134.882C191.678 134.882 191.116 134.93 190.944 133.977C189.562 125.894 188.123 117.821 186.703 109.748C186.665 109.509 186.665 109.271 186.636 108.804C190.087 109.872 193.508 110.062 196.377 112.712C202.392 118.259 207.787 124.217 211.771 131.956V131.966Z" fill="#A0A0A0"/>
<path d="M186.522 239.042C188.533 230.473 190.487 222.171 192.45 213.831H211.58C211.837 215.871 211.685 217.539 210.15 219.198C204.431 225.412 198.913 231.817 193.261 238.108C192.803 238.613 191.945 238.937 191.24 239.004C189.763 239.137 188.257 239.042 186.522 239.042Z" fill="#A0A0A0"/>
<path d="M134.089 213.831C136.043 222.162 138.007 230.473 140.008 239.004C138.016 239.004 136.139 239.042 134.28 238.975C133.965 238.966 133.632 238.556 133.374 238.26C127.427 231.56 121.498 224.84 115.522 218.159C114.321 216.815 115.026 215.347 114.817 213.831H134.089Z" fill="#A0A0A0"/>
<path d="M116.132 133.405C119.277 130.965 122.194 129.011 124.739 126.657C129.324 122.434 132.335 117.163 134.061 111.177C134.299 110.367 134.671 110.034 135.433 109.881C136.882 109.586 138.321 109.204 139.989 108.814C139.398 112.255 138.865 115.486 138.293 118.717C137.416 123.683 136.482 128.649 135.672 133.624C135.5 134.663 135.119 134.92 134.137 134.911C129.133 134.873 124.129 134.978 119.134 134.825C118.115 134.796 117.123 133.9 116.122 133.405H116.132Z" fill="#A0A0A0"/>
<path d="M113.139 83.4981C114.769 85.2328 116.227 86.7865 117.648 88.2829C115.551 91.6856 113.501 94.8215 111.652 98.0622C107.334 105.64 103.97 113.656 101.33 121.958C101.006 122.987 100.519 123.33 99.5187 123.178C97.803 122.92 96.0873 122.682 94.2001 122.406C98.4988 108.49 104.389 95.6698 113.149 83.4886L113.139 83.4981Z" fill="#A0A0A0"/>
<circle cx="155.107" cy="155.699" r="151" stroke="#A0A0A0" stroke-width="8"/>
<circle cx="155.108" cy="155.698" r="136.948" stroke="#A0A0A0" stroke-width="4" stroke-dasharray="8 8"/>
</svg>
