<svg width="311" height="311" viewBox="0 0 311 311" fill="none" xmlns="http://www.w3.org/2000/svg">
<path d="M81.6973 244.459C79.7767 239.381 78.9513 234.454 80.5455 228.869C86.1849 209.108 91.2073 189.174 96.6698 169.361C98.0144 164.482 97.4134 160.611 93.4624 157.144C90.6077 154.641 90.8871 153.329 94.7026 152.516C97.1192 151.999 98.9983 151.031 100.433 149.697L121.444 155.327C122.007 157.297 123.14 159.176 125.119 160.951C127.686 163.253 127.227 164.602 123.851 165.128C118.133 166.023 116.033 169.65 114.755 174.679C109.57 195.054 104.078 215.351 98.9524 235.74C97.5691 241.241 93.3123 244.11 89.5347 247.421C87.642 249.083 82.6535 246.978 81.7006 244.455L81.6973 244.459ZM111.557 169.238C112.271 166.57 110.664 163.824 107.965 163.1C105.266 162.377 102.501 163.952 101.786 166.62C101.072 169.287 102.679 172.034 105.378 172.757C108.077 173.48 110.842 171.905 111.557 169.238ZM107.992 182.542C108.706 179.875 107.099 177.128 104.4 176.405C101.701 175.682 98.9361 177.257 98.2214 179.924C97.5066 182.592 99.114 185.338 101.813 186.062C104.512 186.785 107.277 185.21 107.992 182.542ZM104.427 195.847C105.142 193.179 103.534 190.433 100.835 189.71C98.1365 188.986 95.3711 190.561 94.6564 193.229C93.9417 195.896 95.5491 198.643 98.2479 199.366C100.947 200.089 103.712 198.514 104.427 195.847ZM100.862 209.151C101.577 206.484 99.9692 203.737 97.2704 203.014C94.5716 202.291 91.8062 203.866 91.0915 206.533C90.3768 209.201 91.9841 211.947 94.6829 212.671C97.3817 213.394 100.147 211.819 100.862 209.151ZM97.2969 222.456C98.0116 219.789 96.4042 217.042 93.7054 216.319C91.0066 215.595 88.2412 217.171 87.5265 219.838C86.8118 222.505 88.4192 225.252 91.118 225.975C93.8168 226.698 96.5822 225.123 97.2969 222.456ZM93.732 235.76C94.4467 233.093 92.8393 230.346 90.1405 229.623C87.4417 228.9 84.6763 230.475 83.9616 233.142C83.2469 235.81 84.8542 238.557 87.553 239.28C90.2518 240.003 93.0172 238.428 93.732 235.76Z" fill="#A0A0A0"/>
<path d="M102.899 146.218C103.412 145.095 103.785 143.859 104.033 142.523C106.303 130.405 108.727 118.292 110.287 106.072C111.784 94.3357 115.697 83.4659 120.577 72.9034C124.096 65.2858 128.326 57.9852 132.399 50.6336C135.476 45.0846 138.81 39.6761 142.03 34.205C142.385 34.2081 142.741 34.2113 143.096 34.2145C143.826 39.325 144.782 44.4157 145.242 49.5485C146.693 65.6482 145.831 81.6136 141.719 97.2717C140.887 100.437 139.302 103.443 137.789 106.382C131.307 118.976 125.504 131.826 121.953 145.594C121.468 147.472 121.1 149.299 121.009 151.071L102.897 146.218L102.899 146.218Z" fill="#A0A0A0"/>
<path d="M64.5672 221.694C68.0044 217.492 71.8585 214.313 77.4923 212.901C97.4258 207.905 117.2 202.287 137.09 197.112C141.988 195.836 145.039 193.38 146.066 188.225C146.807 184.501 148.083 184.087 150.695 186.985C152.35 188.82 154.129 189.963 156.001 190.539L161.631 211.549C160.206 213.023 159.145 214.943 158.598 217.544C157.887 220.918 156.49 221.195 154.346 218.535C150.713 214.03 146.521 214.025 141.528 215.433C121.29 221.13 100.965 226.522 80.7453 232.278C75.2895 233.83 70.6771 231.578 65.9203 229.962C63.5349 229.154 62.8635 223.782 64.5721 221.695L64.5672 221.694ZM144.64 209.942C147.308 209.227 148.883 206.462 148.16 203.763C147.436 201.064 144.69 199.457 142.022 200.172C139.355 200.887 137.78 203.652 138.503 206.351C139.226 209.05 141.973 210.657 144.64 209.942ZM131.336 213.507C134.003 212.792 135.578 210.027 134.855 207.328C134.132 204.629 131.385 203.022 128.718 203.737C126.05 204.451 124.475 207.217 125.198 209.916C125.922 212.614 128.668 214.222 131.336 213.507ZM118.031 217.072C120.699 216.357 122.274 213.592 121.55 210.893C120.827 208.194 118.081 206.587 115.413 207.302C112.746 208.016 111.171 210.782 111.894 213.481C112.617 216.179 115.364 217.787 118.031 217.072ZM104.727 220.637C107.394 219.922 108.969 217.157 108.246 214.458C107.523 211.759 104.776 210.152 102.109 210.867C99.4413 211.581 97.8662 214.347 98.5894 217.046C99.3125 219.744 102.059 221.352 104.727 220.637ZM91.4221 224.202C94.0894 223.487 95.6645 220.722 94.9414 218.023C94.2182 215.324 91.4715 213.717 88.8041 214.432C86.1368 215.146 84.5617 217.912 85.2848 220.61C86.008 223.309 88.7547 224.917 91.4221 224.202ZM78.1175 227.767C80.7849 227.052 82.36 224.287 81.6368 221.588C80.9137 218.889 78.1669 217.282 75.4996 217.997C72.8322 218.711 71.2571 221.477 71.9803 224.175C72.7034 226.874 75.4502 228.482 78.1175 227.767Z" fill="#A0A0A0"/>
<path d="M160.247 190.935C161.476 190.817 162.733 190.522 164.015 190.069C175.644 185.976 187.346 182.019 198.709 177.259C209.621 172.688 220.991 170.642 232.578 169.587C240.935 168.826 249.372 168.838 257.776 168.69C264.119 168.58 270.47 168.763 276.819 168.817C276.994 169.126 277.169 169.435 277.343 169.744C273.282 172.931 269.352 176.305 265.137 179.27C251.919 188.576 237.662 195.812 222.046 200.081C218.889 200.943 215.492 201.073 212.191 201.232C198.043 201.916 184.013 203.316 170.314 207.124C168.445 207.643 166.679 208.237 165.099 209.045L160.246 190.932L160.247 190.935Z" fill="#A0A0A0"/>
<path fill-rule="evenodd" clip-rule="evenodd" d="M155.107 302.699C236.293 302.699 302.107 236.885 302.107 155.699C302.107 74.5134 236.293 8.69922 155.107 8.69922C73.9216 8.69922 8.10742 74.5134 8.10742 155.699C8.10742 236.885 73.9216 302.699 155.107 302.699ZM155.107 310.699C240.712 310.699 310.107 241.303 310.107 155.699C310.107 70.0951 240.712 0.699219 155.107 0.699219C69.5033 0.699219 0.107422 70.0951 0.107422 155.699C0.107422 241.303 69.5033 310.699 155.107 310.699Z" fill="#A0A0A0"/>
<path fill-rule="evenodd" clip-rule="evenodd" d="M294.003 159.606C294.039 158.308 294.057 157.005 294.057 155.698C294.057 154.391 294.039 153.089 294.003 151.791L290.004 151.901C290.039 153.162 290.057 154.428 290.057 155.698C290.057 156.968 290.039 158.234 290.004 159.495L294.003 159.606ZM293.572 167.387L289.586 167.055C289.375 169.583 289.095 172.091 288.747 174.578L292.708 175.132C293.067 172.572 293.355 169.99 293.572 167.387ZM291.412 182.816L287.488 182.039C286.996 184.524 286.437 186.984 285.811 189.417L289.685 190.414C290.329 187.908 290.906 185.374 291.412 182.816ZM287.53 197.907L283.718 196.693C282.95 199.105 282.116 201.488 281.218 203.839L284.955 205.266C285.88 202.845 286.739 200.391 287.53 197.907ZM281.969 212.466L278.319 210.83C277.285 213.138 276.188 215.411 275.03 217.648L278.582 219.486C279.774 217.183 280.904 214.842 281.969 212.466ZM274.806 226.305L271.362 224.269C270.077 226.444 268.731 228.58 267.329 230.675L270.653 232.9C272.097 230.743 273.482 228.544 274.806 226.305ZM266.137 239.253L262.943 236.846C261.422 238.863 259.847 240.836 258.218 242.763L261.273 245.345C262.95 243.361 264.572 241.33 266.137 239.253ZM256.077 251.155L253.171 248.407C251.436 250.241 249.651 252.026 247.817 253.761L250.565 256.667C252.453 254.881 254.291 253.043 256.077 251.155ZM244.755 261.863L242.173 258.808C240.246 260.437 238.273 262.012 236.256 263.533L238.664 266.727C240.74 265.162 242.771 263.54 244.755 261.863ZM232.31 271.243L230.085 267.919C227.99 269.321 225.854 270.666 223.679 271.952L225.715 275.396C227.954 274.072 230.154 272.687 232.31 271.243ZM218.897 279.172L217.058 275.62C214.821 276.777 212.548 277.874 210.241 278.909L211.876 282.559C214.253 281.494 216.593 280.364 218.897 279.172ZM204.676 285.545L203.249 281.808C200.898 282.706 198.515 283.54 196.104 284.308L197.317 288.12C199.801 287.328 202.255 286.469 204.676 285.545ZM189.824 290.275L188.828 286.401C186.394 287.027 183.934 287.586 181.45 288.078L182.226 292.002C184.785 291.496 187.318 290.919 189.824 290.275ZM174.542 293.298L173.988 289.337C171.502 289.685 168.993 289.965 166.465 290.176L166.797 294.162C169.4 293.945 171.982 293.656 174.542 293.298ZM159.016 294.593L158.906 290.594C157.644 290.629 156.378 290.646 155.108 290.646C153.838 290.646 152.573 290.629 151.311 290.594L151.201 294.593C152.499 294.628 153.802 294.646 155.108 294.646C156.415 294.646 157.718 294.628 159.016 294.593ZM143.419 294.162L143.752 290.176C141.223 289.965 138.715 289.685 136.229 289.337L135.675 293.298C138.235 293.656 140.817 293.945 143.419 294.162ZM127.991 292.002L128.767 288.078C126.283 287.586 123.823 287.027 121.389 286.401L120.393 290.275C122.899 290.919 125.432 291.496 127.991 292.002ZM112.899 288.12L114.113 284.308C111.701 283.54 109.319 282.706 106.968 281.808L105.541 285.545C107.962 286.469 110.415 287.328 112.899 288.12ZM98.3403 282.559L99.9762 278.909C97.6689 277.874 95.3958 276.777 93.1591 275.62L91.3202 279.172C93.6234 280.364 95.9642 281.494 98.3403 282.559ZM84.5021 275.396L86.5376 271.952C84.3625 270.666 82.2265 269.321 80.1319 267.919L77.9066 271.243C80.0632 272.687 82.2624 274.072 84.5021 275.396ZM71.5532 266.727L73.9609 263.533C71.9439 262.012 69.9708 260.437 68.044 258.808L65.4618 261.863C67.4454 263.54 69.4767 265.162 71.5532 266.727ZM59.6514 256.667L62.3999 253.761C60.5659 252.026 58.7804 250.241 57.0459 248.407L54.1397 251.155C55.9254 253.043 57.7633 254.881 59.6514 256.667ZM48.9438 245.345L51.9986 242.763C50.37 240.836 48.7943 238.863 47.274 236.846L44.0798 239.253C45.645 241.33 47.2671 243.361 48.9438 245.345ZM39.5638 232.9L42.8877 230.675C41.4854 228.58 40.1402 226.444 38.8544 224.269L35.4111 226.305C36.735 228.544 38.1201 230.743 39.5638 232.9ZM31.6348 219.486L35.1871 217.648C34.0293 215.411 32.9322 213.138 31.8981 210.83L28.2479 212.466C29.3129 214.842 30.4426 217.183 31.6348 219.486ZM25.262 205.266L28.9987 203.839C28.1007 201.488 27.2666 199.105 26.4985 196.693L22.6871 197.907C23.4782 200.391 24.3372 202.845 25.262 205.266ZM20.5321 190.414L24.406 189.417C23.7801 186.984 23.2204 184.524 22.7289 182.039L18.8049 182.816C19.3111 185.374 19.8875 187.908 20.5321 190.414ZM17.5084 175.132L21.4698 174.578C21.1219 172.091 20.8416 169.583 20.6311 167.055L16.6449 167.387C16.8616 169.99 17.1502 172.572 17.5084 175.132ZM16.214 159.606C16.1782 158.308 16.1602 157.005 16.1602 155.698C16.1602 154.391 16.1782 153.089 16.214 151.791L20.2125 151.901C20.1777 153.162 20.1602 154.428 20.1602 155.698C20.1602 156.968 20.1777 158.234 20.2125 159.495L16.214 159.606ZM16.6449 144.009L20.6311 144.341C20.8416 141.813 21.1219 139.305 21.4698 136.819L17.5084 136.265C17.1502 138.824 16.8616 141.407 16.6449 144.009ZM18.8049 128.581L22.7289 129.357C23.2204 126.872 23.7801 124.412 24.406 121.979L20.5321 120.983C19.8875 123.489 19.3111 126.022 18.8049 128.581ZM22.6871 113.489L26.4985 114.703C27.2666 112.291 28.1007 109.909 28.9987 107.558L25.262 106.131C24.3372 108.552 23.4782 111.005 22.6871 113.489ZM28.2479 98.9302L31.8981 100.566C32.9322 98.2587 34.0293 95.9856 35.1871 93.7489L31.6348 91.9101C30.4426 94.2132 29.3129 96.554 28.2479 98.9302ZM35.4111 85.0919L38.8544 87.1274C40.1402 84.9523 41.4854 82.8163 42.8877 80.7217L39.5638 78.4964C38.12 80.653 36.735 82.8523 35.4111 85.0919ZM44.0797 72.1431L47.274 74.5507C48.7943 72.5337 50.3699 70.5606 51.9986 68.6338L48.9438 66.0516C47.2671 68.0352 45.645 70.0665 44.0797 72.1431ZM54.1397 60.2412L57.0459 62.9897C58.7804 61.1557 60.5658 59.3703 62.3999 57.6358L59.6514 54.7296C57.7633 56.5152 55.9253 58.3532 54.1397 60.2412ZM65.4618 49.5336L68.044 52.5885C69.9708 50.9598 71.9439 49.3842 73.9609 47.8638L71.5532 44.6696C69.4767 46.2348 67.4454 47.8569 65.4618 49.5336ZM77.9066 40.1537L80.1319 43.4776C82.2265 42.0753 84.3624 40.7301 86.5376 39.4443L84.502 36.0009C82.2624 37.3249 80.0632 38.7099 77.9066 40.1537ZM91.3202 32.2247L93.1591 35.7769C95.3957 34.6191 97.6689 33.5221 99.9762 32.488L98.3403 28.8378C95.9642 29.9027 93.6234 31.0324 91.3202 32.2247ZM105.541 25.8518L106.968 29.5885C109.319 28.6905 111.701 27.8565 114.113 27.0884L112.899 23.277C110.415 24.068 107.962 24.927 105.541 25.8518ZM120.393 21.122L121.389 24.9959C123.823 24.37 126.283 23.8102 128.767 23.3187L127.991 19.3947C125.432 19.9009 122.899 20.4774 120.393 21.122ZM135.675 18.0983L136.229 22.0597C138.715 21.7117 141.223 21.4315 143.752 21.2209L143.419 17.2347C140.817 17.4515 138.235 17.74 135.675 18.0983ZM151.201 16.8039L151.311 20.8024C152.573 20.7675 153.838 20.75 155.108 20.75C156.378 20.75 157.644 20.7675 158.906 20.8024L159.016 16.8039C157.718 16.768 156.415 16.75 155.108 16.75C153.802 16.75 152.499 16.768 151.201 16.8039ZM166.797 17.2347L166.465 21.2209C168.993 21.4315 171.502 21.7117 173.988 22.0596L174.542 18.0983C171.982 17.74 169.4 17.4515 166.797 17.2347ZM182.226 19.3947L181.45 23.3187C183.934 23.8102 186.394 24.37 188.828 24.9959L189.824 21.122C187.318 20.4774 184.785 19.9009 182.226 19.3947ZM197.317 23.277L196.104 27.0884C198.515 27.8565 200.898 28.6905 203.249 29.5885L204.676 25.8518C202.255 24.927 199.801 24.068 197.317 23.277ZM211.876 28.8378L210.241 32.488C212.548 33.5221 214.821 34.6191 217.058 35.7769L218.897 32.2247C216.593 31.0324 214.253 29.9027 211.876 28.8378ZM225.715 36.0009L223.679 39.4443C225.854 40.7301 227.99 42.0753 230.085 43.4776L232.31 40.1537C230.154 38.7099 227.954 37.3249 225.715 36.0009ZM238.664 44.6696L236.256 47.8638C238.273 49.3842 240.246 50.9598 242.173 52.5885L244.755 49.5336C242.771 47.8569 240.74 46.2348 238.664 44.6696ZM250.565 54.7296L247.817 57.6358C249.651 59.3703 251.436 61.1557 253.171 62.9897L256.077 60.2412C254.291 58.3532 252.453 56.5152 250.565 54.7296ZM261.273 66.0516L258.218 68.6338C259.847 70.5606 261.422 72.5337 262.943 74.5507L266.137 72.1431C264.572 70.0665 262.95 68.0352 261.273 66.0516ZM270.653 78.4964L267.329 80.7217C268.731 82.8163 270.077 84.9523 271.362 87.1274L274.806 85.0919C273.482 82.8522 272.097 80.653 270.653 78.4964ZM278.582 91.9101L275.03 93.7489C276.188 95.9856 277.285 98.2587 278.319 100.566L281.969 98.9302C280.904 96.554 279.774 94.2132 278.582 91.9101ZM284.955 106.131L281.218 107.558C282.116 109.909 282.95 112.291 283.718 114.703L287.53 113.489C286.739 111.005 285.88 108.552 284.955 106.131ZM289.685 120.983L285.811 121.979C286.437 124.412 286.996 126.872 287.488 129.357L291.412 128.581C290.906 126.022 290.329 123.489 289.685 120.983ZM292.708 136.265L288.747 136.819C289.095 139.305 289.375 141.813 289.586 144.341L293.572 144.009C293.355 141.407 293.067 138.824 292.708 136.265Z" fill="#A0A0A0"/>
<path d="M77.3741 227.864C78.2703 222.38 80.0602 217.59 84.3318 213.455C99.4448 198.824 114.099 183.724 129.082 168.956C132.771 165.319 134.219 161.58 132.491 156.485C131.242 152.804 132.161 151.784 135.959 153.016C138.366 153.795 140.527 153.899 142.481 153.451L158.225 169.194C157.716 171.229 157.759 173.475 158.605 176.061C159.702 179.415 158.605 180.376 155.343 179.115C149.817 176.982 146.098 179.122 142.392 182.926C127.368 198.334 112.111 213.516 97.1322 228.967C93.0905 233.135 87.8491 233.499 82.8054 234.501C80.2771 235.006 76.9323 230.587 77.3789 227.863L77.3741 227.864ZM142.341 176.465C144.34 174.467 144.321 171.209 142.299 169.187C140.276 167.165 137.019 167.146 135.02 169.144C133.021 171.143 133.041 174.4 135.063 176.423C137.085 178.445 140.343 178.464 142.341 176.465ZM132.372 186.435C134.371 184.436 134.352 181.179 132.329 179.156C130.307 177.134 127.049 177.115 125.051 179.114C123.052 181.112 123.071 184.37 125.093 186.392C127.116 188.414 130.373 188.434 132.372 186.435ZM122.403 196.404C124.401 194.406 124.382 191.148 122.36 189.126C120.338 187.103 117.08 187.084 115.081 189.083C113.083 191.082 113.102 194.339 115.124 196.362C117.146 198.384 120.404 198.403 122.403 196.404ZM112.433 206.374C114.432 204.375 114.413 201.117 112.39 199.095C110.368 197.073 107.111 197.054 105.112 199.053C103.113 201.051 103.132 204.309 105.155 206.331C107.177 208.353 110.434 208.372 112.433 206.374ZM102.464 216.343C104.462 214.344 104.443 211.087 102.421 209.065C100.399 207.042 97.1411 207.023 95.1424 209.022C93.1437 211.021 93.1628 214.278 95.1851 216.301C97.2073 218.323 100.465 218.342 102.464 216.343ZM92.4942 226.313C94.4929 224.314 94.4738 221.056 92.4515 219.034C90.4292 217.012 87.1717 216.993 85.173 218.991C83.1742 220.99 83.1933 224.248 85.2156 226.27C87.2379 228.292 90.4954 228.311 92.4942 226.313Z" fill="#A0A0A0"/>
<path d="M146.448 151.628C147.477 150.895 148.441 149.99 149.345 148.933C157.559 139.353 165.907 129.856 173.544 119.821C180.877 110.184 189.909 102.551 199.641 95.6854C206.659 90.7336 214.145 86.4267 221.519 81.9946C227.086 78.6501 232.81 75.562 238.465 72.3604C238.778 72.545 239.091 72.7296 239.404 72.9142C237.436 77.8179 235.678 82.8199 233.459 87.6058C226.505 102.62 217.57 116.331 205.911 128.107C203.554 130.487 200.61 132.341 197.764 134.172C185.573 142.019 173.853 150.44 163.658 160.827C162.267 162.244 161.006 163.674 160.018 165.199L146.446 151.627L146.448 151.628Z" fill="#A0A0A0"/>
</svg>
