<svg width="311" height="311" viewBox="0 0 311 311" fill="none" xmlns="http://www.w3.org/2000/svg">
<path fill-rule="evenodd" clip-rule="evenodd" d="M155.107 302.698C236.293 302.698 302.107 236.884 302.107 155.698C302.107 74.5124 236.293 8.69824 155.107 8.69824C73.9216 8.69824 8.10742 74.5124 8.10742 155.698C8.10742 236.884 73.9216 302.698 155.107 302.698ZM155.107 310.698C240.712 310.698 310.107 241.302 310.107 155.698C310.107 70.0941 240.712 0.698242 155.107 0.698242C69.5033 0.698242 0.107422 70.0941 0.107422 155.698C0.107422 241.302 69.5033 310.698 155.107 310.698Z" fill="#A0A0A0"/>
<path fill-rule="evenodd" clip-rule="evenodd" d="M294.003 159.606C294.039 158.308 294.057 157.005 294.057 155.698C294.057 154.391 294.039 153.089 294.003 151.791L290.004 151.901C290.039 153.162 290.057 154.428 290.057 155.698C290.057 156.968 290.039 158.234 290.004 159.495L294.003 159.606ZM293.572 167.387L289.586 167.055C289.375 169.583 289.095 172.091 288.747 174.578L292.708 175.132C293.067 172.572 293.355 169.99 293.572 167.387ZM291.412 182.816L287.488 182.039C286.996 184.524 286.437 186.984 285.811 189.417L289.685 190.414C290.329 187.908 290.906 185.374 291.412 182.816ZM287.53 197.907L283.718 196.693C282.95 199.105 282.116 201.488 281.218 203.839L284.955 205.266C285.88 202.845 286.739 200.391 287.53 197.907ZM281.969 212.466L278.319 210.83C277.285 213.138 276.188 215.411 275.03 217.648L278.582 219.486C279.774 217.183 280.904 214.842 281.969 212.466ZM274.806 226.305L271.362 224.269C270.077 226.444 268.731 228.58 267.329 230.675L270.653 232.9C272.097 230.743 273.482 228.544 274.806 226.305ZM266.137 239.253L262.943 236.846C261.422 238.863 259.847 240.836 258.218 242.763L261.273 245.345C262.95 243.361 264.572 241.33 266.137 239.253ZM256.077 251.155L253.171 248.407C251.436 250.241 249.651 252.026 247.817 253.761L250.565 256.667C252.453 254.881 254.291 253.043 256.077 251.155ZM244.755 261.863L242.173 258.808C240.246 260.437 238.273 262.012 236.256 263.533L238.664 266.727C240.74 265.162 242.771 263.54 244.755 261.863ZM232.31 271.243L230.085 267.919C227.99 269.321 225.854 270.666 223.679 271.952L225.715 275.396C227.954 274.072 230.154 272.687 232.31 271.243ZM218.897 279.172L217.058 275.62C214.821 276.777 212.548 277.874 210.241 278.909L211.876 282.559C214.253 281.494 216.593 280.364 218.897 279.172ZM204.676 285.545L203.249 281.808C200.898 282.706 198.515 283.54 196.104 284.308L197.317 288.12C199.801 287.328 202.255 286.469 204.676 285.545ZM189.824 290.275L188.828 286.401C186.394 287.027 183.934 287.586 181.45 288.078L182.226 292.002C184.785 291.496 187.318 290.919 189.824 290.275ZM174.542 293.298L173.988 289.337C171.502 289.685 168.993 289.965 166.465 290.176L166.797 294.162C169.4 293.945 171.982 293.656 174.542 293.298ZM159.016 294.593L158.906 290.594C157.644 290.629 156.378 290.646 155.108 290.646C153.838 290.646 152.573 290.629 151.311 290.594L151.201 294.593C152.499 294.628 153.802 294.646 155.108 294.646C156.415 294.646 157.718 294.628 159.016 294.593ZM143.419 294.162L143.752 290.176C141.223 289.965 138.715 289.685 136.229 289.337L135.675 293.298C138.235 293.656 140.817 293.945 143.419 294.162ZM127.991 292.002L128.767 288.078C126.283 287.586 123.823 287.027 121.389 286.401L120.393 290.275C122.899 290.919 125.432 291.496 127.991 292.002ZM112.899 288.12L114.113 284.308C111.701 283.54 109.319 282.706 106.968 281.808L105.541 285.545C107.962 286.469 110.415 287.328 112.899 288.12ZM98.3403 282.559L99.9762 278.909C97.6689 277.874 95.3958 276.777 93.1591 275.62L91.3202 279.172C93.6234 280.364 95.9642 281.494 98.3403 282.559ZM84.5021 275.396L86.5376 271.952C84.3625 270.666 82.2265 269.321 80.1319 267.919L77.9066 271.243C80.0632 272.687 82.2624 274.072 84.5021 275.396ZM71.5532 266.727L73.9609 263.533C71.9439 262.012 69.9708 260.437 68.044 258.808L65.4618 261.863C67.4454 263.54 69.4767 265.162 71.5532 266.727ZM59.6514 256.667L62.3999 253.761C60.5659 252.026 58.7804 250.241 57.0459 248.407L54.1397 251.155C55.9254 253.043 57.7633 254.881 59.6514 256.667ZM48.9438 245.345L51.9986 242.763C50.37 240.836 48.7943 238.863 47.274 236.846L44.0798 239.253C45.645 241.33 47.2671 243.361 48.9438 245.345ZM39.5638 232.9L42.8877 230.675C41.4854 228.58 40.1402 226.444 38.8544 224.269L35.4111 226.305C36.735 228.544 38.1201 230.743 39.5638 232.9ZM31.6348 219.486L35.1871 217.648C34.0293 215.411 32.9322 213.138 31.8981 210.83L28.2479 212.466C29.3129 214.842 30.4426 217.183 31.6348 219.486ZM25.262 205.266L28.9987 203.839C28.1007 201.488 27.2666 199.105 26.4985 196.693L22.6871 197.907C23.4782 200.391 24.3372 202.845 25.262 205.266ZM20.5321 190.414L24.406 189.417C23.7801 186.984 23.2204 184.524 22.7289 182.039L18.8049 182.816C19.3111 185.374 19.8875 187.908 20.5321 190.414ZM17.5084 175.132L21.4698 174.578C21.1219 172.091 20.8416 169.583 20.6311 167.055L16.6449 167.387C16.8616 169.99 17.1502 172.572 17.5084 175.132ZM16.214 159.606C16.1782 158.308 16.1602 157.005 16.1602 155.698C16.1602 154.391 16.1782 153.089 16.214 151.791L20.2125 151.901C20.1777 153.162 20.1602 154.428 20.1602 155.698C20.1602 156.968 20.1777 158.234 20.2125 159.495L16.214 159.606ZM16.6449 144.009L20.6311 144.341C20.8416 141.813 21.1219 139.305 21.4698 136.819L17.5084 136.265C17.1502 138.824 16.8616 141.407 16.6449 144.009ZM18.8049 128.581L22.7289 129.357C23.2204 126.872 23.7801 124.412 24.406 121.979L20.5321 120.983C19.8875 123.489 19.3111 126.022 18.8049 128.581ZM22.6871 113.489L26.4985 114.703C27.2666 112.291 28.1007 109.909 28.9987 107.558L25.262 106.131C24.3372 108.552 23.4782 111.005 22.6871 113.489ZM28.2479 98.9302L31.8981 100.566C32.9322 98.2587 34.0293 95.9856 35.1871 93.7489L31.6348 91.9101C30.4426 94.2132 29.3129 96.554 28.2479 98.9302ZM35.4111 85.0919L38.8544 87.1274C40.1402 84.9523 41.4854 82.8163 42.8877 80.7217L39.5638 78.4964C38.12 80.653 36.735 82.8523 35.4111 85.0919ZM44.0797 72.1431L47.274 74.5507C48.7943 72.5337 50.3699 70.5606 51.9986 68.6338L48.9438 66.0516C47.2671 68.0352 45.645 70.0665 44.0797 72.1431ZM54.1397 60.2412L57.0459 62.9897C58.7804 61.1557 60.5658 59.3703 62.3999 57.6358L59.6514 54.7296C57.7633 56.5152 55.9253 58.3532 54.1397 60.2412ZM65.4618 49.5336L68.044 52.5885C69.9708 50.9598 71.9439 49.3842 73.9609 47.8638L71.5532 44.6696C69.4767 46.2348 67.4454 47.8569 65.4618 49.5336ZM77.9066 40.1537L80.1319 43.4776C82.2265 42.0753 84.3624 40.7301 86.5376 39.4443L84.502 36.0009C82.2624 37.3249 80.0632 38.7099 77.9066 40.1537ZM91.3202 32.2247L93.1591 35.7769C95.3957 34.6191 97.6689 33.5221 99.9762 32.488L98.3403 28.8378C95.9642 29.9027 93.6234 31.0324 91.3202 32.2247ZM105.541 25.8518L106.968 29.5885C109.319 28.6905 111.701 27.8565 114.113 27.0884L112.899 23.277C110.415 24.068 107.962 24.927 105.541 25.8518ZM120.393 21.122L121.389 24.9959C123.823 24.37 126.283 23.8102 128.767 23.3187L127.991 19.3947C125.432 19.9009 122.899 20.4774 120.393 21.122ZM135.675 18.0983L136.229 22.0597C138.715 21.7117 141.223 21.4315 143.752 21.2209L143.419 17.2347C140.817 17.4515 138.235 17.74 135.675 18.0983ZM151.201 16.8039L151.311 20.8024C152.573 20.7675 153.838 20.75 155.108 20.75C156.378 20.75 157.644 20.7675 158.906 20.8024L159.016 16.8039C157.718 16.768 156.415 16.75 155.108 16.75C153.802 16.75 152.499 16.768 151.201 16.8039ZM166.797 17.2347L166.465 21.2209C168.993 21.4315 171.502 21.7117 173.988 22.0596L174.542 18.0983C171.982 17.74 169.4 17.4515 166.797 17.2347ZM182.226 19.3947L181.45 23.3187C183.934 23.8102 186.394 24.37 188.828 24.9959L189.824 21.122C187.318 20.4774 184.785 19.9009 182.226 19.3947ZM197.317 23.277L196.104 27.0884C198.515 27.8565 200.898 28.6905 203.249 29.5885L204.676 25.8518C202.255 24.927 199.801 24.068 197.317 23.277ZM211.876 28.8378L210.241 32.488C212.548 33.5221 214.821 34.6191 217.058 35.7769L218.897 32.2247C216.593 31.0324 214.253 29.9027 211.876 28.8378ZM225.715 36.0009L223.679 39.4443C225.854 40.7301 227.99 42.0753 230.085 43.4776L232.31 40.1537C230.154 38.7099 227.954 37.3249 225.715 36.0009ZM238.664 44.6696L236.256 47.8638C238.273 49.3842 240.246 50.9598 242.173 52.5885L244.755 49.5336C242.771 47.8569 240.74 46.2348 238.664 44.6696ZM250.565 54.7296L247.817 57.6358C249.651 59.3703 251.436 61.1557 253.171 62.9897L256.077 60.2412C254.291 58.3532 252.453 56.5152 250.565 54.7296ZM261.273 66.0516L258.218 68.6338C259.847 70.5606 261.422 72.5337 262.943 74.5507L266.137 72.1431C264.572 70.0665 262.95 68.0352 261.273 66.0516ZM270.653 78.4964L267.329 80.7217C268.731 82.8163 270.077 84.9523 271.362 87.1274L274.806 85.0919C273.482 82.8522 272.097 80.653 270.653 78.4964ZM278.582 91.9101L275.03 93.7489C276.188 95.9856 277.285 98.2587 278.319 100.566L281.969 98.9302C280.904 96.554 279.774 94.2132 278.582 91.9101ZM284.955 106.131L281.218 107.558C282.116 109.909 282.95 112.291 283.718 114.703L287.53 113.489C286.739 111.005 285.88 108.552 284.955 106.131ZM289.685 120.983L285.811 121.979C286.437 124.412 286.996 126.872 287.488 129.357L291.412 128.581C290.906 126.022 290.329 123.489 289.685 120.983ZM292.708 136.265L288.747 136.819C289.095 139.305 289.375 141.813 289.586 144.341L293.572 144.009C293.355 141.407 293.067 138.824 292.708 136.265Z" fill="#A0A0A0"/>
<path d="M131.457 249.474C131.457 248.974 131.457 248.588 131.457 248.197C131.457 231.64 131.457 215.077 131.457 198.52C131.457 197.595 131.932 197.133 132.883 197.133C139.467 197.133 146.052 197.155 152.636 197.111C153.603 197.106 153.849 197.4 153.849 198.335C153.822 215.001 153.833 231.672 153.833 248.338V249.474H131.457Z" fill="#A0A0A0"/>
<path d="M124.66 192.364H109.18C109.267 191.359 109.305 190.407 109.437 189.461C110.507 181.691 113.42 175.851 118.201 166.167C119.507 163.519 123.195 148.604 120.944 144.052C120.786 143.732 120.594 143.422 120.414 143.112C120.261 142.84 120.103 142.568 119.835 142.095C121.387 142.095 122.774 142.073 124.157 142.122C124.326 142.127 124.561 142.448 124.632 142.666C124.714 142.927 124.66 143.237 124.66 143.525C124.66 159.364 124.66 175.204 124.66 191.043V192.364Z" fill="#A0A0A0"/>
<path d="M164.619 175.383V167.466H166.127C171.214 167.466 181.771 167.466 186.858 167.466C191.923 167.466 194.273 165.139 194.273 160.136C194.273 157.418 194.273 144.515 194.273 141.627C196.879 141.627 199.338 141.611 201.802 141.66C202.016 141.66 202.398 142.095 202.393 142.323C202.322 146.238 202.644 160.403 201.999 164.225C200.906 170.696 195.207 175.291 188.557 175.465C182.629 175.622 171.236 175.503 165.302 175.497C165.089 175.497 164.876 175.427 164.613 175.383H164.619Z" fill="#A0A0A0"/>
<path d="M164.624 142.138H174.87C173.75 148.565 174.755 154.601 177.137 160.522C171.023 155.841 167.449 149.544 164.624 142.138Z" fill="#A0A0A0"/>
<path d="M250.92 106.887H247.86V118.676H250.92V106.887Z" fill="#A0A0A0"/>
<path d="M264.58 106.887H254.723V118.676H264.58V106.887Z" fill="#A0A0A0"/>
<path d="M90.9185 100.851C91.1863 101.156 111.874 118.55 117.638 123.39C118.589 124.189 119.797 124.63 121.042 124.63L224.779 124.673L224.954 101.651C224.954 101.651 91.5797 100.857 90.9185 100.857V100.851ZM140.074 106.729H184.656V109.448H140.074V106.729ZM184.683 116.604H140.047V113.885H184.683V116.604Z" fill="#A0A0A0"/>
<path d="M158.477 141.448C151.281 141.475 139.697 141.48 132.495 141.442C131.473 141.437 131.233 141.758 131.233 142.731C131.26 158.679 131.26 174.627 131.233 190.576C131.233 191.576 131.517 191.842 132.512 191.837C139.675 191.799 151.221 191.815 158.384 191.815H159.597C159.625 191.353 159.663 191.038 159.663 190.722C159.663 174.665 159.657 158.614 159.685 142.557C159.685 141.595 159.319 141.448 158.477 141.453V141.448ZM152.833 188.672C151.226 188.672 149.92 187.373 149.92 185.774C149.92 184.176 151.226 182.876 152.833 182.876C154.439 182.876 155.745 184.176 155.745 185.774C155.745 187.373 154.439 188.672 152.833 188.672Z" fill="#A0A0A0"/>
<path d="M124.091 96.1806H151.494C152.308 96.1806 152.417 95.0116 151.62 94.8647L105.715 86.2735C99.3825 85.0446 93.055 83.8158 86.7221 82.5978C82.3945 81.7658 78.0668 80.8686 73.7065 80.2488C70.6629 79.8138 67.685 80.3466 65.248 82.4564C62.8765 84.5063 62.199 87.2794 62.188 90.2538C62.1662 95.8707 62.2154 101.488 62.2154 107.105C62.2154 112.575 62.1826 118.05 62.199 123.52C62.199 123.847 62.5159 124.445 62.6962 124.45C64.707 124.515 66.7233 124.494 68.7614 124.494C68.7942 124.097 68.8324 123.847 68.8324 123.602C68.8324 113.303 68.8324 103.01 68.8324 92.7115C68.8324 91.5588 68.7833 90.4006 68.8871 89.2587C69.0565 87.4643 69.7176 86.7901 71.5372 86.8009C73.1874 86.8064 74.8539 87.0184 76.4877 87.2631C79.9192 87.7743 88.1919 89.5034 101.393 92.0916L101.382 92.146L122.895 96.0827C123.288 96.1534 123.687 96.1915 124.091 96.1915V96.1806Z" fill="#A0A0A0"/>
<path d="M213.714 97.888H224.282V89.7807C224.282 88.9868 223.326 88.5844 222.752 89.1391L213.714 97.888Z" fill="#A0A0A0"/>
<path d="M197.819 87.0456H186.869V92.0644H197.819V87.0456Z" fill="#A0A0A0"/>
<path d="M195.054 94.3808H189.628V98.7362H195.054V94.3808Z" fill="#A0A0A0"/>
<path d="M250.92 103.771H231.396V121.748H250.92V103.771Z" fill="#A0A0A0"/>
<path d="M224.932 127.68C194.562 127.68 132.665 127.691 120.381 127.696C118.895 127.696 117.463 127.185 116.321 126.245C110.972 121.851 94.8527 108.573 86.8696 101.602C86.2357 101.053 85.6074 100.808 84.755 100.841C84.061 100.868 83.3671 100.884 82.6731 100.841C81.4164 100.754 81.0721 101.025 81.0776 102.2C81.1213 113.254 81.1049 124.314 81.1049 135.369V136.766H224.938V127.68H224.932Z" fill="#A0A0A0"/>
<path d="M60.2155 134.917H73.007C73.007 135.961 73.0016 136.951 73.007 137.946C73.0508 144.351 73.089 144.525 73.1655 150.931C73.1764 151.795 72.9743 152.122 72.0399 152.111C68.4226 152.062 64.8054 152.089 61.1881 152.089C60.904 152.089 60.6198 152.056 60.2155 152.029V134.917Z" fill="#A0A0A0"/>
<path d="M73.7775 128.262H59.1172V131.829H73.7775V128.262Z" fill="#A0A0A0"/>
</svg>
