<svg width="311" height="311" viewBox="0 0 311 311" fill="none" xmlns="http://www.w3.org/2000/svg">
<path fill-rule="evenodd" clip-rule="evenodd" d="M155.223 302.896C236.409 302.896 302.223 237.082 302.223 155.896C302.223 74.7106 236.409 8.89648 155.223 8.89648C74.0368 8.89648 8.22266 74.7106 8.22266 155.896C8.22266 237.082 74.0368 302.896 155.223 302.896ZM155.223 310.896C240.827 310.896 310.223 241.501 310.223 155.896C310.223 70.2924 240.827 0.896484 155.223 0.896484C69.6185 0.896484 0.222656 70.2924 0.222656 155.896C0.222656 241.501 69.6185 310.896 155.223 310.896Z" fill="#A0A0A0"/>
<path fill-rule="evenodd" clip-rule="evenodd" d="M294.118 159.804C294.154 158.506 294.172 157.203 294.172 155.896C294.172 154.59 294.154 153.287 294.118 151.989L290.12 152.099C290.154 153.361 290.172 154.627 290.172 155.896C290.172 157.166 290.154 158.432 290.12 159.694L294.118 159.804ZM293.687 167.585L289.701 167.253C289.49 169.782 289.21 172.29 288.862 174.776L292.824 175.33C293.182 172.77 293.47 170.188 293.687 167.585ZM291.527 183.014L287.603 182.238C287.112 184.722 286.552 187.182 285.926 189.616L289.8 190.612C290.445 188.106 291.021 185.573 291.527 183.014ZM287.645 198.106L283.833 196.892C283.065 199.303 282.231 201.686 281.333 204.037L285.07 205.464C285.995 203.043 286.854 200.589 287.645 198.106ZM282.084 212.665L278.434 211.029C277.4 213.336 276.303 215.609 275.145 217.846L278.697 219.685C279.889 217.381 281.019 215.041 282.084 212.665ZM274.921 226.503L271.478 224.467C270.192 226.642 268.847 228.778 267.444 230.873L270.768 233.098C272.212 230.942 273.597 228.742 274.921 226.503ZM266.252 239.452L263.058 237.044C261.538 239.061 259.962 241.034 258.333 242.961L261.388 245.543C263.065 243.559 264.687 241.528 266.252 239.452ZM256.192 251.353L253.286 248.605C251.552 250.439 249.766 252.224 247.932 253.959L250.681 256.865C252.569 255.08 254.407 253.242 256.192 251.353ZM244.87 262.061L242.288 259.006C240.361 260.635 238.388 262.211 236.371 263.731L238.779 266.925C240.855 265.36 242.887 263.738 244.87 262.061ZM232.425 271.441L230.2 268.117C228.106 269.519 225.97 270.865 223.794 272.15L225.83 275.594C228.07 274.27 230.269 272.885 232.425 271.441ZM219.012 279.37L217.173 275.818C214.936 276.976 212.663 278.073 210.356 279.107L211.992 282.757C214.368 281.692 216.709 280.562 219.012 279.37ZM204.791 285.743L203.364 282.006C201.013 282.904 198.631 283.738 196.219 284.506L197.433 288.318C199.917 287.527 202.37 286.668 204.791 285.743ZM189.939 290.473L188.943 286.599C186.509 287.225 184.049 287.784 181.565 288.276L182.341 292.2C184.9 291.694 187.433 291.117 189.939 290.473ZM174.657 293.496L174.103 289.535C171.617 289.883 169.109 290.163 166.581 290.374L166.913 294.36C169.515 294.143 172.097 293.855 174.657 293.496ZM159.131 294.791L159.021 290.792C157.759 290.827 156.494 290.845 155.224 290.845C153.954 290.845 152.688 290.827 151.427 290.792L151.316 294.791C152.614 294.827 153.917 294.845 155.224 294.845C156.53 294.845 157.833 294.827 159.131 294.791ZM143.535 294.36L143.867 290.374C141.339 290.163 138.83 289.883 136.344 289.535L135.79 293.496C138.35 293.855 140.932 294.143 143.535 294.36ZM128.106 292.2L128.882 288.276C126.398 287.784 123.938 287.225 121.504 286.599L120.508 290.473C123.014 291.117 125.548 291.694 128.106 292.2ZM113.015 288.318L114.228 284.506C111.817 283.738 109.434 282.904 107.083 282.006L105.656 285.743C108.077 286.668 110.531 287.527 113.015 288.318ZM98.4556 282.757L100.091 279.107C97.7841 278.073 95.511 276.976 93.2743 275.818L91.4354 279.37C93.7386 280.562 96.0794 281.692 98.4556 282.757ZM84.6173 275.594L86.6528 272.15C84.4777 270.865 82.3417 269.519 80.2471 268.117L78.0218 271.441C80.1784 272.885 82.3776 274.27 84.6173 275.594ZM71.6685 266.925L74.0761 263.731C72.0591 262.211 70.086 260.635 68.1592 259.006L65.577 262.061C67.5606 263.738 69.5919 265.36 71.6685 266.925ZM59.7666 256.865L62.5151 253.959C60.6811 252.224 58.8957 250.439 57.1612 248.605L54.255 251.354C56.0406 253.242 57.8786 255.08 59.7666 256.865ZM49.059 245.543L52.1139 242.961C50.4852 241.034 48.9096 239.061 47.3892 237.044L44.195 239.452C45.7602 241.528 47.3823 243.559 49.059 245.543ZM39.6791 233.098L43.003 230.873C41.6006 228.778 40.2555 226.642 38.9697 224.467L35.5263 226.503C36.8503 228.742 38.2353 230.942 39.6791 233.098ZM31.7501 219.685L35.3023 217.846C34.1445 215.609 33.0474 213.336 32.0134 211.029L28.3632 212.665C29.4281 215.041 30.5578 217.382 31.7501 219.685ZM25.3772 205.464L29.1139 204.037C28.2159 201.686 27.3819 199.304 26.6138 196.892L22.8024 198.106C23.5934 200.589 24.4524 203.043 25.3772 205.464ZM20.6473 190.612L24.5213 189.616C23.8954 187.182 23.3356 184.722 22.8441 182.238L18.9201 183.014C19.4263 185.573 20.0028 188.106 20.6473 190.612ZM17.6236 175.33L21.585 174.776C21.2371 172.29 20.9569 169.782 20.7463 167.253L16.7601 167.585C16.9769 170.188 17.2654 172.77 17.6236 175.33ZM16.3293 159.804C16.2934 158.506 16.2754 157.203 16.2754 155.896C16.2754 154.59 16.2934 153.287 16.3293 151.989L20.3278 152.099C20.2929 153.361 20.2754 154.626 20.2754 155.896C20.2754 157.166 20.2929 158.432 20.3278 159.694L16.3293 159.804ZM16.7601 144.208L20.7463 144.54C20.9569 142.011 21.2371 139.503 21.585 137.017L17.6236 136.463C17.2654 139.023 16.9769 141.605 16.7601 144.208ZM18.9201 128.779L22.8441 129.555C23.3356 127.071 23.8954 124.611 24.5213 122.177L20.6473 121.181C20.0028 123.687 19.4263 126.22 18.9201 128.779ZM22.8024 113.687L26.6138 114.901C27.3819 112.489 28.2159 110.107 29.1139 107.756L25.3772 106.329C24.4524 108.75 23.5934 111.204 22.8024 113.687ZM28.3632 99.1284L32.0133 100.764C33.0474 98.4569 34.1445 96.1838 35.3023 93.9472L31.7501 92.1083C30.5578 94.4115 29.4281 96.7523 28.3632 99.1284ZM35.5263 85.2901L38.9697 87.3257C40.2555 85.1505 41.6006 83.0146 43.0029 80.9199L39.6791 78.6947C38.2353 80.8513 36.8503 83.0505 35.5263 85.2901ZM44.195 72.3413L47.3892 74.749C48.9096 72.7319 50.4852 70.7589 52.1139 68.8321L49.059 66.2499C47.3823 68.2335 45.7602 70.2648 44.195 72.3413ZM54.255 60.4395L57.1611 63.188C58.8957 61.3539 60.6811 59.5685 62.5151 57.834L59.7666 54.9278C57.8786 56.7134 56.0406 58.5514 54.255 60.4395ZM65.577 49.7319L68.1592 52.7867C70.086 51.158 72.0591 49.5824 74.0761 48.0621L71.6685 44.8678C69.5919 46.433 67.5606 48.0552 65.577 49.7319ZM78.0218 40.3519L80.2471 43.6758C82.3417 42.2735 84.4777 40.9283 86.6528 39.6425L84.6173 36.1992C82.3776 37.5231 80.1784 38.9081 78.0218 40.3519ZM91.4354 32.4229L93.2743 35.9752C95.511 34.8174 97.7841 33.7203 100.091 32.6862L98.4556 29.036C96.0794 30.1009 93.7386 31.2307 91.4354 32.4229ZM105.656 26.0501L107.083 29.7867C109.434 28.8888 111.817 28.0547 114.228 27.2866L113.015 23.4752C110.531 24.2663 108.077 25.1253 105.656 26.0501ZM120.508 21.3202L121.504 25.1941C123.938 24.5682 126.398 24.0085 128.882 23.5169L128.106 19.593C125.548 20.0992 123.014 20.6756 120.508 21.3202ZM135.79 18.2965L136.344 22.2579C138.83 21.91 141.339 21.6297 143.867 21.4191L143.535 17.4329C140.932 17.6497 138.35 17.9382 135.79 18.2965ZM151.316 17.0021L151.427 21.0006C152.688 20.9658 153.954 20.9482 155.224 20.9482C156.494 20.9482 157.759 20.9658 159.021 21.0006L159.131 17.0021C157.833 16.9663 156.53 16.9482 155.224 16.9482C153.917 16.9482 152.614 16.9663 151.316 17.0021ZM166.913 17.4329L166.581 21.4191C169.109 21.6297 171.617 21.91 174.103 22.2579L174.657 18.2965C172.097 17.9382 169.515 17.6497 166.913 17.4329ZM182.341 19.593L181.565 23.5169C184.049 24.0085 186.509 24.5682 188.943 25.1941L189.939 21.3202C187.433 20.6756 184.9 20.0992 182.341 19.593ZM197.433 23.4752L196.219 27.2866C198.631 28.0547 201.013 28.8888 203.364 29.7867L204.791 26.05C202.37 25.1253 199.917 24.2663 197.433 23.4752ZM211.992 29.036L210.356 32.6862C212.663 33.7203 214.936 34.8173 217.173 35.9752L219.012 32.4229C216.709 31.2307 214.368 30.1009 211.992 29.036ZM225.83 36.1992L223.794 39.6425C225.97 40.9283 228.106 42.2735 230.2 43.6758L232.425 40.3519C230.269 38.9081 228.07 37.5231 225.83 36.1992ZM238.779 44.8678L236.371 48.0621C238.388 49.5824 240.361 51.158 242.288 52.7867L244.87 49.7318C242.887 48.0551 240.855 46.433 238.779 44.8678ZM250.681 54.9278L247.932 57.834C249.766 59.5685 251.552 61.3539 253.286 63.188L256.192 60.4395C254.407 58.5514 252.569 56.7134 250.681 54.9278ZM261.388 66.2499L258.333 68.832C259.962 70.7589 261.538 72.7319 263.058 74.749L266.252 72.3413C264.687 70.2647 263.065 68.2335 261.388 66.2499ZM270.768 78.6947L267.444 80.9199C268.847 83.0145 270.192 85.1505 271.478 87.3257L274.921 85.2901C273.597 83.0505 272.212 80.8512 270.768 78.6947ZM278.697 92.1083L275.145 93.9472C276.303 96.1838 277.4 98.4569 278.434 100.764L282.084 99.1284C281.019 96.7523 279.889 94.4115 278.697 92.1083ZM285.07 106.329L281.333 107.756C282.231 110.107 283.065 112.489 283.833 114.901L287.645 113.687C286.854 111.204 285.995 108.75 285.07 106.329ZM289.8 121.181L285.926 122.177C286.552 124.611 287.112 127.071 287.603 129.555L291.527 128.779C291.021 126.22 290.445 123.687 289.8 121.181ZM292.824 136.463L288.862 137.017C289.21 139.503 289.49 142.011 289.701 144.54L293.687 144.208C293.47 141.605 293.182 139.023 292.824 136.463Z" fill="#A0A0A0"/>
<path d="M76.407 84.2148L63.494 97.1862L202.852 237.174L215.765 224.203L76.407 84.2148Z" fill="#A0A0A0"/>
<path d="M156.327 190.012C156.183 190.012 156.039 190.012 155.895 190.008L174.382 208.579C181.142 207.378 187.883 205.45 194.507 202.848L176.068 184.326C170.389 187.929 163.629 190.005 156.327 190.012Z" fill="#A0A0A0"/>
<path d="M117.183 125.175C113.276 130.576 110.608 136.573 109.276 143.178L119.877 153.828C119.877 153.668 119.87 153.509 119.87 153.346C119.862 146.036 121.932 139.257 125.526 133.56L117.18 125.175H117.183Z" fill="#A0A0A0"/>
<path d="M143.77 187.784C133.759 184.096 125.811 176.108 122.121 166.037L108.313 152.167C108.305 152.556 108.298 152.942 108.298 153.335C108.327 168.947 114.862 181.657 126.604 191.921C125.401 191.532 124.183 191.187 123.003 190.742C102.907 183.207 86.2725 170.797 72.4093 154.476C71.7672 153.72 71.4942 153.168 72.2469 152.278C77.8852 145.629 83.97 139.616 90.5492 134.323L81.815 125.55C72.675 133.226 64.5017 142.085 57.1328 151.9C56.262 153.06 56.4981 153.776 57.2546 154.784C68.5496 169.918 81.9811 182.736 98.0509 192.655C116.021 203.745 135.386 210.195 157.651 210.047C160.297 210.061 162.958 209.954 165.618 209.732L143.77 187.788V187.784Z" fill="#A0A0A0"/>
<path d="M255.701 151.826C242 133.534 225.41 118.6 204.924 108.38C173.913 92.9125 142.519 92.275 111.04 106.883C110.549 107.109 110.065 107.343 109.582 107.576L119.276 117.313C121.386 116.453 123.534 115.645 125.726 114.9C125.954 114.823 126.194 114.782 126.434 114.741C126.482 114.734 126.541 114.793 126.855 114.956C125.006 116.491 123.29 118.088 121.704 119.752L129.873 127.959C136.537 120.909 145.991 116.539 156.563 116.528C176.669 116.505 193.042 132.978 193.016 153.212C193.005 163.825 188.662 173.295 181.647 179.971L189.809 188.17C199.426 178.744 204.595 167.149 204.592 153.253C204.584 137.641 198.042 124.934 186.042 114.975C186.145 114.856 186.245 114.737 186.348 114.619C188.348 115.33 190.378 115.968 192.348 116.761C211.411 124.427 227.27 136.492 240.539 152.137C241.561 153.342 240.916 153.969 240.233 154.769C231.466 165.085 221.407 173.888 209.887 180.986C204.079 184.563 198.02 187.607 191.677 190.042L201.448 199.857C223.403 189.612 241.13 174.122 255.687 154.71C256.484 153.646 256.517 152.912 255.701 151.822V151.826Z" fill="#A0A0A0"/>
<path d="M87.3426 121.142L96.1986 130.038C101.313 126.398 106.711 123.17 112.416 120.383L103.025 110.949C97.5085 113.992 92.2909 117.402 87.3426 121.142Z" fill="#A0A0A0"/>
<path d="M143.246 168.432C149.039 173.484 156.998 174.652 163.788 171.99L138.548 146.637C138.368 146.507 138.187 146.37 138.006 146.229C135.043 151.544 135.884 162.016 143.246 168.432Z" fill="#A0A0A0"/>
<path d="M169.913 168.184C169.994 168.109 170.079 168.039 170.16 167.965C177.64 160.963 178.562 149.524 172.33 141.029C168.098 135.261 158.227 131.332 153.961 133.771C156.164 138.604 155.832 143.179 151.618 146.663C151.002 147.171 150.386 147.593 149.762 147.942L169.913 168.184Z" fill="#A0A0A0"/>
</svg>
