<svg width="18" height="20" viewBox="0 0 18 20" fill="none" xmlns="http://www.w3.org/2000/svg">
<path d="M9.21846 0.335938C9.48649 0.716241 9.74765 1.08971 10.0119 1.46045C11.1712 3.08759 12.5182 4.54969 13.9644 5.92534C14.8213 6.74028 15.6429 7.58836 16.3217 8.56184C16.9494 9.46186 17.4189 10.4265 17.5541 11.5298C17.7007 12.7247 17.5294 13.8451 16.8022 14.8435C15.1384 17.1281 11.732 17.1544 10.0322 14.8944C9.99852 14.8497 9.96523 14.8046 9.89522 14.7639C9.89522 14.8428 9.89076 14.9221 9.89591 15.0007C9.9745 16.1932 10.4625 17.2063 11.2728 18.0711C11.4708 18.2826 11.699 18.4661 11.9197 18.6558C12.0226 18.7443 12.1026 18.8352 12.0497 18.977C11.999 19.113 11.8799 19.1266 11.7525 19.1266C10.0541 19.1256 8.35535 19.1256 6.65692 19.1266C6.52513 19.1266 6.39815 19.1184 6.34702 18.9708C6.29417 18.8177 6.38957 18.7292 6.49836 18.6424C7.65559 17.7216 8.36427 16.5509 8.49914 15.0632C8.50566 14.9901 8.50669 14.9166 8.47546 14.8216C8.4305 14.8794 8.38486 14.9371 8.34024 14.9952C7.15694 16.5349 5.07826 17.0676 3.30296 16.2861C1.67763 15.5706 0.701261 13.9025 0.795294 12.1315C0.872168 10.6803 1.45215 9.45161 2.30257 8.31582C3.04419 7.32491 3.92927 6.46658 4.82121 5.61543C6.46748 4.04432 7.90611 2.30204 9.16595 0.411793C9.18105 0.3889 9.19718 0.36669 9.21846 0.335938Z" fill="white"/>
</svg>
