<svg width="89" height="89" viewBox="0 0 89 89" fill="none" xmlns="http://www.w3.org/2000/svg">
<path d="M9.48242 42.1689L4.34228 45.1366L4.34229 39.2013L9.48242 42.1689Z" fill="#3EE98D"/>
<path d="M45.1045 9.51953L42.1368 4.37939L48.0722 4.37939L45.1045 9.51953Z" fill="#3EE98D"/>
<rect x="0.453125" y="0.808594" width="18.6667" height="1.5" fill="#3EE98D"/>
<rect x="88.6289" y="1.66602" width="18.6667" height="1.5" transform="rotate(90 88.6289 1.66602)" fill="#3EE98D"/>
<rect x="1.95312" y="0.808594" width="18.6667" height="1.5" transform="rotate(90 1.95312 0.808594)" fill="#3EE98D"/>
<rect x="2.62891" y="39.1523" width="6" height="2" transform="rotate(90 2.62891 39.1523)" fill="#3EE98D"/>
<rect x="88.6289" y="39.1523" width="6" height="2" transform="rotate(90 88.6289 39.1523)" fill="#3EE98D"/>
<rect x="48.1045" y="2.80859" width="6" height="2" transform="rotate(-180 48.1045 2.80859)" fill="#3EE98D"/>
<path d="M79.5811 42.1514L84.7212 39.1837L84.7212 45.119L79.5811 42.1514Z" fill="#3EE98D"/>
<rect x="88.6289" y="2.30859" width="18.6667" height="1.5" transform="rotate(-180 88.6289 2.30859)" fill="#3EE98D"/>
<rect x="88.4531" y="88.8086" width="18.6667" height="2.66667" transform="rotate(-180 88.4531 88.8086)" fill="#3EE98D"/>
<rect x="0.453125" y="88.8086" width="18.6667" height="1.5" transform="rotate(-90 0.453125 88.8086)" fill="#3EE98D"/>
<rect x="85.7861" y="88.8086" width="18.6667" height="2.66667" transform="rotate(-90 85.7861 88.8086)" fill="#3EE98D"/>
<rect x="0.453125" y="87.3086" width="18.6667" height="1.5" fill="#3EE98D"/>
</svg>
