<svg width="17" height="20" viewBox="0 0 17 20" fill="none" xmlns="http://www.w3.org/2000/svg">
<path d="M8.71651 0.917969C8.97619 1.28643 9.22921 1.64827 9.48523 2.00746C10.6084 3.58392 11.9134 5.00048 13.3145 6.33329C14.1448 7.12285 14.9408 7.94451 15.5984 8.88768C16.2065 9.75966 16.6614 10.6942 16.7924 11.7632C16.9344 12.9209 16.7685 14.0064 16.0639 14.9737C14.452 17.1871 11.1517 17.2126 9.50485 15.023C9.47227 14.9797 9.44001 14.936 9.37219 14.8966C9.37219 14.973 9.36786 15.0498 9.37285 15.126C9.44899 16.2814 9.92179 17.2629 10.7068 18.1008C10.8987 18.3057 11.1198 18.4835 11.3336 18.6672C11.4333 18.753 11.5108 18.841 11.4596 18.9784C11.4104 19.1102 11.295 19.1234 11.1716 19.1234C9.52613 19.1224 7.8803 19.1224 6.2348 19.1234C6.10712 19.1234 5.9841 19.1155 5.93456 18.9725C5.88335 18.8242 5.97579 18.7384 6.08118 18.6543C7.20235 17.7621 7.88894 16.628 8.01961 15.1866C8.02593 15.1157 8.02693 15.0445 7.99667 14.9525C7.95311 15.0085 7.90889 15.0644 7.86567 15.1207C6.71924 16.6124 4.70534 17.1285 2.98536 16.3714C1.41068 15.6782 0.46474 14.062 0.555842 12.3462C0.63032 10.9402 1.19223 9.74973 2.01614 8.64932C2.73466 7.68927 3.59215 6.85767 4.4563 6.03303C6.05126 4.51086 7.44507 2.82283 8.66564 0.991462C8.68027 0.969282 8.6959 0.947763 8.71651 0.917969Z" fill="#3EE98D"/>
</svg>
