<svg width="413" height="481" viewBox="0 0 413 481" fill="none" xmlns="http://www.w3.org/2000/svg">
<path d="M0.03125 0.380859H412.193V1.38086H0.03125V0.380859Z" fill="#00FF74" fill-opacity="0.05"/>
<path d="M0.03125 3.38086H412.193V4.38086H0.03125V3.38086Z" fill="#00FF74" fill-opacity="0.05"/>
<path d="M0.03125 6.38086H412.193V7.38086H0.03125V6.38086Z" fill="#00FF74" fill-opacity="0.05"/>
<path d="M0.03125 9.38086H412.193V10.3809H0.03125V9.38086Z" fill="#00FF74" fill-opacity="0.05"/>
<path d="M0.03125 12.3809H412.193V13.3809H0.03125V12.3809Z" fill="#00FF74" fill-opacity="0.05"/>
<path d="M0.03125 15.3809H412.193V16.3809H0.03125V15.3809Z" fill="#00FF74" fill-opacity="0.05"/>
<path d="M0.03125 18.3809H412.193V19.3809H0.03125V18.3809Z" fill="#00FF74" fill-opacity="0.05"/>
<path d="M0.03125 21.3809H412.193V22.3809H0.03125V21.3809Z" fill="#00FF74" fill-opacity="0.05"/>
<path d="M0.03125 24.3809H412.193V25.3809H0.03125V24.3809Z" fill="#00FF74" fill-opacity="0.05"/>
<path d="M0.03125 27.3809H412.193V28.3809H0.03125V27.3809Z" fill="#00FF74" fill-opacity="0.05"/>
<path d="M0.03125 30.3809H412.193V31.3809H0.03125V30.3809Z" fill="#00FF74" fill-opacity="0.05"/>
<path d="M0.03125 33.3809H412.193V34.3809H0.03125V33.3809Z" fill="#00FF74" fill-opacity="0.05"/>
<path d="M0.03125 36.3809H412.193V37.3809H0.03125V36.3809Z" fill="#00FF74" fill-opacity="0.05"/>
<path d="M0.03125 39.3809H412.193V40.3809H0.03125V39.3809Z" fill="#00FF74" fill-opacity="0.05"/>
<path d="M0.03125 42.3809H412.193V43.3809H0.03125V42.3809Z" fill="#00FF74" fill-opacity="0.05"/>
<path d="M0.03125 45.3809H412.193V46.3809H0.03125V45.3809Z" fill="#00FF74" fill-opacity="0.05"/>
<path d="M0.03125 48.3809H412.193V49.3809H0.03125V48.3809Z" fill="#00FF74" fill-opacity="0.05"/>
<path d="M0.03125 51.3809H412.193V52.3809H0.03125V51.3809Z" fill="#00FF74" fill-opacity="0.05"/>
<path d="M0.03125 54.3809H412.193V55.3809H0.03125V54.3809Z" fill="#00FF74" fill-opacity="0.05"/>
<path d="M0.03125 57.3809H412.193V58.3809H0.03125V57.3809Z" fill="#00FF74" fill-opacity="0.05"/>
<path d="M0.03125 60.3809H412.193V61.3809H0.03125V60.3809Z" fill="#00FF74" fill-opacity="0.05"/>
<path d="M0.03125 63.3809H412.193V64.3809H0.03125V63.3809Z" fill="#00FF74" fill-opacity="0.05"/>
<path d="M0.03125 66.3809H412.193V67.3809H0.03125V66.3809Z" fill="#00FF74" fill-opacity="0.05"/>
<path d="M0.03125 69.3809H412.193V70.3809H0.03125V69.3809Z" fill="#00FF74" fill-opacity="0.05"/>
<path d="M0.03125 72.3809H412.193V73.3809H0.03125V72.3809Z" fill="#00FF74" fill-opacity="0.05"/>
<path d="M0.03125 75.3809H412.193V76.3809H0.03125V75.3809Z" fill="#00FF74" fill-opacity="0.05"/>
<path d="M0.03125 78.3809H412.193V79.3809H0.03125V78.3809Z" fill="#00FF74" fill-opacity="0.05"/>
<path d="M0.03125 81.3809H412.193V82.3809H0.03125V81.3809Z" fill="#00FF74" fill-opacity="0.05"/>
<path d="M0.03125 84.3809H412.193V85.3809H0.03125V84.3809Z" fill="#00FF74" fill-opacity="0.05"/>
<path d="M0.03125 87.3809H412.193V88.3809H0.03125V87.3809Z" fill="#00FF74" fill-opacity="0.05"/>
<path d="M0.03125 90.3809H412.193V91.3809H0.03125V90.3809Z" fill="#00FF74" fill-opacity="0.05"/>
<path d="M0.03125 93.3809H412.193V94.3809H0.03125V93.3809Z" fill="#00FF74" fill-opacity="0.05"/>
<path d="M0.03125 96.3809H412.193V97.3809H0.03125V96.3809Z" fill="#00FF74" fill-opacity="0.05"/>
<path d="M0.03125 99.3809H412.193V100.381H0.03125V99.3809Z" fill="#00FF74" fill-opacity="0.05"/>
<path d="M0.03125 102.381H412.193V103.381H0.03125V102.381Z" fill="#00FF74" fill-opacity="0.05"/>
<path d="M0.03125 105.381H412.193V106.381H0.03125V105.381Z" fill="#00FF74" fill-opacity="0.05"/>
<path d="M0.03125 108.381H412.193V109.381H0.03125V108.381Z" fill="#00FF74" fill-opacity="0.05"/>
<path d="M0.03125 111.381H412.193V112.381H0.03125V111.381Z" fill="#00FF74" fill-opacity="0.05"/>
<path d="M0.03125 114.381H412.193V115.381H0.03125V114.381Z" fill="#00FF74" fill-opacity="0.05"/>
<path d="M0.03125 117.381H412.193V118.381H0.03125V117.381Z" fill="#00FF74" fill-opacity="0.05"/>
<path d="M0.03125 120.381H412.193V121.381H0.03125V120.381Z" fill="#00FF74" fill-opacity="0.05"/>
<path d="M0.03125 123.381H412.193V124.381H0.03125V123.381Z" fill="#00FF74" fill-opacity="0.05"/>
<path d="M0.03125 126.381H412.193V127.381H0.03125V126.381Z" fill="#00FF74" fill-opacity="0.05"/>
<path d="M0.03125 129.381H412.193V130.381H0.03125V129.381Z" fill="#00FF74" fill-opacity="0.05"/>
<path d="M0.03125 132.381H412.193V133.381H0.03125V132.381Z" fill="#00FF74" fill-opacity="0.05"/>
<path d="M0.03125 135.381H412.193V136.381H0.03125V135.381Z" fill="#00FF74" fill-opacity="0.05"/>
<path d="M0.03125 138.381H412.193V139.381H0.03125V138.381Z" fill="#00FF74" fill-opacity="0.05"/>
<path d="M0.03125 141.381H412.193V142.381H0.03125V141.381Z" fill="#00FF74" fill-opacity="0.05"/>
<path d="M0.03125 144.381H412.193V145.381H0.03125V144.381Z" fill="#00FF74" fill-opacity="0.05"/>
<path d="M0.03125 147.381H412.193V148.381H0.03125V147.381Z" fill="#00FF74" fill-opacity="0.05"/>
<path d="M0.03125 150.381H412.193V151.381H0.03125V150.381Z" fill="#00FF74" fill-opacity="0.05"/>
<path d="M0.03125 153.381H412.193V154.381H0.03125V153.381Z" fill="#00FF74" fill-opacity="0.05"/>
<path d="M0.03125 156.381H412.193V157.381H0.03125V156.381Z" fill="#00FF74" fill-opacity="0.05"/>
<path d="M0.03125 159.381H412.193V160.381H0.03125V159.381Z" fill="#00FF74" fill-opacity="0.05"/>
<path d="M0.03125 162.381H412.193V163.381H0.03125V162.381Z" fill="#00FF74" fill-opacity="0.05"/>
<path d="M0.03125 165.381H412.193V166.381H0.03125V165.381Z" fill="#00FF74" fill-opacity="0.05"/>
<path d="M0.03125 168.381H412.193V169.381H0.03125V168.381Z" fill="#00FF74" fill-opacity="0.05"/>
<path d="M0.03125 171.381H412.193V172.381H0.03125V171.381Z" fill="#00FF74" fill-opacity="0.05"/>
<path d="M0.03125 174.381H412.193V175.381H0.03125V174.381Z" fill="#00FF74" fill-opacity="0.05"/>
<path d="M0.03125 177.381H412.193V178.381H0.03125V177.381Z" fill="#00FF74" fill-opacity="0.05"/>
<path d="M0.03125 180.381H412.193V181.381H0.03125V180.381Z" fill="#00FF74" fill-opacity="0.05"/>
<path d="M0.03125 183.381H412.193V184.381H0.03125V183.381Z" fill="#00FF74" fill-opacity="0.05"/>
<path d="M0.03125 186.381H412.193V187.381H0.03125V186.381Z" fill="#00FF74" fill-opacity="0.05"/>
<path d="M0.03125 189.381H412.193V190.381H0.03125V189.381Z" fill="#00FF74" fill-opacity="0.05"/>
<path d="M0.03125 192.381H412.193V193.381H0.03125V192.381Z" fill="#00FF74" fill-opacity="0.05"/>
<path d="M0.03125 195.381H412.193V196.381H0.03125V195.381Z" fill="#00FF74" fill-opacity="0.05"/>
<path d="M0.03125 198.381H412.193V199.381H0.03125V198.381Z" fill="#00FF74" fill-opacity="0.05"/>
<path d="M0.03125 201.381H412.193V202.381H0.03125V201.381Z" fill="#00FF74" fill-opacity="0.05"/>
<path d="M0.03125 204.381H412.193V205.381H0.03125V204.381Z" fill="#00FF74" fill-opacity="0.05"/>
<path d="M0.03125 207.381H412.193V208.381H0.03125V207.381Z" fill="#00FF74" fill-opacity="0.05"/>
<path d="M0.03125 210.381H412.193V211.381H0.03125V210.381Z" fill="#00FF74" fill-opacity="0.05"/>
<path d="M0.03125 213.381H412.193V214.381H0.03125V213.381Z" fill="#00FF74" fill-opacity="0.05"/>
<path d="M0.03125 216.381H412.193V217.381H0.03125V216.381Z" fill="#00FF74" fill-opacity="0.05"/>
<path d="M0.03125 219.381H412.193V220.381H0.03125V219.381Z" fill="#00FF74" fill-opacity="0.05"/>
<path d="M0.03125 222.381H412.193V223.381H0.03125V222.381Z" fill="#00FF74" fill-opacity="0.05"/>
<path d="M0.03125 225.381H412.193V226.381H0.03125V225.381Z" fill="#00FF74" fill-opacity="0.05"/>
<path d="M0.03125 228.381H412.193V229.381H0.03125V228.381Z" fill="#00FF74" fill-opacity="0.05"/>
<path d="M0.03125 231.381H412.193V232.381H0.03125V231.381Z" fill="#00FF74" fill-opacity="0.05"/>
<path d="M0.03125 234.381H412.193V235.381H0.03125V234.381Z" fill="#00FF74" fill-opacity="0.05"/>
<path d="M0.03125 237.381H412.193V238.381H0.03125V237.381Z" fill="#00FF74" fill-opacity="0.05"/>
<path d="M0.03125 240.381H412.193V241.381H0.03125V240.381Z" fill="#00FF74" fill-opacity="0.05"/>
<path d="M0.03125 243.381H412.193V244.381H0.03125V243.381Z" fill="#00FF74" fill-opacity="0.05"/>
<path d="M0.03125 246.381H412.193V247.381H0.03125V246.381Z" fill="#00FF74" fill-opacity="0.05"/>
<path d="M0.03125 249.381H412.193V250.381H0.03125V249.381Z" fill="#00FF74" fill-opacity="0.05"/>
<path d="M0.03125 252.381H412.193V253.381H0.03125V252.381Z" fill="#00FF74" fill-opacity="0.05"/>
<path d="M0.03125 255.381H412.193V256.381H0.03125V255.381Z" fill="#00FF74" fill-opacity="0.05"/>
<path d="M0.03125 258.381H412.193V259.381H0.03125V258.381Z" fill="#00FF74" fill-opacity="0.05"/>
<path d="M0.03125 261.381H412.193V262.381H0.03125V261.381Z" fill="#00FF74" fill-opacity="0.05"/>
<path d="M0.03125 264.381H412.193V265.381H0.03125V264.381Z" fill="#00FF74" fill-opacity="0.05"/>
<path d="M0.03125 267.381H412.193V268.381H0.03125V267.381Z" fill="#00FF74" fill-opacity="0.05"/>
<path d="M0.03125 270.381H412.193V271.381H0.03125V270.381Z" fill="#00FF74" fill-opacity="0.05"/>
<path d="M0.03125 273.381H412.193V274.381H0.03125V273.381Z" fill="#00FF74" fill-opacity="0.05"/>
<path d="M0.03125 276.381H412.193V277.381H0.03125V276.381Z" fill="#00FF74" fill-opacity="0.05"/>
<path d="M0.03125 279.381H412.193V280.381H0.03125V279.381Z" fill="#00FF74" fill-opacity="0.05"/>
<path d="M0.03125 282.381H412.193V283.381H0.03125V282.381Z" fill="#00FF74" fill-opacity="0.05"/>
<path d="M0.03125 285.381H412.193V286.381H0.03125V285.381Z" fill="#00FF74" fill-opacity="0.05"/>
<path d="M0.03125 288.381H412.193V289.381H0.03125V288.381Z" fill="#00FF74" fill-opacity="0.05"/>
<path d="M0.03125 291.381H412.193V292.381H0.03125V291.381Z" fill="#00FF74" fill-opacity="0.05"/>
<path d="M0.03125 294.381H412.193V295.381H0.03125V294.381Z" fill="#00FF74" fill-opacity="0.05"/>
<path d="M0.03125 297.381H412.193V298.381H0.03125V297.381Z" fill="#00FF74" fill-opacity="0.05"/>
<path d="M0.03125 300.381H412.193V301.381H0.03125V300.381Z" fill="#00FF74" fill-opacity="0.05"/>
<path d="M0.03125 303.381H412.193V304.381H0.03125V303.381Z" fill="#00FF74" fill-opacity="0.05"/>
<path d="M0.03125 306.381H412.193V307.381H0.03125V306.381Z" fill="#00FF74" fill-opacity="0.05"/>
<path d="M0.03125 309.381H412.193V310.381H0.03125V309.381Z" fill="#00FF74" fill-opacity="0.05"/>
<path d="M0.03125 312.381H412.193V313.381H0.03125V312.381Z" fill="#00FF74" fill-opacity="0.05"/>
<path d="M0.03125 315.381H412.193V316.381H0.03125V315.381Z" fill="#00FF74" fill-opacity="0.05"/>
<path d="M0.03125 318.381H412.193V319.381H0.03125V318.381Z" fill="#00FF74" fill-opacity="0.05"/>
<path d="M0.03125 321.381H412.193V322.381H0.03125V321.381Z" fill="#00FF74" fill-opacity="0.05"/>
<path d="M0.03125 324.381H412.193V325.381H0.03125V324.381Z" fill="#00FF74" fill-opacity="0.05"/>
<path d="M0.03125 327.381H412.193V328.381H0.03125V327.381Z" fill="#00FF74" fill-opacity="0.05"/>
<path d="M0.03125 330.381H412.193V331.381H0.03125V330.381Z" fill="#00FF74" fill-opacity="0.05"/>
<path d="M0.03125 333.381H412.193V334.381H0.03125V333.381Z" fill="#00FF74" fill-opacity="0.05"/>
<path d="M0.03125 336.381H412.193V337.381H0.03125V336.381Z" fill="#00FF74" fill-opacity="0.05"/>
<path d="M0.03125 339.381H412.193V340.381H0.03125V339.381Z" fill="#00FF74" fill-opacity="0.05"/>
<path d="M0.03125 342.381H412.193V343.381H0.03125V342.381Z" fill="#00FF74" fill-opacity="0.05"/>
<path d="M0.03125 345.381H412.193V346.381H0.03125V345.381Z" fill="#00FF74" fill-opacity="0.05"/>
<path d="M0.03125 348.381H412.193V349.381H0.03125V348.381Z" fill="#00FF74" fill-opacity="0.05"/>
<path d="M0.03125 351.381H412.193V352.381H0.03125V351.381Z" fill="#00FF74" fill-opacity="0.05"/>
<path d="M0.03125 354.381H412.193V355.381H0.03125V354.381Z" fill="#00FF74" fill-opacity="0.05"/>
<path d="M0.03125 357.381H412.193V358.381H0.03125V357.381Z" fill="#00FF74" fill-opacity="0.05"/>
<path d="M0.03125 360.381H412.193V361.381H0.03125V360.381Z" fill="#00FF74" fill-opacity="0.05"/>
<path d="M0.03125 363.381H412.193V364.381H0.03125V363.381Z" fill="#00FF74" fill-opacity="0.05"/>
<path d="M0.03125 366.381H412.193V367.381H0.03125V366.381Z" fill="#00FF74" fill-opacity="0.05"/>
<path d="M0.03125 369.381H412.193V370.381H0.03125V369.381Z" fill="#00FF74" fill-opacity="0.05"/>
<path d="M0.03125 372.381H412.193V373.381H0.03125V372.381Z" fill="#00FF74" fill-opacity="0.05"/>
<path d="M0.03125 375.381H412.193V376.381H0.03125V375.381Z" fill="#00FF74" fill-opacity="0.05"/>
<path d="M0.03125 378.381H412.193V379.381H0.03125V378.381Z" fill="#00FF74" fill-opacity="0.05"/>
<path d="M0.03125 381.381H412.193V382.381H0.03125V381.381Z" fill="#00FF74" fill-opacity="0.05"/>
<path d="M0.03125 384.381H412.193V385.381H0.03125V384.381Z" fill="#00FF74" fill-opacity="0.05"/>
<path d="M0.03125 387.381H412.193V388.381H0.03125V387.381Z" fill="#00FF74" fill-opacity="0.05"/>
<path d="M0.03125 390.381H412.193V391.381H0.03125V390.381Z" fill="#00FF74" fill-opacity="0.05"/>
<path d="M0.03125 393.381H412.193V394.381H0.03125V393.381Z" fill="#00FF74" fill-opacity="0.05"/>
<path d="M0.03125 396.381H412.193V397.381H0.03125V396.381Z" fill="#00FF74" fill-opacity="0.05"/>
<path d="M0.03125 399.381H412.193V400.381H0.03125V399.381Z" fill="#00FF74" fill-opacity="0.05"/>
<path d="M0.03125 402.381H412.193V403.381H0.03125V402.381Z" fill="#00FF74" fill-opacity="0.05"/>
<path d="M0.03125 405.381H412.193V406.381H0.03125V405.381Z" fill="#00FF74" fill-opacity="0.05"/>
<path d="M0.03125 408.381H412.193V409.381H0.03125V408.381Z" fill="#00FF74" fill-opacity="0.05"/>
<path d="M0.03125 411.381H412.193V412.381H0.03125V411.381Z" fill="#00FF74" fill-opacity="0.05"/>
<path d="M0.03125 414.381H412.193V415.381H0.03125V414.381Z" fill="#00FF74" fill-opacity="0.05"/>
<path d="M0.03125 417.381H412.193V418.381H0.03125V417.381Z" fill="#00FF74" fill-opacity="0.05"/>
<path d="M0.03125 420.381H412.193V421.381H0.03125V420.381Z" fill="#00FF74" fill-opacity="0.05"/>
<path d="M0.03125 423.381H412.193V424.381H0.03125V423.381Z" fill="#00FF74" fill-opacity="0.05"/>
<path d="M0.03125 426.381H412.193V427.381H0.03125V426.381Z" fill="#00FF74" fill-opacity="0.05"/>
<path d="M0.03125 429.381H412.193V430.381H0.03125V429.381Z" fill="#00FF74" fill-opacity="0.05"/>
<path d="M0.03125 432.381H412.193V433.381H0.03125V432.381Z" fill="#00FF74" fill-opacity="0.05"/>
<path d="M0.03125 435.381H412.193V436.381H0.03125V435.381Z" fill="#00FF74" fill-opacity="0.05"/>
<path d="M0.03125 438.381H412.193V439.381H0.03125V438.381Z" fill="#00FF74" fill-opacity="0.05"/>
<path d="M0.03125 441.381H412.193V442.381H0.03125V441.381Z" fill="#00FF74" fill-opacity="0.05"/>
<path d="M0.03125 444.381H412.193V445.381H0.03125V444.381Z" fill="#00FF74" fill-opacity="0.05"/>
<path d="M0.03125 447.381H412.193V448.381H0.03125V447.381Z" fill="#00FF74" fill-opacity="0.05"/>
<path d="M0.03125 450.381H412.193V451.381H0.03125V450.381Z" fill="#00FF74" fill-opacity="0.05"/>
<path d="M0.03125 453.381H412.193V454.381H0.03125V453.381Z" fill="#00FF74" fill-opacity="0.05"/>
<path d="M0.03125 456.381H412.193V457.381H0.03125V456.381Z" fill="#00FF74" fill-opacity="0.05"/>
<path d="M0.03125 459.381H412.193V460.381H0.03125V459.381Z" fill="#00FF74" fill-opacity="0.05"/>
<path d="M0.03125 462.381H412.193V463.381H0.03125V462.381Z" fill="#00FF74" fill-opacity="0.05"/>
<path d="M0.03125 465.381H412.193V466.381H0.03125V465.381Z" fill="#00FF74" fill-opacity="0.05"/>
<path d="M0.03125 468.381H412.193V469.381H0.03125V468.381Z" fill="#00FF74" fill-opacity="0.05"/>
<path d="M0.03125 471.381H412.193V472.381H0.03125V471.381Z" fill="#00FF74" fill-opacity="0.05"/>
<path d="M0.03125 474.381H412.193V475.381H0.03125V474.381Z" fill="#00FF74" fill-opacity="0.05"/>
<path d="M0.03125 477.381H412.193V478.381H0.03125V477.381Z" fill="#00FF74" fill-opacity="0.05"/>
<path d="M0.03125 480.381H412.193V481.381H0.03125V480.381Z" fill="#00FF74" fill-opacity="0.05"/>
<path d="M0.03125 483.381H412.193V484.381H0.03125V483.381Z" fill="#00FF74" fill-opacity="0.05"/>
<path d="M0.03125 486.381H412.193V487.381H0.03125V486.381Z" fill="#00FF74" fill-opacity="0.05"/>
<path d="M0.03125 489.381H412.193V490.381H0.03125V489.381Z" fill="#00FF74" fill-opacity="0.05"/>
<path d="M0.03125 492.381H412.193V493.381H0.03125V492.381Z" fill="#00FF74" fill-opacity="0.05"/>
<path d="M0.03125 495.381H412.193V496.381H0.03125V495.381Z" fill="#00FF74" fill-opacity="0.05"/>
<path d="M0.03125 498.381H412.193V499.381H0.03125V498.381Z" fill="#00FF74" fill-opacity="0.05"/>
<path d="M0.03125 501.381H412.193V502.381H0.03125V501.381Z" fill="#00FF74" fill-opacity="0.05"/>
<path d="M0.03125 504.381H412.193V505.381H0.03125V504.381Z" fill="#00FF74" fill-opacity="0.05"/>
<path d="M0.03125 507.381H412.193V508.381H0.03125V507.381Z" fill="#00FF74" fill-opacity="0.05"/>
<path d="M0.03125 510.381H412.193V511.381H0.03125V510.381Z" fill="#00FF74" fill-opacity="0.05"/>
<path d="M0.03125 513.381H412.193V514.381H0.03125V513.381Z" fill="#00FF74" fill-opacity="0.05"/>
<path d="M0.03125 516.381H412.193V517.381H0.03125V516.381Z" fill="#00FF74" fill-opacity="0.05"/>
<path d="M0.03125 519.381H412.193V520.381H0.03125V519.381Z" fill="#00FF74" fill-opacity="0.05"/>
<path d="M0.03125 522.381H412.193V523.381H0.03125V522.381Z" fill="#00FF74" fill-opacity="0.05"/>
<path d="M0.03125 525.381H412.193V526.381H0.03125V525.381Z" fill="#00FF74" fill-opacity="0.05"/>
<path d="M0.03125 528.381H412.193V529.381H0.03125V528.381Z" fill="#00FF74" fill-opacity="0.05"/>
<path d="M0.03125 531.381H412.193V532.381H0.03125V531.381Z" fill="#00FF74" fill-opacity="0.05"/>
<path d="M0.03125 534.381H412.193V535.381H0.03125V534.381Z" fill="#00FF74" fill-opacity="0.05"/>
<path d="M0.03125 537.381H412.193V538.381H0.03125V537.381Z" fill="#00FF74" fill-opacity="0.05"/>
<path d="M0.03125 540.381H412.193V541.381H0.03125V540.381Z" fill="#00FF74" fill-opacity="0.05"/>
<path d="M0.03125 543.381H412.193V544.381H0.03125V543.381Z" fill="#00FF74" fill-opacity="0.05"/>
<path d="M0.03125 546.381H412.193V547.381H0.03125V546.381Z" fill="#00FF74" fill-opacity="0.05"/>
<path d="M0.03125 549.381H412.193V550.381H0.03125V549.381Z" fill="#00FF74" fill-opacity="0.05"/>
<path d="M0.03125 552.381H412.193V553.381H0.03125V552.381Z" fill="#00FF74" fill-opacity="0.05"/>
<path d="M0.03125 555.381H412.193V556.381H0.03125V555.381Z" fill="#00FF74" fill-opacity="0.05"/>
<path d="M0.03125 558.381H412.193V559.381H0.03125V558.381Z" fill="#00FF74" fill-opacity="0.05"/>
<path d="M0.03125 561.381H412.193V562.381H0.03125V561.381Z" fill="#00FF74" fill-opacity="0.05"/>
<path d="M0.03125 564.381H412.193V565.381H0.03125V564.381Z" fill="#00FF74" fill-opacity="0.05"/>
</svg>
