<svg width="120" height="37" viewBox="0 0 120 37" fill="none" xmlns="http://www.w3.org/2000/svg">
<path d="M113.702 18.4535L107.322 29.5047L94.5601 29.5056L88.1799 18.4529L94.5603 7.40179L107.322 7.40083L113.702 18.4535Z" stroke="white"/>
<path d="M104.577 13.6852C101.857 16.3121 99.1532 18.9238 96.4493 21.5355C95.1598 20.2104 94.5235 16.8478 96.8699 14.3998C99.1447 12.0279 102.73 12.2127 104.576 13.684L104.577 13.6852Z" fill="white"/>
<path d="M97.7873 22.8441C100.5 20.2148 103.199 17.5996 105.897 14.9844C107.366 16.6078 107.61 19.9493 105.414 22.1493C103.124 24.4429 99.655 24.3178 97.7861 22.8441H97.7873Z" fill="white"/>
<path d="M68.0686 28.1754C70.9515 28.5692 73.7216 28.6732 76.3205 27.312C76.8721 27.0229 77.3482 26.5808 77.8303 26.1751C78.1323 25.921 78.0874 25.7746 77.713 25.6223C75.9968 24.9239 74.2844 24.2158 72.5578 23.5426C71.9113 23.2907 71.3731 22.9258 70.9194 22.2928C69.9604 24.2715 69.0321 26.187 68.0686 28.1754Z" fill="white"/>
<path d="M9.88752 17.7742L52.5974 16.9123L53.1393 14.5271L9.70589 13.5263C10.0579 14.247 10.2455 15.0436 10.2455 15.8557C10.2455 16.5185 10.123 17.1671 9.88752 17.7742Z" fill="white"/>
<path d="M83.1314 13.5603C82.2875 11.1633 81.0632 9.00332 79.0959 7.32778C77.4732 5.94575 75.5889 5.23764 72.8659 5.25622C70.9539 5.29783 68.7086 6.09658 66.6284 7.41175C63.9735 9.09025 61.2094 10.5548 58.2488 11.6336C56.2516 12.3611 54.2125 12.7162 52.0636 12.6063C48.8055 12.4398 45.5414 12.4057 42.2795 12.3105C33.9268 12.0668 15.5733 11.8201 7.22053 11.5764C6.2623 11.5482 5.30183 11.4888 4.34584 11.5244C2.18272 11.6054 0.419486 13.2156 0.16909 15.2797C-0.0880324 17.3951 1.2073 19.3463 3.3166 19.9489C3.84729 20.1005 4.42133 20.1889 4.97145 20.1748C11.321 20.0135 27.6691 19.8278 34.018 19.6457C38.8106 19.5083 43.6032 19.3656 48.3959 19.2237C49.7525 19.1836 51.1114 19.1717 52.4658 19.0922C54.7104 18.9607 56.8159 19.4897 58.855 20.3501C61.9255 21.6452 64.6185 23.5206 67.1023 25.7118C67.4768 26.0425 67.556 26.0276 67.7593 25.561C69.5554 21.4387 71.3471 17.3149 73.1514 13.1962C73.2501 12.9704 73.4227 12.7549 73.6126 12.5951C74.0588 12.2199 74.5424 11.8885 74.9999 11.5259C75.1957 11.3706 75.3699 11.3431 75.6113 11.4323C77.9583 12.2949 80.309 13.1479 82.662 13.9943C82.8122 14.0485 82.9893 14.0307 83.1538 14.047C83.1486 13.8843 83.1829 13.7074 83.1314 13.5603ZM4.49906 18.9473C2.76797 18.9659 1.32315 17.5764 1.29998 15.8704C1.27681 14.151 2.67006 12.7274 4.40264 12.7014C6.15392 12.6754 7.55912 14.0366 7.57706 15.7753C7.595 17.5348 6.24286 18.928 4.49832 18.9466L4.49906 18.9473ZM53.1385 17.5667L8.76476 18.4725C9.27452 17.7258 9.572 16.8252 9.572 15.8555C9.572 14.6957 9.14521 13.6354 8.44111 12.8188L53.9749 13.8828L53.1385 17.5667ZM67.1158 19.6673C66.8938 20.1778 66.3055 20.4571 65.7748 20.2379C64.6724 19.7825 63.5818 19.2973 62.4943 18.8076C62.0899 18.6256 61.9128 18.2726 61.8956 17.8825C61.9158 16.8475 62.8299 16.638 63.297 16.8237C64.3823 17.2562 65.4848 17.7443 66.6509 18.2875C67.1651 18.5275 67.3407 19.1509 67.1158 19.6673ZM68.5344 16.7405C68.2915 17.2918 67.6838 17.534 67.0799 17.2792C66.0305 16.8356 64.9893 16.3705 63.9496 15.9046C63.5288 15.7159 63.3314 15.3703 63.3247 14.9981C63.3337 14.1213 64.0991 13.6265 64.8659 13.9482C65.8922 14.3784 66.9065 14.8369 67.9238 15.2886C68.5322 15.5591 68.7848 16.1713 68.5344 16.7405ZM68.6428 14.4527C67.5635 14.0099 66.4976 13.5343 65.4355 13.0506C64.8764 12.7957 64.6634 12.1775 64.9041 11.6299C65.1298 11.1158 65.7367 10.8445 66.2876 11.0741C67.3774 11.5274 68.4544 12.0118 69.53 12.4963C69.9389 12.6806 70.1011 13.0395 70.1235 13.4407C70.1078 14.2224 69.3551 14.7455 68.6428 14.4527Z" fill="white"/>
</svg>
