<svg width="120" height="30" viewBox="0 0 120 30" fill="none" xmlns="http://www.w3.org/2000/svg">
<path d="M50.8771 22.953H51.6578C51.2655 20.8702 50.8722 18.7877 50.4756 16.7057C50.4331 16.4829 50.495 16.4278 50.7099 16.4086C50.8677 16.3941 51.1438 16.3137 51.1514 16.2407C51.2057 15.7187 51.5047 15.5604 51.9866 15.5164C52.0747 15.5086 52.1499 15.2636 52.2065 15.0794C52.2142 15.0542 52.2216 15.0302 52.2286 15.0081C52.2362 14.9826 52.0519 14.8492 51.9553 14.8485C50.1362 14.8389 48.3171 14.8403 46.4981 14.8485C46.3826 14.8485 46.1845 14.907 46.1705 14.9696C46.1427 15.0968 46.1705 15.2894 46.2568 15.374C46.3729 15.4882 46.5669 15.5873 46.7254 15.5838C46.9702 15.579 47.0495 15.6361 47.0606 15.881C47.0773 16.2476 47.2637 16.4038 47.6378 16.4313C47.6939 16.4353 47.7501 16.4424 47.8194 16.4513C47.8574 16.4561 47.8992 16.4615 47.9472 16.4671C47.8994 16.7225 47.8524 16.974 47.8059 17.223C47.7164 17.702 47.6287 18.1716 47.5404 18.6414C47.4085 19.3447 47.276 20.0479 47.1434 20.7511C47.0051 21.485 46.8667 22.2189 46.7291 22.953H47.5078C47.5461 22.75 47.5844 22.547 47.6227 22.344C47.8195 21.302 48.0163 20.26 48.2121 19.2178C48.3658 18.3993 48.5195 17.58 48.66 16.7594C48.7024 16.5138 48.7997 16.4086 49.0688 16.4244C49.37 16.4423 49.5103 16.4105 49.5923 16.4655C49.6742 16.5205 49.6978 16.6622 49.7656 17.027C50.1324 19.0031 50.5043 20.9781 50.8771 22.953Z" fill="white"/>
<path d="M84.2534 10.6427C84.2534 10.8425 84.2534 10.957 84.2534 11.0715C84.2499 12.5603 84.2422 14.0491 84.2428 15.5384C84.244 17.7088 84.2481 19.8793 84.2593 22.0503C84.2605 22.2611 84.2009 22.3405 83.9807 22.347C81.7075 22.4136 79.436 22.4679 77.187 22.0327C75.1588 21.6402 73.4035 20.8255 72.2125 19.0464C71.7986 18.4273 71.2649 17.887 70.7394 17.2544C70.6508 17.4262 70.6101 17.5126 70.5634 17.5955C70.2812 18.0996 69.8578 18.4261 69.2715 18.4419C68.2884 18.4687 67.3036 18.4722 66.3205 18.4419C65.5618 18.4185 64.9318 17.7941 64.8509 17.0459C64.8249 16.8047 64.8172 16.5582 64.8361 16.317C64.8586 16.0314 64.7765 15.9339 64.4647 15.9368C62.684 15.9531 60.9026 15.9315 59.1212 15.9502C58.2509 15.9596 57.5282 15.6739 56.9254 15.0613C56.7128 14.8451 56.4908 14.6378 56.2688 14.431C55.7108 13.913 55.0495 13.6764 54.2819 13.6834C52.9682 13.6957 51.6545 13.6887 50.3401 13.6863C48.087 13.6828 45.8339 13.6735 43.5802 13.6735C41.5136 13.6735 39.4476 13.6823 37.3817 13.6875C36.9188 13.6887 36.4972 13.5795 36.2049 13.1957C35.7308 12.5743 35.7426 11.843 35.7031 11.0936C51.909 11.0446 68.0676 11.2917 84.2534 10.6427ZM79.4968 18.8945C79.5004 19.8477 80.1847 20.5644 81.0904 20.5691C81.9938 20.5737 82.687 19.8565 82.6905 18.9056C82.697 17.2819 82.7018 15.6582 82.7029 14.0339C82.7035 13.1548 81.9655 12.4107 81.1022 12.4096C80.2426 12.4084 79.5157 13.1145 79.5004 13.9936C79.4856 14.8294 79.4974 15.6663 79.4974 16.5027C79.4968 17.3 79.4939 18.0967 79.4968 18.8945ZM74.8802 18.2602C74.9481 19.1235 75.669 19.7344 76.5393 19.7017C77.3789 19.6702 78.0437 18.9891 78.0609 18.1422C78.0632 18.0353 78.0609 17.9285 78.0609 17.7608C78.0898 17.394 78.0384 16.9846 77.7828 16.6225C77.3429 15.9987 76.6025 15.6891 75.7522 16.0676C75.3017 16.2685 74.9764 16.6651 74.9132 17.1849C74.8707 17.5401 74.8512 17.9039 74.879 18.2596L74.8802 18.2602ZM65.514 16.8362C65.5293 17.4116 65.9225 17.7935 66.5106 17.8011C66.9428 17.807 67.375 17.8023 67.8078 17.8023C68.2501 17.8017 68.6923 17.8099 69.1346 17.7994C69.6187 17.7883 70.0243 17.4343 70.0586 16.984C70.0669 16.8777 70.0161 16.7124 69.9364 16.6628C69.614 16.463 69.2727 16.2925 68.932 16.1219C68.7785 16.0448 68.6799 16.0974 68.6339 16.2755C68.5512 16.595 68.4591 16.9133 68.3487 17.2241C68.3215 17.3006 68.2076 17.3467 68.1332 17.4069C68.1007 17.328 68.0493 17.2515 68.0393 17.1697C67.9974 16.8333 67.9696 16.4957 67.9336 16.1587C67.9159 15.9928 67.8173 15.9385 67.6502 15.9403C67.0214 15.9473 66.3925 15.9485 65.7637 15.9403C65.57 15.9379 65.5015 16.0039 65.5134 16.1949C65.5269 16.4075 65.508 16.6225 65.514 16.8362Z" fill="white"/>
<path d="M0.630371 9.14285C0.690002 8.88878 0.982857 8.91623 1.21195 8.91623C1.45757 8.91623 1.72445 8.98165 1.85848 8.66508C1.88269 8.60784 2.03089 8.5763 2.12182 8.57572C3.06653 8.56929 4.01125 8.56637 4.95536 8.57805C5.06696 8.57922 5.24409 8.64814 5.27598 8.72991C5.36159 8.94835 5.52161 8.91681 5.68457 8.91681C7.77001 8.91681 9.85604 8.91681 11.9415 8.91681C17.6381 8.91681 37.7702 8.91681 43.4668 8.91681C46.3789 8.91681 49.2909 8.91681 52.203 8.91681C57.0139 8.91681 61.8254 8.91681 66.6364 8.91681C67.4075 8.91681 67.4488 8.95945 67.4311 9.73276C67.4229 10.0809 67.3018 10.2064 66.9464 10.2105C66.4646 10.2158 65.9828 10.2123 65.501 10.2123C61.5078 10.2123 57.5146 10.2123 53.5215 10.2123C48.8971 10.2123 44.2727 10.2123 39.6484 10.2123C35.1534 10.2123 16.224 10.2123 11.7289 10.2123C9.70194 10.2123 7.67495 10.2111 5.64796 10.217C5.54462 10.217 5.3858 10.2467 5.34801 10.3145C5.2252 10.5359 5.03979 10.5586 4.82369 10.5581C3.96755 10.5551 3.11141 10.5546 2.25526 10.5581C2.03857 10.5586 1.84608 10.5446 1.73921 10.3098C1.71442 10.2555 1.59574 10.2234 1.5178 10.217C1.35188 10.2024 1.17889 10.2351 1.01769 10.2035C0.884254 10.1772 0.668144 10.1036 0.653976 10.0225C0.602608 9.73451 0.565422 9.42204 0.630371 9.14285Z" fill="white"/>
<path d="M63.7279 6.2844C63.5011 6.2844 63.2649 6.2955 63.0311 6.2809C62.8174 6.26746 62.7619 6.35741 62.7672 6.55366C62.7784 6.97127 62.7778 7.38947 62.7643 7.80708C62.7619 7.88826 62.6822 8.03311 62.6314 8.03603C62.2919 8.05648 61.9512 8.04655 61.5845 8.04655V6.30309H57.7892V8.05005C57.494 8.05005 57.2401 8.05005 56.9856 8.05005C56.7317 8.05005 56.6042 7.92331 56.603 7.66982C56.6024 7.21658 56.603 6.76334 56.603 6.30309H55.6305C55.4882 6.84219 55.2579 6.96368 54.7224 6.79897V3.64323C55.1271 3.60195 55.4193 3.74972 55.5992 4.08654C55.6211 4.12742 55.6872 4.16772 55.7338 4.16889C56.0143 4.17649 56.2954 4.1724 56.59 4.1724C56.5894 3.88153 56.7045 3.76413 56.9691 3.76004C57.7124 3.74894 57.7124 3.74135 57.8565 4.17473C57.9645 4.17473 58.0809 4.17357 58.1972 4.17473C59.2458 4.18408 60.2944 4.19868 61.3431 4.19459C61.4316 4.19459 61.5225 4.07194 61.607 4.0001C61.6938 3.92533 61.7753 3.77464 61.8567 3.7764C62.1478 3.78282 62.4377 3.83772 62.7265 3.88387C62.7477 3.88737 62.7442 3.97907 62.7719 4.0147C62.8186 4.07427 62.8782 4.16247 62.9373 4.16597C63.2094 4.18233 63.4828 4.17298 63.745 4.17298C63.8896 3.64556 64.0195 3.57489 64.6944 3.64264V6.82116C64.052 6.92513 63.9457 6.86614 63.7279 6.2844Z" fill="white"/>
<path d="M49.7467 6.85738C49.6292 6.85796 49.5147 6.94849 49.3954 6.98704C49.2484 7.03493 49.0849 7.12722 48.9532 7.09685C48.8611 7.07582 48.7607 6.88599 48.7489 6.76334C48.72 6.46488 48.7418 6.16233 48.7412 5.86095C48.7412 5.1513 48.7288 4.44107 48.7483 3.73201C48.7519 3.60409 48.8593 3.41486 48.9668 3.37163C49.0736 3.329 49.2431 3.42946 49.3813 3.47618C49.5005 3.51707 49.6145 3.61169 49.7314 3.61286C50.734 3.62337 51.736 3.61753 52.7385 3.61694C53.0892 3.61694 53.4394 3.61694 53.8055 3.61694V6.83284C53.7222 6.84102 53.6655 6.85154 53.6088 6.85154C52.3217 6.85154 51.0339 6.84686 49.7467 6.85562V6.85738Z" fill="white"/>
<path d="M85.1273 10.5732C85.1734 10.1685 85.5188 9.93777 85.9126 10.047C86.1801 10.1212 86.3353 10.3589 86.3353 10.7064C86.3359 12.6338 86.3359 14.5613 86.3359 16.4881C86.3359 17.9384 86.3359 19.3886 86.3359 20.8389C86.3359 21.3546 86.3353 21.8709 86.3359 22.3867C86.3359 22.6349 86.2285 22.8539 86.0017 22.9199C85.8152 22.9743 85.5695 22.9614 85.3924 22.8837C85.1273 22.7669 85.1202 22.4848 85.1208 22.2231C85.1226 18.408 85.122 14.5922 85.122 10.7771C85.122 10.7087 85.1196 10.641 85.1273 10.5732Z" fill="white"/>
<path d="M65.6108 3.63972H68.1119V6.83693H65.6108V3.63972Z" fill="white"/>
<path d="M104.558 5.01195C104.522 4.68631 104.483 4.34043 104.446 4.01277C105.086 4.01439 105.701 4.0152 106.358 4.01641C106.321 4.33435 106.282 4.68753 106.245 5.01114C111.502 5.888 114.544 8.91753 115.421 14.188C115.562 14.173 115.737 14.1536 115.913 14.135C116.09 14.1159 116.266 14.0969 116.433 14.0787C116.43 14.7251 116.428 15.3399 116.425 15.9851C116.099 15.9511 115.745 15.9146 115.424 15.8818C114.553 21.1442 111.514 24.1765 106.257 25.0453C106.294 25.364 106.334 25.7099 106.375 26.0676C106.304 26.0793 106.259 26.0935 106.214 26.0939C105.643 26.0992 105.072 26.1032 104.45 26.1073C104.494 25.7188 104.535 25.3661 104.572 25.0413C99.3122 24.1713 96.2775 21.1349 95.3933 15.8668C95.2568 15.8818 95.081 15.9012 94.9057 15.9195C94.7287 15.9385 94.5517 15.9559 94.3864 15.9729C94.3876 15.3293 94.3897 14.7141 94.3909 14.0673C94.7137 14.1026 95.0592 14.1402 95.3925 14.1763C96.2495 8.93211 99.2782 5.88962 104.558 5.01195ZM101.656 14.9908C101.653 15.0134 101.65 15.0357 101.647 15.0588C101.544 15.0734 101.442 15.0892 101.339 15.1025C99.9761 15.2767 98.614 15.4561 97.2503 15.6185C97.0186 15.6461 96.9753 15.7226 97.0012 15.9429C97.211 17.7202 97.8886 19.2904 99.0786 20.6262C100.536 22.2628 102.367 23.1903 104.544 23.4406C104.735 23.4625 104.791 23.4062 104.812 23.2219C104.915 22.3406 105.031 21.4613 105.144 20.5816C105.221 19.981 105.299 19.3811 105.376 18.7805C105.455 18.8854 105.475 18.9931 105.488 19.1009C105.659 20.4253 105.828 21.7501 105.999 23.0741C106.051 23.4694 106.053 23.4686 106.454 23.4208C109.943 23.0036 112.85 20.4018 113.636 16.9818C113.732 16.5594 113.783 16.126 113.858 15.672C112.255 15.4646 110.709 15.265 109.163 15.0653C109.165 15.041 109.167 15.0175 109.168 14.9932C110.716 14.7955 112.263 14.5979 113.807 14.4006C113.624 10.1702 109.861 6.7199 106.033 6.64214C105.836 8.18444 105.639 9.72837 105.441 11.2727C105.417 11.2723 105.394 11.2719 105.37 11.2719C105.17 9.72067 104.97 8.16946 104.768 6.60245C104.634 6.61338 104.54 6.61824 104.447 6.62877C102.985 6.79524 101.648 7.29422 100.462 8.16419C98.4443 9.64291 97.3058 11.6392 96.9984 14.1175C96.9729 14.3245 97.0271 14.4031 97.2426 14.4274C98.0579 14.5193 98.8704 14.6303 99.6841 14.7352C100.341 14.8198 100.999 14.9057 101.656 14.9912L101.656 14.9908Z" fill="white"/>
<path d="M104.524 14.1224C105.024 13.6295 105.823 13.6412 106.317 14.1487C106.808 14.6538 106.793 15.4468 106.283 15.9425C105.789 16.4217 104.998 16.4103 104.509 15.9166C104.012 15.4136 104.018 14.621 104.524 14.1224Z" fill="white"/>
</svg>
