<svg width="184" height="24" viewBox="0 0 184 24" fill="none" xmlns="http://www.w3.org/2000/svg">
<path fill-rule="evenodd" clip-rule="evenodd" d="M155.978 1.46247H180.828V18.8699H155.978V1.46247ZM156.609 2.09317V18.2392H180.197V2.09317H156.609Z" fill="white"/>
<path d="M174.224 14.4714L169.507 5.44768C169.185 4.83127 168.299 4.84178 167.991 5.46576L163.546 14.4895C163.267 15.0542 163.679 15.7147 164.308 15.7147H173.471C174.11 15.7147 174.52 15.0369 174.224 14.4714ZM168.147 7.77961H169.459V12.4645H168.147V7.77961ZM169.463 14.1396H168.151V12.9026H169.463V14.1396Z" fill="white"/>
<path d="M183.792 21.2876H152.93V23.5161H183.792V21.2876Z" fill="white"/>
<path fill-rule="evenodd" clip-rule="evenodd" d="M157.383 2.76592H158.648V3.06025H157.677V3.93693H157.383V2.76592Z" fill="white"/>
<path fill-rule="evenodd" clip-rule="evenodd" d="M157.578 17.397V16.5208H157.284V17.6913H158.548V17.397H157.578Z" fill="white"/>
<path fill-rule="evenodd" clip-rule="evenodd" d="M179.046 3.06025H178.076V2.76592H179.341V3.93693H179.046V3.06025Z" fill="white"/>
<path fill-rule="evenodd" clip-rule="evenodd" d="M179.44 16.5208V17.6913H178.175V17.397H179.146V16.5208H179.44Z" fill="white"/>
<path d="M181.564 19.5212H155.242V0.769531H181.564V19.5212ZM155.495 19.2689H181.311V1.02181H155.495V19.2689Z" fill="white"/>
<path d="M179.881 20.0763H157.084V20.8672H179.881V20.0763Z" fill="white"/>
<path d="M3.57536 12.0068C2.54993 12.0068 1.78161 11.7323 1.27116 11.1818C0.760706 10.632 0.505859 9.88866 0.505859 8.9517V4.06197C0.505859 3.10989 0.764487 2.36274 1.2825 1.82053C1.80051 1.27832 2.56505 1.00684 3.57536 1.00684C4.58568 1.00684 5.35702 1.27681 5.87201 1.81675C6.387 2.35669 6.64487 3.10535 6.64487 4.06197V8.9517C6.64487 9.90378 6.387 10.6509 5.87201 11.1931C5.35627 11.7354 4.59097 12.0068 3.57536 12.0068ZM3.57536 10.5715C4.12741 10.5715 4.52593 10.4271 4.77019 10.139C5.01445 9.85009 5.13621 9.45459 5.13621 8.9517V4.06197C5.13621 3.55379 5.01445 3.15677 4.77019 2.87092C4.52593 2.58507 4.12741 2.44214 3.57536 2.44214C3.02332 2.44214 2.62479 2.58507 2.38053 2.87092C2.13627 3.15677 2.01452 3.55379 2.01452 4.06197V8.9517C2.01452 9.45459 2.13627 9.85009 2.38053 10.139C2.62479 10.4271 3.02257 10.5715 3.57536 10.5715Z" fill="white"/>
<path d="M11.6382 12.0068C10.6128 12.0068 9.84444 11.7323 9.33399 11.1818C8.82354 10.632 8.5687 9.88866 8.5687 8.9517V4.06197C8.5687 3.10989 8.82732 2.36274 9.34534 1.82053C9.86335 1.27832 10.6279 1.00684 11.6382 1.00684C12.6485 1.00684 13.4199 1.27681 13.9348 1.81675C14.4498 2.35669 14.7077 3.10535 14.7077 4.06197V8.9517C14.7077 9.90378 14.4498 10.6509 13.9348 11.1931C13.4191 11.7354 12.6538 12.0068 11.6382 12.0068ZM11.6382 10.5715C12.1902 10.5715 12.5888 10.4271 12.833 10.139C13.0773 9.85009 13.199 9.45459 13.199 8.9517V4.06197C13.199 3.55379 13.0773 3.15677 12.833 2.87092C12.5888 2.58507 12.1902 2.44214 11.6382 2.44214C11.0862 2.44214 10.6876 2.58507 10.4434 2.87092C10.1991 3.15677 10.0774 3.55379 10.0774 4.06197V8.9517C10.0774 9.45459 10.1991 9.85009 10.4434 10.139C10.6876 10.4271 11.0854 10.5715 11.6382 10.5715Z" fill="white"/>
<path d="M19.7018 12.0068C18.6764 12.0068 17.908 11.7323 17.3976 11.1818C16.8871 10.632 16.6323 9.88866 16.6323 8.9517V4.06197C16.6323 3.10989 16.8909 2.36274 17.4089 1.82053C17.9269 1.27832 18.6915 1.00684 19.7018 1.00684C20.7121 1.00684 21.4835 1.27681 21.9984 1.81675C22.5134 2.35669 22.7713 3.10535 22.7713 4.06197V8.9517C22.7713 9.90378 22.5134 10.6509 21.9984 11.1931C21.4827 11.7354 20.7174 12.0068 19.7018 12.0068ZM19.7018 10.5715C20.2538 10.5715 20.6524 10.4271 20.8966 10.139C21.1409 9.85009 21.2626 9.45459 21.2626 8.9517V4.06197C21.2626 3.55379 21.1409 3.15677 20.8966 2.87092C20.6524 2.58507 20.2538 2.44214 19.7018 2.44214C19.1497 2.44214 18.7512 2.58507 18.507 2.87092C18.2627 3.15677 18.141 3.55379 18.141 4.06197V8.9517C18.141 9.45459 18.2627 9.85009 18.507 10.139C18.7512 10.4271 19.149 10.5715 19.7018 10.5715Z" fill="white"/>
<path d="M27.7646 12.0068C26.7392 12.0068 25.9709 11.7323 25.4604 11.1818C24.95 10.632 24.6951 9.88866 24.6951 8.9517V4.06197C24.6951 3.10989 24.9538 2.36274 25.4718 1.82053C25.9898 1.27832 26.7543 1.00684 27.7646 1.00684C28.7749 1.00684 29.5463 1.27681 30.0613 1.81675C30.5763 2.35669 30.8341 3.10535 30.8341 4.06197V8.9517C30.8341 9.90378 30.5763 10.6509 30.0613 11.1931C29.5455 11.7354 28.7802 12.0068 27.7646 12.0068ZM27.7646 10.5715C28.3167 10.5715 28.7152 10.4271 28.9595 10.139C29.2037 9.85009 29.3255 9.45459 29.3255 8.9517V4.06197C29.3255 3.55379 29.2037 3.15677 28.9595 2.87092C28.7152 2.58507 28.3167 2.44214 27.7646 2.44214C27.2126 2.44214 26.8141 2.58507 26.5698 2.87092C26.3255 3.15677 26.2038 3.55379 26.2038 4.06197V8.9517C26.2038 9.45459 26.3255 9.85009 26.5698 10.139C26.8141 10.4271 27.2118 10.5715 27.7646 10.5715Z" fill="white"/>
<path d="M35.8282 12.0068C34.8028 12.0068 34.0345 11.7323 33.524 11.1818C33.0136 10.632 32.7587 9.88866 32.7587 8.9517V4.06197C32.7587 3.10989 33.0173 2.36274 33.5354 1.82053C34.0534 1.27832 34.8179 1.00684 35.8282 1.00684C36.8385 1.00684 37.6099 1.27681 38.1249 1.81675C38.6399 2.35669 38.8977 3.10535 38.8977 4.06197V8.9517C38.8977 9.90378 38.6399 10.6509 38.1249 11.1931C37.6091 11.7354 36.8438 12.0068 35.8282 12.0068ZM35.8282 10.5715C36.3803 10.5715 36.7788 10.4271 37.023 10.139C37.2673 9.85009 37.3891 9.45459 37.3891 8.9517V4.06197C37.3891 3.55379 37.2673 3.15677 37.023 2.87092C36.7788 2.58507 36.3803 2.44214 35.8282 2.44214C35.2762 2.44214 34.8776 2.58507 34.6334 2.87092C34.3891 3.15677 34.2674 3.55379 34.2674 4.06197V8.9517C34.2674 9.45459 34.3891 9.85009 34.6334 10.139C34.8776 10.4271 35.2754 10.5715 35.8282 10.5715Z" fill="white"/>
<path d="M54.2626 12.0068C53.2372 12.0068 52.4689 11.7323 51.9584 11.1818C51.448 10.632 51.1931 9.88866 51.1931 8.9517V4.06197C51.1931 3.10989 51.4518 2.36274 51.9698 1.82053C52.4878 1.27832 53.2523 1.00684 54.2626 1.00684C55.2729 1.00684 56.0443 1.27681 56.5593 1.81675C57.0743 2.35669 57.3321 3.10535 57.3321 4.06197V8.9517C57.3321 9.90378 57.0743 10.6509 56.5593 11.1931C56.0435 11.7354 55.2782 12.0068 54.2626 12.0068ZM54.2626 10.5715C54.8147 10.5715 55.2132 10.4271 55.4575 10.139C55.7017 9.85009 55.8235 9.45459 55.8235 8.9517V4.06197C55.8235 3.55379 55.7017 3.15677 55.4575 2.87092C55.2132 2.58507 54.8147 2.44214 54.2626 2.44214C53.7106 2.44214 53.3121 2.58507 53.0678 2.87092C52.8235 3.15677 52.7018 3.55379 52.7018 4.06197V8.9517C52.7018 9.45459 52.8235 9.85009 53.0678 10.139C53.3121 10.4271 53.7098 10.5715 54.2626 10.5715Z" fill="white"/>
<path d="M72.6971 12.0068C71.6716 12.0068 70.9033 11.7323 70.3928 11.1818C69.8824 10.632 69.6275 9.88866 69.6275 8.9517V4.06197C69.6275 3.10989 69.8862 2.36274 70.4042 1.82053C70.9222 1.27832 71.6867 1.00684 72.6971 1.00684C73.7074 1.00684 74.4787 1.27681 74.9937 1.81675C75.5087 2.35669 75.7666 3.10535 75.7666 4.06197V8.9517C75.7666 9.90378 75.5087 10.6509 74.9937 11.1931C74.478 11.7354 73.7127 12.0068 72.6971 12.0068ZM72.6971 10.5715C73.2491 10.5715 73.6476 10.4271 73.8919 10.139C74.1361 9.85009 74.2579 9.45459 74.2579 8.9517V4.06197C74.2579 3.55379 74.1361 3.15677 73.8919 2.87092C73.6476 2.58507 73.2491 2.44214 72.6971 2.44214C72.145 2.44214 71.7465 2.58507 71.5022 2.87092C71.258 3.15677 71.1362 3.55379 71.1362 4.06197V8.9517C71.1362 9.45459 71.258 9.85009 71.5022 10.139C71.7465 10.4271 72.1443 10.5715 72.6971 10.5715Z" fill="white"/>
<path d="M80.7607 12.0068C79.7352 12.0068 78.9669 11.7323 78.4564 11.1818C77.946 10.632 77.6911 9.88866 77.6911 8.9517V4.06197C77.6911 3.10989 77.9498 2.36274 78.4678 1.82053C78.9858 1.27832 79.7503 1.00684 80.7607 1.00684C81.771 1.00684 82.5423 1.27681 83.0573 1.81675C83.5723 2.35669 83.8301 3.10535 83.8301 4.06197V8.9517C83.8301 9.90378 83.5723 10.6509 83.0573 11.1931C82.5415 11.7354 81.7763 12.0068 80.7607 12.0068ZM80.7607 10.5715C81.3127 10.5715 81.7112 10.4271 81.9555 10.139C82.1997 9.85009 82.3215 9.45459 82.3215 8.9517V4.06197C82.3215 3.55379 82.1997 3.15677 81.9555 2.87092C81.7112 2.58507 81.3127 2.44214 80.7607 2.44214C80.2086 2.44214 79.8101 2.58507 79.5658 2.87092C79.3215 3.15677 79.1998 3.55379 79.1998 4.06197V8.9517C79.1998 9.45459 79.3215 9.85009 79.5658 10.139C79.8101 10.4271 80.2079 10.5715 80.7607 10.5715Z" fill="white"/>
<path d="M88.8235 12.0068C87.798 12.0068 87.0297 11.7323 86.5193 11.1818C86.0088 10.632 85.754 9.88866 85.754 8.9517V4.06197C85.754 3.10989 86.0126 2.36274 86.5306 1.82053C87.0486 1.27832 87.8132 1.00684 88.8235 1.00684C89.8338 1.00684 90.6051 1.27681 91.1201 1.81675C91.6351 2.35669 91.893 3.10535 91.893 4.06197V8.9517C91.893 9.90378 91.6351 10.6509 91.1201 11.1931C90.6044 11.7354 89.8391 12.0068 88.8235 12.0068ZM88.8235 10.5715C89.3755 10.5715 89.774 10.4271 90.0183 10.139C90.2626 9.85009 90.3843 9.45459 90.3843 8.9517V4.06197C90.3843 3.55379 90.2626 3.15677 90.0183 2.87092C89.774 2.58507 89.3755 2.44214 88.8235 2.44214C88.2714 2.44214 87.8729 2.58507 87.6286 2.87092C87.3844 3.15677 87.2626 3.55379 87.2626 4.06197V8.9517C87.2626 9.45459 87.3844 9.85009 87.6286 10.139C87.8729 10.4271 88.2707 10.5715 88.8235 10.5715Z" fill="white"/>
<path d="M112.296 12.0068C111.27 12.0068 110.502 11.7323 109.992 11.1818C109.481 10.632 109.226 9.88866 109.226 8.9517V4.06197C109.226 3.10989 109.485 2.36274 110.003 1.82053C110.521 1.27832 111.286 1.00684 112.296 1.00684C113.306 1.00684 114.078 1.27681 114.592 1.81675C115.107 2.35669 115.365 3.10535 115.365 4.06197V8.9517C115.365 9.90378 115.107 10.6509 114.592 11.1931C114.078 11.7354 113.311 12.0068 112.296 12.0068ZM112.296 10.5715C112.848 10.5715 113.246 10.4271 113.491 10.139C113.735 9.85009 113.857 9.45459 113.857 8.9517V4.06197C113.857 3.55379 113.735 3.15677 113.491 2.87092C113.246 2.58507 112.848 2.44214 112.296 2.44214C111.744 2.44214 111.345 2.58507 111.101 2.87092C110.857 3.15677 110.735 3.55379 110.735 4.06197V8.9517C110.735 9.45459 110.857 9.85009 111.101 10.139C111.345 10.4271 111.743 10.5715 112.296 10.5715Z" fill="white"/>
<path d="M120.359 12.0068C119.332 12.0068 118.565 11.7323 118.054 11.1818C117.544 10.632 117.289 9.88866 117.289 8.9517V4.06197C117.289 3.10989 117.548 2.36274 118.066 1.82053C118.584 1.27832 119.348 1.00684 120.359 1.00684C121.371 1.00684 122.141 1.27681 122.656 1.81675C123.171 2.35669 123.429 3.10535 123.429 4.06197V8.9517C123.429 9.90378 123.171 10.6509 122.656 11.1931C122.14 11.7354 121.374 12.0068 120.359 12.0068ZM120.359 10.5715C120.911 10.5715 121.309 10.4271 121.554 10.139C121.798 9.85009 121.92 9.45459 121.92 8.9517V4.06197C121.92 3.55379 121.798 3.15677 121.554 2.87092C121.309 2.58507 120.911 2.44214 120.359 2.44214C119.807 2.44214 119.408 2.58507 119.164 2.87092C118.92 3.15677 118.798 3.55379 118.798 4.06197V8.9517C118.798 9.45459 118.92 9.85009 119.164 10.139C119.408 10.4271 119.806 10.5715 120.359 10.5715Z" fill="white"/>
<path d="M138.794 12.0068C137.768 12.0068 137 11.7323 136.49 11.1818C135.979 10.632 135.724 9.88866 135.724 8.9517V4.06197C135.724 3.10989 135.983 2.36274 136.501 1.82053C137.019 1.27832 137.784 1.00684 138.795 1.00684C139.806 1.00684 140.576 1.27681 141.091 1.81675C141.606 2.35669 141.864 3.10535 141.864 4.06197V8.9517C141.864 9.90378 141.606 10.6509 141.091 11.1931C140.576 11.7354 139.809 12.0068 138.794 12.0068ZM138.794 10.5715C139.346 10.5715 139.744 10.4271 139.989 10.139C140.233 9.85009 140.355 9.45459 140.355 8.9517V4.06197C140.355 3.55379 140.233 3.15677 139.989 2.87092C139.744 2.58507 139.346 2.44214 138.794 2.44214C138.242 2.44214 137.843 2.58507 137.599 2.87092C137.355 3.15677 137.233 3.55379 137.233 4.06197V8.9517C137.233 9.45459 137.355 9.85009 137.599 10.139C137.843 10.4271 138.241 10.5715 138.794 10.5715Z" fill="white"/>
<rect x="47.1797" y="1.15723" width="1.61133" height="10.8496" fill="white"/>
<rect x="42.1797" y="1.15723" width="1.61133" height="10.8496" fill="white"/>
<rect x="65.1797" y="1.15723" width="1.61133" height="10.8496" fill="white"/>
<rect x="60.1797" y="1.15723" width="1.61133" height="10.8496" fill="white"/>
<rect x="99.5586" y="1.15723" width="1.61133" height="10.8496" fill="white"/>
<rect x="104.559" y="1.15723" width="1.61133" height="10.8496" fill="white"/>
<rect x="126.394" y="1.15723" width="1.61133" height="10.8496" fill="white"/>
<rect x="131.394" y="1.15723" width="1.61133" height="10.8496" fill="white"/>
<rect x="144.87" y="1.15723" width="1.61133" height="10.8496" fill="white"/>
<rect x="94.5586" y="1.15723" width="1.61133" height="10.8496" fill="white"/>
</svg>
