<svg width="160" height="35" viewBox="0 0 160 35" fill="none" xmlns="http://www.w3.org/2000/svg">
<path d="M150.742 10.9105C151.527 11.6296 152.145 12.4792 152.631 13.4245C152.984 14.111 153.222 14.8401 153.414 15.5854C153.501 15.9215 153.598 16.2548 153.679 16.5922C153.782 17.0193 153.448 17.3996 153.034 17.3292C152.812 17.2917 152.645 17.1642 152.578 16.9489C152.471 16.6049 152.376 16.2562 152.29 15.906C152.04 14.8913 151.654 13.937 151.064 13.0698C150.451 12.1709 149.688 11.4277 148.767 10.8503C148.71 10.8147 148.615 10.8078 148.547 10.8255C147.902 10.9924 147.259 11.1674 146.616 11.3398C145.44 11.6547 144.265 11.9705 143.09 12.2854C142.281 12.5021 141.472 12.7154 140.664 12.9364C140.539 12.9708 140.495 12.9389 140.462 12.8175C140.109 11.485 139.75 10.1537 139.395 8.82177C139.299 8.46348 139.477 8.1627 139.836 8.06659C141.19 7.70373 142.545 7.34381 143.897 6.97603C144.14 6.91002 144.353 6.93008 144.573 7.06161C145.108 7.38265 150.378 10.5784 150.741 10.911L150.742 10.9105Z" fill="white"/>
<path d="M146.418 11.8755L142.597 12.8991L142.986 14.3508L146.807 13.3271L146.418 11.8755Z" fill="white"/>
<path d="M139.632 15.7821L149.498 13.1385C149.625 13.1044 149.756 13.1801 149.791 13.3073L150.241 14.987L139.914 17.7542L139.464 16.0744C139.429 15.9472 139.505 15.8162 139.632 15.7821Z" fill="white"/>
<path d="M149.64 15.7351L140.531 18.1757L144.018 31.1889L153.127 28.7483L149.64 15.7351Z" fill="white"/>
<path d="M153.955 29.1175L143.325 31.9657L143.857 33.9525L154.487 31.1042L153.955 29.1175Z" fill="white"/>
<path d="M148.253 2.72882C149.932 2.27885 151.664 3.2788 152.114 4.95811C152.564 6.63742 151.564 8.36939 149.885 8.81935C148.205 9.26932 146.473 8.26937 146.023 6.59006C145.573 4.91076 146.573 3.17879 148.253 2.72882ZM147.971 1.67873C145.709 2.2848 144.367 4.60954 144.973 6.87144C145.579 9.13333 147.904 10.4755 150.166 9.86945C152.428 9.26337 153.77 6.93864 153.164 4.67674C152.558 2.41484 150.233 1.07265 147.971 1.67873Z" fill="white"/>
<path d="M0.910156 19.7522C1.08668 19.5739 1.25789 19.3939 1.43974 19.2165C3.35583 17.3491 5.47505 15.5494 8.29862 13.9862C10.88 12.5567 13.8597 11.4177 17.5544 10.817C22.0563 10.086 26.4775 10.3251 30.8304 11.1392C35.0795 11.9337 38.7662 13.208 42.3224 14.5955C45.3057 15.7594 48.2659 16.9412 51.344 18.0381C54.5827 19.1925 58.1701 19.9536 62.1921 20.1061C67.5305 20.3084 71.486 19.2165 74.1516 16.8889C76.4447 14.8861 77.6999 12.7298 77.9279 10.4202C77.9492 10.2094 77.9678 9.99768 77.9882 9.78685C78.0495 9.78428 78.1106 9.78085 78.1719 9.77828C78.3413 10.3542 78.5719 10.9284 78.6695 11.5077C79.0962 14.0462 78.2375 16.4638 75.7714 18.7006C73.23 21.0051 69.2275 22.2066 64.0922 22.4749C59.1459 22.7328 54.5756 22.1038 50.2573 20.9168C46.6948 19.9381 43.5386 18.6698 40.3957 17.392C37.3788 16.1656 34.3733 14.9306 30.9341 14.0059C27.9979 13.2158 24.9278 12.6476 21.5507 12.6527C17.7211 12.6578 14.4194 13.4206 11.3874 14.5338C8.1008 15.7414 5.38014 17.2446 2.71447 18.7752C2.1361 19.1077 1.56393 19.4419 0.989106 19.7762C0.963381 19.7676 0.936769 19.759 0.911043 19.7513L0.910156 19.7522Z" fill="white"/>
<path d="M13.2015 18.3115C13.9449 17.5805 15.0706 17.0526 16.4579 16.6738C20.0524 15.6934 23.7905 15.6771 27.5952 16.301C31.2296 16.8966 34.2855 17.9876 37.1827 19.2071C39.9539 20.3735 42.6613 21.5819 45.4991 22.7046C47.9722 23.6833 50.7976 24.3303 53.9334 24.5883C55.6224 24.7271 57.3043 24.6937 58.9764 24.5026C58.9968 24.5291 59.0163 24.5557 59.0367 24.5823C58.2792 24.7597 57.5465 24.9739 56.7605 25.1076C53.3763 25.6818 50.0365 25.4984 46.7534 24.8839C43.4153 24.2583 40.5838 23.2153 37.8498 22.0961C35.5017 21.1345 33.1962 20.143 30.7887 19.22C28.3457 18.2832 25.6764 17.5402 22.6001 17.2737C19.2868 16.9866 16.1723 17.2248 13.402 18.2575C13.3417 18.2798 13.268 18.2935 13.2015 18.3115Z" fill="white"/>
<path d="M74.7007 9.67887C74.6351 10.1794 74.6103 10.6824 74.4958 11.1795C74.1463 12.6998 73.2264 14.1216 71.4452 15.3763C67.7904 17.9507 62.028 18.2644 57.4267 17.434C54.9997 16.996 53.0046 16.223 51.2207 15.3077C49.8209 14.5895 48.4823 13.8405 47.1073 13.1103C45.6685 12.3459 44.1028 11.662 42.2062 11.1949C42.1601 11.1838 42.1255 11.1606 42.1211 11.0732C42.8609 11.1409 43.6105 11.1881 44.3388 11.2789C46.5769 11.5592 48.4699 12.1813 50.3017 12.8558C51.8656 13.4317 53.3896 14.0359 54.9686 14.6007C56.804 15.2571 58.8167 15.7071 61.0868 15.8228C64.5898 16.0019 67.3877 15.3377 69.6417 14.0153C71.6803 12.819 73.0277 11.4203 74.2599 9.98825C74.3521 9.88027 74.4479 9.77314 74.5428 9.66602C74.5961 9.6703 74.6493 9.67459 74.7025 9.67887H74.7007Z" fill="white"/>
<path d="M118.473 27.011C117.826 26.8739 117.148 26.753 116.482 26.5859C114.36 26.0529 112.428 25.0827 110.487 24.1349C109.503 23.655 108.517 23.1853 107.441 22.9154C106.296 22.6283 105.157 22.6583 104.083 23.1039C102.535 23.7449 101.021 24.4614 99.5021 25.165C97.8973 25.9089 96.2394 26.4891 94.4981 26.8619C93.5533 27.0641 92.7044 26.8713 91.8528 26.4977C89.7912 25.5944 87.8326 24.5334 86.1178 23.0902C84.8511 22.0249 83.7352 20.8363 82.9563 19.3793C82.8694 19.2174 82.8853 19.1051 82.9811 18.9525C84.5708 16.4192 86.714 14.3778 89.0922 12.5507C89.7291 12.0613 90.4007 11.6114 91.0766 11.1735C91.6585 10.7964 92.299 10.8469 92.9616 10.9764C95.6113 11.4931 98.1475 12.3596 100.676 13.2551C101.989 13.7205 103.305 14.1764 104.69 14.4147C105.783 14.6024 106.864 14.5467 107.943 14.3153C109.757 13.927 111.466 13.238 113.207 12.6415C115.106 11.9911 117.024 11.4203 118.997 11.0158C119.711 10.8692 120.399 10.763 121.051 11.1718C121.461 11.4289 121.866 11.6945 122.258 11.9765C124.44 13.5431 126.422 15.3111 128.062 17.4151C128.454 17.9173 128.788 18.4606 129.158 18.9783C129.252 19.1102 129.254 19.2097 129.178 19.3553C128.548 20.5629 127.666 21.5827 126.663 22.5109C124.59 24.4306 122.144 25.7735 119.493 26.7908C119.187 26.9082 118.844 26.933 118.472 27.0102L118.473 27.011ZM110.767 19.3776C112.886 20.7566 115.08 21.6718 117.619 21.3342C119.752 21.0505 121.491 19.9792 123.073 18.5249C121.187 17.2257 119.191 16.3687 116.892 16.4981C114.487 16.6335 112.538 17.7673 110.767 19.3776ZM89.0124 18.5335C90.7786 20.0889 92.6822 21.2485 95.0773 21.3847C97.4015 21.5176 99.4071 20.6554 101.32 19.3716C99.5713 17.7862 97.6428 16.6532 95.2601 16.5024C92.9386 16.3558 90.9267 17.2248 89.0115 18.5326L89.0124 18.5335Z" fill="white"/>
<path d="M85.677 21.9778C85.0933 21.8347 84.5105 21.6924 83.9277 21.5476C83.8505 21.5287 83.776 21.4979 83.6784 21.4653C83.5817 21.9487 83.5648 22.4226 83.6207 22.8965C83.776 24.206 83.9631 25.5121 84.098 26.8233C84.2239 28.048 84.1743 29.2709 83.9552 30.487C83.8115 31.2866 83.5755 32.0545 83.1745 32.7675C82.5758 33.8311 81.6922 34.5613 80.4663 34.8775C79.8249 35.0429 79.2066 34.9786 78.6141 34.7027C77.8388 34.3419 77.2613 33.7582 76.6882 33.0924C76.9925 32.9509 77.2648 32.819 77.5425 32.6956C78.0579 32.4676 78.5839 32.2602 79.0913 32.0159C79.9873 31.584 80.5568 30.8598 80.9311 29.9857C81.5006 28.6582 81.8936 27.2775 82.1198 25.8592C82.3673 24.3029 82.5749 22.7414 82.7975 21.1816C82.8073 21.1122 82.7931 21.0394 82.7895 20.9674L82.7221 20.9502C82.6884 21.0128 82.6387 21.0719 82.6245 21.1388C82.4773 21.821 82.3158 22.5006 82.1979 23.1879C82.0196 24.2266 81.9211 25.2807 81.6993 26.31C81.5006 27.2347 81.0411 28.06 80.3377 28.7396C79.8515 29.2092 79.2581 29.5169 78.6132 29.7089C77.4768 30.0457 76.446 30.5599 75.5173 31.2729C75.4836 31.2986 75.4436 31.3166 75.3816 31.3518C74.3401 29.7363 73.556 27.976 72.252 26.5302C72.2626 26.5114 72.2733 26.4925 72.2839 26.4737C72.4391 26.5148 72.5935 26.5611 72.7505 26.5954C73.2313 26.7008 73.7085 26.8319 74.1955 26.8979C75.3895 27.0581 76.36 26.6185 77.1628 25.7872C77.939 24.9833 78.4624 24.0278 78.9166 23.0336C79.3237 22.1415 79.6919 21.2331 80.107 20.3443C80.2942 19.9441 80.5319 19.5619 80.783 19.1951C81.2372 18.5318 81.9335 18.1958 82.7053 18.0355C83.194 17.9344 83.5986 17.6996 84.0332 17.4948C84.5584 17.2471 85.127 17.0834 85.677 16.8837V21.9778Z" fill="white"/>
</svg>
