<svg width="83" height="24" viewBox="0 0 83 24" fill="none" xmlns="http://www.w3.org/2000/svg">
<circle cx="71.1748" cy="11.6895" r="10.8711" stroke="white"/>
<path d="M70.9732 3.91016L72.7015 9.22924H78.2943L73.7697 12.5166L75.4979 17.8357L70.9732 14.5483L66.4486 17.8357L68.1768 12.5166L63.6522 9.22924H69.245L70.9732 3.91016Z" fill="white"/>
<path fill-rule="evenodd" clip-rule="evenodd" d="M58.2601 0.841797H0.0859375L5.56134 3.92171H56.2003C56.7741 2.81803 57.4663 1.78578 58.2601 0.841797ZM54.4366 9.60245H12.1318L16.5122 12.6824H54.3373C54.3182 12.3541 54.3086 12.0234 54.3086 11.6903C54.3086 10.9834 54.3521 10.2866 54.4366 9.60245ZM55.68 18.3631H23.0826L27.463 21.443H57.4125C56.7328 20.4856 56.1505 19.4541 55.68 18.3631Z" fill="white"/>
</svg>
