<svg width="128" height="23" viewBox="0 0 128 23" fill="none" xmlns="http://www.w3.org/2000/svg">
<path d="M126.096 6.27705C126.632 6.27705 127.033 6.58459 127.033 6.85881V21.5044C127.033 21.7795 126.632 22.0862 126.096 22.0862H117.648C121.111 21.0055 123.632 17.7559 123.632 13.9253C123.632 10.5809 121.709 7.67891 118.916 6.27705H126.095M111.349 6.27705C108.556 7.67891 106.633 10.5809 106.633 13.9253C106.633 17.7559 109.155 21.0055 112.617 22.0862H104.17C103.634 22.0862 103.233 21.7786 103.233 21.5044V6.85881C103.233 6.58373 103.633 6.27705 104.17 6.27705H111.349ZM104.17 5.42278C103.183 5.42278 102.383 6.06605 102.383 6.85881V21.5044C102.383 22.298 103.183 22.9404 104.17 22.9404H126.097C127.084 22.9404 127.884 22.2972 127.884 21.5044V6.85881C127.884 6.06519 127.084 5.42278 126.097 5.42278H104.17ZM115.133 21.6138C110.907 21.6138 107.483 18.1719 107.483 13.9253C107.483 9.67875 110.907 6.2369 115.133 6.2369C119.358 6.2369 122.783 9.67875 122.783 13.9253C122.783 18.1719 119.358 21.6138 115.133 21.6138Z" fill="white"/>
<path d="M116.663 9.7394H113.688V18.1967H116.663V9.7394Z" fill="white"/>
<path d="M119.383 15.463V12.4731H110.968V15.463H119.383Z" fill="white"/>
<path d="M118.66 4.61379H117.725V2.62932C117.725 2.42259 117.558 2.25344 117.351 2.25344H112.488C112.283 2.25344 112.114 2.42173 112.114 2.62932V4.61379H111.179V2.62932C111.179 1.90405 111.767 1.31375 112.488 1.31375H117.351C118.073 1.31375 118.66 1.90405 118.66 2.62932V4.61379Z" fill="white"/>
<path d="M117.003 0.94043H112.753V2.56354H117.003V0.94043Z" fill="white"/>
<path d="M107.651 3.50324H109.185C109.325 3.50324 109.438 3.61771 109.438 3.75781V4.61379H107.398V3.75781C107.398 3.61686 107.512 3.50324 107.651 3.50324Z" fill="white"/>
<path d="M120.401 3.50324H121.935C122.075 3.50324 122.188 3.61771 122.188 3.75781V4.61379H120.148V3.75781C120.148 3.61686 120.262 3.50324 120.401 3.50324Z" fill="white"/>
<path d="M89.6161 9.40791C87.8215 8.11749 85.9709 7.27368 83.6064 7.31211C75.2404 7.44756 66.8717 7.32218 58.5038 7.38258C56.4433 7.39723 54.9843 6.75293 54.0373 4.83376C53.3534 3.44724 52.808 3.41887 52.0862 4.83376C51.6285 5.72974 51.0496 6.36672 50.3739 6.79045V15.6468C51.0894 16.076 51.709 16.7194 52.1983 17.685C52.8333 18.9369 53.4122 18.8985 53.9749 17.6264C54.9291 15.472 56.5772 15.0281 58.6893 15.0556C67.2489 15.1636 75.8102 15.1425 84.3689 15.2752C86.6782 15.3109 88.2548 13.9391 89.9553 12.8024C90.8083 12.2331 90.5062 10.0495 89.6143 9.40883L89.6161 9.40791ZM56.8865 13.2243C55.7622 13.2243 54.8513 12.3027 54.8513 11.1651C54.8513 10.0275 55.7622 9.1059 56.8865 9.1059C58.0109 9.1059 58.9217 10.0275 58.9217 11.1651C58.9217 12.3027 58.0109 13.2243 56.8865 13.2243ZM62.4946 13.2243C61.3703 13.2243 60.4594 12.3027 60.4594 11.1651C60.4594 10.0275 61.3703 9.1059 62.4946 9.1059C63.619 9.1059 64.5298 10.0275 64.5298 11.1651C64.5298 12.3027 63.619 13.2243 62.4946 13.2243ZM68.1027 13.2243C66.9784 13.2243 66.0675 12.3027 66.0675 11.1651C66.0675 10.0275 66.9784 9.1059 68.1027 9.1059C69.2271 9.1059 70.1379 10.0275 70.1379 11.1651C70.1379 12.3027 69.2271 13.2243 68.1027 13.2243ZM73.7108 13.2243C72.5865 13.2243 71.6756 12.3027 71.6756 11.1651C71.6756 10.0275 72.5865 9.1059 73.7108 9.1059C74.8352 9.1059 75.746 10.0275 75.746 11.1651C75.746 12.3027 74.8352 13.2243 73.7108 13.2243ZM79.3189 13.2243C78.1946 13.2243 77.2837 12.3027 77.2837 11.1651C77.2837 10.0275 78.1946 9.1059 79.3189 9.1059C80.4433 9.1059 81.3541 10.0275 81.3541 11.1651C81.3541 12.3027 80.4433 13.2243 79.3189 13.2243ZM84.927 13.2243C83.8027 13.2243 82.8918 12.3027 82.8918 11.1651C82.8918 10.0275 83.8027 9.1059 84.927 9.1059C86.0514 9.1059 86.9622 10.0275 86.9622 11.1651C86.9622 12.3027 86.0514 13.2243 84.927 13.2243Z" fill="white"/>
<path d="M48.7458 7.39357C48.2501 7.47685 47.7245 7.49332 47.1728 7.45031C42.168 7.06593 37.1488 6.74286 32.1784 6.06836C27.4051 5.4204 22.7178 5.81394 18.0496 6.62022C14.6829 7.20137 11.366 8.09552 8.04544 8.92286C5.53898 9.54794 3.06056 10.2892 0.569481 10.9793C0.5333 11.1193 0.497119 11.2594 0.460938 11.3994C2.39392 12.2249 4.29525 13.1373 6.26532 13.8594C12.4442 16.1264 18.8139 17.4699 25.4052 17.5028C26.7376 17.5092 28.0872 17.2026 29.4023 16.9171C35.0385 15.6953 40.7036 14.7673 46.4926 14.8213C47.2822 14.8286 48.0393 14.8762 48.7458 15.0272V7.39265V7.39357ZM24.6852 16.2902C18.4032 16.8512 3.71997 11.1925 3.71997 11.1925L21.5311 14.9824C23.3239 15.364 25.1601 15.4949 26.9881 15.3713L33.7305 14.9165C33.7305 14.9165 30.836 15.7402 24.6852 16.2893V16.2902Z" fill="white"/>
</svg>
